<?xml version="1.0" encoding="utf-8"?>
<!-- Generator: Adobe Illustrator 27.5.0, SVG Export Plug-In . SVG Version: 6.00 Build 0)  -->
<svg version="1.1" xmlns="http://www.w3.org/2000/svg" xmlns:xlink="http://www.w3.org/1999/xlink" x="0px" y="0px"
	 viewBox="0 0 500 500" style="enable-background:new 0 0 500 500;" xml:space="preserve">
<g id="BACKGROUND">
	<g>
		<defs>
			<rect id="SVGID_1_" width="500" height="500"/>
		</defs>
		<clipPath id="SVGID_00000007399094229635702640000001805167136493449403_">
			<use xlink:href="#SVGID_1_"  style="overflow:visible;"/>
		</clipPath>
		
			<rect style="clip-path:url(#SVGID_00000007399094229635702640000001805167136493449403_);fill:#0E1330;" width="500" height="500"/>
		<g style="clip-path:url(#SVGID_00000007399094229635702640000001805167136493449403_);">
			<line style="fill:none;stroke:#24004661;stroke-width:0.8378;stroke-miterlimit:10;" x1="0" y1="-1" x2="500" y2="-1"/>
			<line style="fill:none;stroke:#24004661;stroke-width:0.8378;stroke-miterlimit:10;" x1="0" y1="4.138" x2="500" y2="4.138"/>
			<line style="fill:none;stroke:#24004661;stroke-width:0.8378;stroke-miterlimit:10;" x1="0" y1="9.277" x2="500" y2="9.277"/>
			<line style="fill:none;stroke:#24004661;stroke-width:0.8378;stroke-miterlimit:10;" x1="0" y1="14.415" x2="500" y2="14.415"/>
			<line style="fill:none;stroke:#24004661;stroke-width:0.8378;stroke-miterlimit:10;" x1="0" y1="19.554" x2="500" y2="19.554"/>
			<line style="fill:none;stroke:#24004661;stroke-width:0.8378;stroke-miterlimit:10;" x1="0" y1="24.692" x2="500" y2="24.692"/>
			<line style="fill:none;stroke:#24004661;stroke-width:0.8378;stroke-miterlimit:10;" x1="0" y1="29.83" x2="500" y2="29.83"/>
			<line style="fill:none;stroke:#24004661;stroke-width:0.8378;stroke-miterlimit:10;" x1="0" y1="34.969" x2="500" y2="34.969"/>
			<line style="fill:none;stroke:#24004661;stroke-width:0.8378;stroke-miterlimit:10;" x1="0" y1="40.107" x2="500" y2="40.107"/>
			<line style="fill:none;stroke:#24004661;stroke-width:0.8378;stroke-miterlimit:10;" x1="0" y1="45.246" x2="500" y2="45.246"/>
			<line style="fill:none;stroke:#24004661;stroke-width:0.8378;stroke-miterlimit:10;" x1="0" y1="50.384" x2="500" y2="50.384"/>
			<line style="fill:none;stroke:#24004661;stroke-width:0.8378;stroke-miterlimit:10;" x1="0" y1="55.523" x2="500" y2="55.523"/>
			<line style="fill:none;stroke:#24004661;stroke-width:0.8378;stroke-miterlimit:10;" x1="0" y1="60.661" x2="500" y2="60.661"/>
			<line style="fill:none;stroke:#24004661;stroke-width:0.8378;stroke-miterlimit:10;" x1="0" y1="65.799" x2="500" y2="65.799"/>
			<line style="fill:none;stroke:#24004661;stroke-width:0.8378;stroke-miterlimit:10;" x1="0" y1="70.938" x2="500" y2="70.938"/>
			<line style="fill:none;stroke:#24004661;stroke-width:0.8378;stroke-miterlimit:10;" x1="0" y1="76.076" x2="500" y2="76.076"/>
			<line style="fill:none;stroke:#24004661;stroke-width:0.8378;stroke-miterlimit:10;" x1="0" y1="81.215" x2="500" y2="81.215"/>
			<line style="fill:none;stroke:#24004661;stroke-width:0.8378;stroke-miterlimit:10;" x1="0" y1="86.353" x2="500" y2="86.353"/>
			<line style="fill:none;stroke:#24004661;stroke-width:0.8378;stroke-miterlimit:10;" x1="0" y1="91.492" x2="500" y2="91.492"/>
			<line style="fill:none;stroke:#24004661;stroke-width:0.8378;stroke-miterlimit:10;" x1="0" y1="96.63" x2="500" y2="96.63"/>
			<line style="fill:none;stroke:#24004661;stroke-width:0.8378;stroke-miterlimit:10;" x1="0" y1="101.769" x2="500" y2="101.769"/>
			<line style="fill:none;stroke:#24004661;stroke-width:0.8378;stroke-miterlimit:10;" x1="0" y1="106.907" x2="500" y2="106.907"/>
			<line style="fill:none;stroke:#24004661;stroke-width:0.8378;stroke-miterlimit:10;" x1="0" y1="112.045" x2="500" y2="112.045"/>
			<line style="fill:none;stroke:#24004661;stroke-width:0.8378;stroke-miterlimit:10;" x1="0" y1="117.184" x2="500" y2="117.184"/>
			<line style="fill:none;stroke:#24004661;stroke-width:0.8378;stroke-miterlimit:10;" x1="0" y1="122.322" x2="500" y2="122.322"/>
			<line style="fill:none;stroke:#24004661;stroke-width:0.8378;stroke-miterlimit:10;" x1="0" y1="127.461" x2="500" y2="127.461"/>
			<line style="fill:none;stroke:#24004661;stroke-width:0.8378;stroke-miterlimit:10;" x1="0" y1="132.599" x2="500" y2="132.599"/>
			<line style="fill:none;stroke:#24004661;stroke-width:0.8378;stroke-miterlimit:10;" x1="0" y1="137.738" x2="500" y2="137.738"/>
			<line style="fill:none;stroke:#24004661;stroke-width:0.8378;stroke-miterlimit:10;" x1="0" y1="142.876" x2="500" y2="142.876"/>
			<line style="fill:none;stroke:#24004661;stroke-width:0.8378;stroke-miterlimit:10;" x1="0" y1="148.014" x2="500" y2="148.014"/>
			<line style="fill:none;stroke:#24004661;stroke-width:0.8378;stroke-miterlimit:10;" x1="0" y1="153.153" x2="500" y2="153.153"/>
			<line style="fill:none;stroke:#24004661;stroke-width:0.8378;stroke-miterlimit:10;" x1="0" y1="158.291" x2="500" y2="158.291"/>
			<line style="fill:none;stroke:#24004661;stroke-width:0.8378;stroke-miterlimit:10;" x1="0" y1="163.43" x2="500" y2="163.43"/>
			<line style="fill:none;stroke:#24004661;stroke-width:0.8378;stroke-miterlimit:10;" x1="0" y1="168.568" x2="500" y2="168.568"/>
			<line style="fill:none;stroke:#24004661;stroke-width:0.8378;stroke-miterlimit:10;" x1="0" y1="173.706" x2="500" y2="173.706"/>
			<line style="fill:none;stroke:#24004661;stroke-width:0.8378;stroke-miterlimit:10;" x1="0" y1="178.845" x2="500" y2="178.845"/>
			<line style="fill:none;stroke:#24004661;stroke-width:0.8378;stroke-miterlimit:10;" x1="0" y1="183.983" x2="500" y2="183.983"/>
			<line style="fill:none;stroke:#24004661;stroke-width:0.8378;stroke-miterlimit:10;" x1="0" y1="189.122" x2="500" y2="189.122"/>
			<line style="fill:none;stroke:#24004661;stroke-width:0.8378;stroke-miterlimit:10;" x1="0" y1="194.26" x2="500" y2="194.26"/>
			<line style="fill:none;stroke:#24004661;stroke-width:0.8378;stroke-miterlimit:10;" x1="0" y1="199.399" x2="500" y2="199.399"/>
			<line style="fill:none;stroke:#24004661;stroke-width:0.8378;stroke-miterlimit:10;" x1="0" y1="204.537" x2="500" y2="204.537"/>
			<line style="fill:none;stroke:#24004661;stroke-width:0.8378;stroke-miterlimit:10;" x1="0" y1="209.676" x2="500" y2="209.676"/>
			<line style="fill:none;stroke:#24004661;stroke-width:0.8378;stroke-miterlimit:10;" x1="0" y1="214.814" x2="500" y2="214.814"/>
			<line style="fill:none;stroke:#24004661;stroke-width:0.8378;stroke-miterlimit:10;" x1="0" y1="219.952" x2="500" y2="219.952"/>
			<line style="fill:none;stroke:#24004661;stroke-width:0.8378;stroke-miterlimit:10;" x1="0" y1="225.091" x2="500" y2="225.091"/>
			<line style="fill:none;stroke:#24004661;stroke-width:0.8378;stroke-miterlimit:10;" x1="0" y1="230.229" x2="500" y2="230.229"/>
			<line style="fill:none;stroke:#24004661;stroke-width:0.8378;stroke-miterlimit:10;" x1="0" y1="235.368" x2="500" y2="235.368"/>
			<line style="fill:none;stroke:#24004661;stroke-width:0.8378;stroke-miterlimit:10;" x1="0" y1="240.506" x2="500" y2="240.506"/>
			<line style="fill:none;stroke:#24004661;stroke-width:0.8378;stroke-miterlimit:10;" x1="0" y1="245.644" x2="500" y2="245.644"/>
			<line style="fill:none;stroke:#24004661;stroke-width:0.8378;stroke-miterlimit:10;" x1="0" y1="250.783" x2="500" y2="250.783"/>
			<line style="fill:none;stroke:#24004661;stroke-width:0.8378;stroke-miterlimit:10;" x1="0" y1="255.921" x2="500" y2="255.921"/>
			<line style="fill:none;stroke:#24004661;stroke-width:0.8378;stroke-miterlimit:10;" x1="0" y1="261.06" x2="500" y2="261.06"/>
			<line style="fill:none;stroke:#24004661;stroke-width:0.8378;stroke-miterlimit:10;" x1="0" y1="266.198" x2="500" y2="266.198"/>
			<line style="fill:none;stroke:#24004661;stroke-width:0.8378;stroke-miterlimit:10;" x1="0" y1="271.337" x2="500" y2="271.337"/>
			<line style="fill:none;stroke:#24004661;stroke-width:0.8378;stroke-miterlimit:10;" x1="0" y1="276.475" x2="500" y2="276.475"/>
			<line style="fill:none;stroke:#24004661;stroke-width:0.8378;stroke-miterlimit:10;" x1="0" y1="281.613" x2="500" y2="281.613"/>
			<line style="fill:none;stroke:#24004661;stroke-width:0.8378;stroke-miterlimit:10;" x1="0" y1="286.752" x2="500" y2="286.752"/>
			<line style="fill:none;stroke:#24004661;stroke-width:0.8378;stroke-miterlimit:10;" x1="0" y1="291.89" x2="500" y2="291.89"/>
			<line style="fill:none;stroke:#24004661;stroke-width:0.8378;stroke-miterlimit:10;" x1="0" y1="297.029" x2="500" y2="297.029"/>
			<line style="fill:none;stroke:#24004661;stroke-width:0.8378;stroke-miterlimit:10;" x1="0" y1="302.167" x2="500" y2="302.167"/>
			<line style="fill:none;stroke:#24004661;stroke-width:0.8378;stroke-miterlimit:10;" x1="0" y1="307.306" x2="500" y2="307.306"/>
			<line style="fill:none;stroke:#24004661;stroke-width:0.8378;stroke-miterlimit:10;" x1="0" y1="311.299" x2="500" y2="311.299"/>
			<line style="fill:none;stroke:#24004661;stroke-width:0.8378;stroke-miterlimit:10;" x1="0" y1="316.437" x2="500" y2="316.437"/>
			<line style="fill:none;stroke:#24004661;stroke-width:0.8378;stroke-miterlimit:10;" x1="0" y1="321.576" x2="500" y2="321.576"/>
			<line style="fill:none;stroke:#24004661;stroke-width:0.8378;stroke-miterlimit:10;" x1="0" y1="326.714" x2="500" y2="326.714"/>
			<line style="fill:none;stroke:#24004661;stroke-width:0.8378;stroke-miterlimit:10;" x1="0" y1="331.853" x2="500" y2="331.853"/>
			<line style="fill:none;stroke:#24004661;stroke-width:0.8378;stroke-miterlimit:10;" x1="0" y1="336.991" x2="500" y2="336.991"/>
			<line style="fill:none;stroke:#24004661;stroke-width:0.8378;stroke-miterlimit:10;" x1="0" y1="342.129" x2="500" y2="342.129"/>
			<line style="fill:none;stroke:#24004661;stroke-width:0.8378;stroke-miterlimit:10;" x1="0" y1="347.268" x2="500" y2="347.268"/>
			<line style="fill:none;stroke:#24004661;stroke-width:0.8378;stroke-miterlimit:10;" x1="0" y1="352.406" x2="500" y2="352.406"/>
			<line style="fill:none;stroke:#24004661;stroke-width:0.8378;stroke-miterlimit:10;" x1="0" y1="357.545" x2="500" y2="357.545"/>
			<line style="fill:none;stroke:#24004661;stroke-width:0.8378;stroke-miterlimit:10;" x1="0" y1="362.683" x2="500" y2="362.683"/>
			<line style="fill:none;stroke:#24004661;stroke-width:0.8378;stroke-miterlimit:10;" x1="0" y1="367.822" x2="500" y2="367.822"/>
			<line style="fill:none;stroke:#24004661;stroke-width:0.8378;stroke-miterlimit:10;" x1="0" y1="372.96" x2="500" y2="372.96"/>
			<line style="fill:none;stroke:#24004661;stroke-width:0.8378;stroke-miterlimit:10;" x1="0" y1="378.098" x2="500" y2="378.098"/>
			<line style="fill:none;stroke:#24004661;stroke-width:0.8378;stroke-miterlimit:10;" x1="0" y1="383.237" x2="500" y2="383.237"/>
			<line style="fill:none;stroke:#24004661;stroke-width:0.8378;stroke-miterlimit:10;" x1="0" y1="388.375" x2="500" y2="388.375"/>
			<line style="fill:none;stroke:#24004661;stroke-width:0.8378;stroke-miterlimit:10;" x1="0" y1="393.514" x2="500" y2="393.514"/>
			<line style="fill:none;stroke:#24004661;stroke-width:0.8378;stroke-miterlimit:10;" x1="0" y1="398.652" x2="500" y2="398.652"/>
			<line style="fill:none;stroke:#24004661;stroke-width:0.8378;stroke-miterlimit:10;" x1="0" y1="403.79" x2="500" y2="403.79"/>
			<line style="fill:none;stroke:#24004661;stroke-width:0.8378;stroke-miterlimit:10;" x1="0" y1="408.929" x2="500" y2="408.929"/>
			<line style="fill:none;stroke:#24004661;stroke-width:0.8378;stroke-miterlimit:10;" x1="0" y1="414.067" x2="500" y2="414.067"/>
			<line style="fill:none;stroke:#24004661;stroke-width:0.8378;stroke-miterlimit:10;" x1="0" y1="419.206" x2="500" y2="419.206"/>
			<line style="fill:none;stroke:#24004661;stroke-width:0.8378;stroke-miterlimit:10;" x1="0" y1="424.344" x2="500" y2="424.344"/>
			<line style="fill:none;stroke:#24004661;stroke-width:0.8378;stroke-miterlimit:10;" x1="0" y1="429.483" x2="500" y2="429.483"/>
			<line style="fill:none;stroke:#24004661;stroke-width:0.8378;stroke-miterlimit:10;" x1="0" y1="434.621" x2="500" y2="434.621"/>
			<line style="fill:none;stroke:#24004661;stroke-width:0.8378;stroke-miterlimit:10;" x1="0" y1="439.759" x2="500" y2="439.759"/>
			<line style="fill:none;stroke:#24004661;stroke-width:0.8378;stroke-miterlimit:10;" x1="0" y1="444.898" x2="500" y2="444.898"/>
			<line style="fill:none;stroke:#24004661;stroke-width:0.8378;stroke-miterlimit:10;" x1="0" y1="450.036" x2="500" y2="450.036"/>
			<line style="fill:none;stroke:#24004661;stroke-width:0.8378;stroke-miterlimit:10;" x1="0" y1="455.175" x2="500" y2="455.175"/>
			<line style="fill:none;stroke:#24004661;stroke-width:0.8378;stroke-miterlimit:10;" x1="0" y1="460.313" x2="500" y2="460.313"/>
			<line style="fill:none;stroke:#24004661;stroke-width:0.8378;stroke-miterlimit:10;" x1="0" y1="465.452" x2="500" y2="465.452"/>
			<line style="fill:none;stroke:#24004661;stroke-width:0.8378;stroke-miterlimit:10;" x1="0" y1="470.59" x2="500" y2="470.59"/>
			<line style="fill:none;stroke:#24004661;stroke-width:0.8378;stroke-miterlimit:10;" x1="0" y1="475.728" x2="500" y2="475.728"/>
			<line style="fill:none;stroke:#24004661;stroke-width:0.8378;stroke-miterlimit:10;" x1="0" y1="480.867" x2="500" y2="480.867"/>
			<line style="fill:none;stroke:#24004661;stroke-width:0.8378;stroke-miterlimit:10;" x1="0" y1="486.005" x2="500" y2="486.005"/>
			<line style="fill:none;stroke:#24004661;stroke-width:0.8378;stroke-miterlimit:10;" x1="0" y1="491.144" x2="500" y2="491.144"/>
			<line style="fill:none;stroke:#24004661;stroke-width:0.8378;stroke-miterlimit:10;" x1="0" y1="496.282" x2="500" y2="496.282"/>
		</g>
		
			<radialGradient id="SVGID_00000179610179833635714570000004398641919706125998_" cx="250" cy="250" r="333.365" gradientUnits="userSpaceOnUse">
			<stop  offset="0" style="stop-color:#003EFF"/>
			<stop  offset="0.9991" style="stop-color:#000000"/>
		</radialGradient>
		
			<rect style="clip-path:url(#SVGID_00000007399094229635702640000001805167136493449403_);fill:url(#SVGID_00000179610179833635714570000004398641919706125998_);" width="500" height="500"/>
	</g>
</g>
<g id="OBJECTS">
	<g>
		<g>
			<g>
				<path style="fill:#24004661;" d="M201.956,137.04h-11.794v7.985h13.841v4.935H184.02v-29.812h19.942v4.976h-13.8v7.105h11.794
					V137.04z"/>
				<path style="fill:#24004661;" d="M218.643,139.047h-4.893v10.913h-6.143v-29.812h11.077c3.521,0,6.238,0.785,8.149,2.355
					c1.911,1.57,2.866,3.788,2.866,6.654c0,2.034-0.44,3.73-1.32,5.088c-0.88,1.358-2.215,2.44-4.003,3.245l6.45,12.183v0.287
					h-6.593L218.643,139.047z M213.75,134.071h4.955c1.542,0,2.736-0.392,3.583-1.177c0.846-0.785,1.27-1.866,1.27-3.245
					c0-1.406-0.399-2.511-1.198-3.317c-0.798-0.805-2.023-1.208-3.675-1.208h-4.934V134.071z"/>
				<path style="fill:#24004661;" d="M245.404,139.047h-4.894v10.913h-6.143v-29.812h11.077c3.521,0,6.238,0.785,8.148,2.355
					c1.912,1.57,2.867,3.788,2.867,6.654c0,2.034-0.441,3.73-1.32,5.088c-0.881,1.358-2.215,2.44-4.004,3.245l6.449,12.183v0.287
					h-6.592L245.404,139.047z M240.51,134.071h4.955c1.542,0,2.736-0.392,3.583-1.177c0.846-0.785,1.27-1.866,1.27-3.245
					c0-1.406-0.4-2.511-1.198-3.317c-0.798-0.805-2.023-1.208-3.675-1.208h-4.935V134.071z"/>
				<path style="fill:#24004661;" d="M285.616,135.73c0,2.935-0.519,5.508-1.556,7.719c-1.038,2.211-2.523,3.917-4.453,5.119
					c-1.932,1.201-4.146,1.802-6.645,1.802c-2.471,0-4.675-0.594-6.613-1.781c-1.939-1.188-3.44-2.884-4.505-5.088
					c-1.064-2.204-1.603-4.74-1.617-7.606v-1.474c0-2.935,0.529-5.518,1.587-7.75c1.058-2.232,2.553-3.945,4.484-5.139
					c1.931-1.194,4.139-1.792,6.623-1.792c2.484,0,4.692,0.597,6.624,1.792c1.931,1.194,3.426,2.907,4.483,5.139
					c1.058,2.232,1.587,4.808,1.587,7.729V135.73z M279.391,134.378c0-3.126-0.56-5.501-1.679-7.125
					c-1.119-1.624-2.716-2.437-4.791-2.437c-2.061,0-3.651,0.802-4.771,2.406c-1.119,1.604-1.685,3.955-1.699,7.054v1.454
					c0,3.044,0.56,5.405,1.679,7.084c1.119,1.679,2.73,2.518,4.832,2.518c2.061,0,3.645-0.809,4.75-2.426
					c1.105-1.617,1.665-3.975,1.679-7.074V134.378z"/>
				<path style="fill:#24004661;" d="M301.115,139.047h-4.894v10.913h-6.142v-29.812h11.076c3.521,0,6.238,0.785,8.149,2.355
					c1.911,1.57,2.866,3.788,2.866,6.654c0,2.034-0.44,3.73-1.32,5.088c-0.881,1.358-2.215,2.44-4.003,3.245l6.449,12.183v0.287
					h-6.593L301.115,139.047z M296.221,134.071h4.955c1.543,0,2.737-0.392,3.583-1.177c0.847-0.785,1.27-1.866,1.27-3.245
					c0-1.406-0.4-2.511-1.197-3.317c-0.799-0.805-2.024-1.208-3.676-1.208h-4.935V134.071z"/>
			</g>
			<g>
				<path style="fill:#FF00FF;" d="M204.638,133.877h-11.793v7.985h13.841v4.935h-19.983v-29.812h19.942v4.976h-13.8v7.105h11.793
					V133.877z"/>
				<path style="fill:#FF00FF;" d="M221.325,135.884h-4.893v10.913h-6.143v-29.812h11.077c3.521,0,6.238,0.785,8.149,2.355
					c1.911,1.57,2.866,3.788,2.866,6.654c0,2.034-0.44,3.73-1.32,5.088c-0.88,1.358-2.215,2.44-4.003,3.245l6.45,12.183v0.287
					h-6.593L221.325,135.884z M216.432,130.908h4.955c1.542,0,2.736-0.392,3.583-1.177c0.846-0.785,1.269-1.866,1.269-3.245
					c0-1.406-0.399-2.511-1.198-3.317c-0.798-0.805-2.023-1.208-3.675-1.208h-4.935V130.908z"/>
				<path style="fill:#FF00FF;" d="M248.086,135.884h-4.894v10.913h-6.143v-29.812h11.077c3.521,0,6.238,0.785,8.148,2.355
					c1.912,1.57,2.867,3.788,2.867,6.654c0,2.034-0.441,3.73-1.32,5.088c-0.881,1.358-2.215,2.44-4.004,3.245l6.449,12.183v0.287
					h-6.592L248.086,135.884z M243.193,130.908h4.955c1.542,0,2.736-0.392,3.583-1.177c0.846-0.785,1.27-1.866,1.27-3.245
					c0-1.406-0.4-2.511-1.198-3.317c-0.798-0.805-2.023-1.208-3.675-1.208h-4.935V130.908z"/>
				<path style="fill:#FF00FF;" d="M288.298,132.567c0,2.935-0.519,5.508-1.556,7.719c-1.038,2.211-2.522,3.917-4.453,5.119
					c-1.932,1.201-4.147,1.802-6.645,1.802c-2.471,0-4.675-0.594-6.613-1.781c-1.939-1.188-3.439-2.884-4.505-5.088
					c-1.064-2.204-1.603-4.74-1.617-7.606v-1.474c0-2.935,0.529-5.518,1.587-7.749c1.058-2.232,2.553-3.945,4.484-5.139
					c1.931-1.194,4.139-1.792,6.623-1.792c2.484,0,4.692,0.597,6.624,1.792c1.931,1.194,3.426,2.907,4.483,5.139
					c1.058,2.232,1.587,4.808,1.587,7.729V132.567z M282.073,131.215c0-3.125-0.56-5.5-1.679-7.125
					c-1.119-1.624-2.716-2.437-4.791-2.437c-2.062,0-3.651,0.802-4.771,2.406c-1.119,1.604-1.686,3.955-1.699,7.054v1.454
					c0,3.044,0.56,5.405,1.679,7.085c1.119,1.679,2.73,2.518,4.832,2.518c2.06,0,3.645-0.809,4.75-2.426
					c1.105-1.617,1.665-3.975,1.679-7.074V131.215z"/>
				<path style="fill:#FF00FF;" d="M303.797,135.884h-4.893v10.913h-6.142v-29.812h11.076c3.521,0,6.238,0.785,8.149,2.355
					c1.911,1.57,2.866,3.788,2.866,6.654c0,2.034-0.44,3.73-1.32,5.088c-0.881,1.358-2.215,2.44-4.003,3.245l6.449,12.183v0.287
					h-6.593L303.797,135.884z M298.904,130.908h4.955c1.543,0,2.737-0.392,3.583-1.177c0.847-0.785,1.27-1.866,1.27-3.245
					c0-1.406-0.399-2.511-1.197-3.317c-0.799-0.805-2.024-1.208-3.676-1.208h-4.935V130.908z"/>
			</g>
			<g>
				<path style="fill:#FFFFFF;" d="M203.321,134.898h-11.793v7.985h13.841v4.935h-19.983v-29.812h19.942v4.976h-13.8v7.105h11.793
					V134.898z"/>
				<path style="fill:#FFFFFF;" d="M220.008,136.904h-4.894v10.913h-6.143v-29.812h11.077c3.521,0,6.238,0.785,8.149,2.355
					c1.911,1.57,2.866,3.788,2.866,6.654c0,2.034-0.44,3.73-1.32,5.088c-0.88,1.358-2.215,2.44-4.003,3.245l6.45,12.183v0.287
					h-6.593L220.008,136.904z M215.115,131.928h4.955c1.542,0,2.736-0.392,3.583-1.177c0.846-0.785,1.269-1.866,1.269-3.245
					c0-1.406-0.399-2.511-1.198-3.317c-0.798-0.805-2.023-1.208-3.675-1.208h-4.935V131.928z"/>
				<path style="fill:#FFFFFF;" d="M246.769,136.904h-4.894v10.913h-6.143v-29.812h11.077c3.521,0,6.238,0.785,8.148,2.355
					c1.912,1.57,2.867,3.788,2.867,6.654c0,2.034-0.441,3.73-1.32,5.088c-0.881,1.358-2.215,2.44-4.004,3.245l6.449,12.183v0.287
					h-6.592L246.769,136.904z M241.875,131.928h4.955c1.542,0,2.736-0.392,3.583-1.177c0.846-0.785,1.27-1.866,1.27-3.245
					c0-1.406-0.4-2.511-1.198-3.317c-0.798-0.805-2.023-1.208-3.675-1.208h-4.935V131.928z"/>
				<path style="fill:#FFFFFF;" d="M286.981,133.587c0,2.935-0.518,5.508-1.556,7.719c-1.038,2.211-2.522,3.917-4.453,5.119
					c-1.932,1.201-4.147,1.802-6.645,1.802c-2.471,0-4.675-0.594-6.613-1.781c-1.939-1.188-3.439-2.884-4.505-5.088
					c-1.064-2.204-1.603-4.74-1.617-7.606v-1.474c0-2.934,0.529-5.517,1.587-7.749c1.058-2.232,2.553-3.945,4.484-5.139
					c1.931-1.194,4.139-1.792,6.623-1.792c2.484,0,4.692,0.597,6.624,1.792c1.931,1.194,3.426,2.907,4.483,5.139
					c1.058,2.232,1.587,4.808,1.587,7.729V133.587z M280.756,132.235c0-3.126-0.56-5.5-1.679-7.125
					c-1.119-1.624-2.716-2.437-4.791-2.437c-2.061,0-3.651,0.802-4.771,2.406c-1.119,1.604-1.686,3.955-1.699,7.054v1.454
					c0,3.044,0.56,5.405,1.679,7.084c1.119,1.679,2.729,2.518,4.832,2.518c2.06,0,3.645-0.809,4.75-2.426
					c1.105-1.617,1.665-3.975,1.679-7.074V132.235z"/>
				<path style="fill:#FFFFFF;" d="M302.48,136.904h-4.893v10.913h-6.142v-29.812h11.076c3.521,0,6.238,0.785,8.149,2.355
					c1.911,1.57,2.866,3.788,2.866,6.654c0,2.034-0.44,3.73-1.32,5.088c-0.881,1.358-2.215,2.44-4.003,3.245l6.449,12.183v0.287
					h-6.593L302.48,136.904z M297.586,131.928h4.955c1.543,0,2.737-0.392,3.583-1.177c0.847-0.785,1.27-1.866,1.27-3.245
					c0-1.406-0.399-2.511-1.197-3.317c-0.799-0.805-2.024-1.208-3.676-1.208h-4.935V131.928z"/>
			</g>
		</g>
		<g>
			<g>
				<path style="fill:#24004661;" d="M157.457,371.316v5.928h-3.467v-16.825h6.564c1.264,0,2.375,0.23,3.334,0.693
					c0.959,0.462,1.697,1.119,2.213,1.97c0.516,0.852,0.774,1.82,0.774,2.906c0,1.649-0.564,2.949-1.693,3.9
					c-1.129,0.952-2.691,1.428-4.686,1.428H157.457z M157.457,368.508h3.097c0.917,0,1.616-0.216,2.098-0.647
					c0.481-0.431,0.722-1.047,0.722-1.849c0-0.824-0.243-1.49-0.728-1.999c-0.485-0.509-1.156-0.771-2.011-0.786h-3.178V368.508z"/>
				<path style="fill:#24004661;" d="M176.698,373.777h-6.079l-1.156,3.467h-3.686l6.263-16.825h3.212l6.298,16.825h-3.686
					L176.698,373.777z M171.555,370.97h4.207l-2.115-6.299L171.555,370.97z"/>
				<path style="fill:#24004661;" d="M196.192,375.118c-0.624,0.747-1.506,1.327-2.646,1.739c-1.14,0.412-2.404,0.618-3.791,0.618
					c-1.456,0-2.733-0.318-3.831-0.954c-1.098-0.635-1.945-1.558-2.542-2.768c-0.597-1.209-0.903-2.631-0.919-4.264v-1.145
					c0-1.679,0.283-3.133,0.849-4.362c0.566-1.228,1.383-2.168,2.45-2.819c1.067-0.651,2.317-0.977,3.75-0.977
					c1.995,0,3.555,0.476,4.68,1.428c1.125,0.951,1.791,2.336,1.999,4.154h-3.374c-0.154-0.963-0.495-1.668-1.023-2.115
					c-0.528-0.446-1.253-0.67-2.178-0.67c-1.179,0-2.076,0.442-2.692,1.329c-0.617,0.886-0.929,2.203-0.936,3.952v1.074
					c0,1.765,0.335,3.097,1.005,3.998c0.67,0.901,1.652,1.353,2.947,1.353c1.302,0,2.231-0.277,2.785-0.832v-2.9h-3.155v-2.554
					h6.621V375.118z"/>
				<path style="fill:#24004661;" d="M209.124,369.952h-6.656v4.507h7.812v2.785h-11.278v-16.825h11.255v2.808h-7.789v4.01h6.656
					V369.952z"/>
				<path style="fill:#24004661;" d="M231.889,377.244h-3.467l-6.748-11.07v11.07h-3.467v-16.825h3.467l6.76,11.094v-11.094h3.455
					V377.244z"/>
				<path style="fill:#24004661;" d="M248.737,369.213c0,1.656-0.293,3.108-0.879,4.357c-0.585,1.248-1.423,2.211-2.513,2.889
					c-1.09,0.679-2.34,1.018-3.75,1.018c-1.395,0-2.639-0.335-3.732-1.006c-1.094-0.67-1.941-1.627-2.542-2.871
					c-0.601-1.244-0.905-2.676-0.913-4.293v-0.832c0-1.656,0.299-3.115,0.896-4.374c0.597-1.26,1.441-2.227,2.531-2.9
					c1.09-0.675,2.336-1.012,3.739-1.012c1.402,0,2.648,0.337,3.738,1.012c1.09,0.674,1.934,1.641,2.531,2.9
					c0.597,1.259,0.896,2.714,0.896,4.362V369.213z M245.224,368.45c0-1.765-0.316-3.104-0.947-4.021
					c-0.632-0.917-1.533-1.375-2.704-1.375c-1.164,0-2.061,0.452-2.693,1.357c-0.632,0.905-0.952,2.232-0.959,3.981v0.82
					c0,1.718,0.316,3.051,0.948,3.998c0.631,0.948,1.54,1.422,2.727,1.422c1.163,0,2.057-0.457,2.681-1.37
					c0.624-0.912,0.939-2.243,0.947-3.992V368.45z"/>
				<path style="fill:#24004661;" d="M262.939,363.227h-5.154v14.018h-3.467v-14.018h-5.085v-2.808h13.706V363.227z"/>
				<path style="fill:#24004661;" d="M280.238,370.368h-6.656v6.876h-3.467v-16.825h10.955v2.808h-7.488v4.346h6.656V370.368z"/>
				<path style="fill:#24004661;" d="M296.902,369.213c0,1.656-0.293,3.108-0.878,4.357c-0.586,1.248-1.424,2.211-2.514,2.889
					c-1.091,0.679-2.34,1.018-3.75,1.018c-1.395,0-2.639-0.335-3.732-1.006c-1.094-0.67-1.941-1.627-2.543-2.871
					c-0.601-1.244-0.905-2.676-0.912-4.293v-0.832c0-1.656,0.298-3.115,0.895-4.374c0.597-1.26,1.44-2.227,2.53-2.9
					c1.09-0.675,2.336-1.012,3.738-1.012c1.402,0,2.648,0.337,3.738,1.012c1.091,0.674,1.934,1.641,2.531,2.9
					c0.597,1.259,0.896,2.714,0.896,4.362V369.213z M293.39,368.45c0-1.765-0.316-3.104-0.948-4.021
					c-0.632-0.917-1.533-1.375-2.704-1.375c-1.163,0-2.061,0.452-2.692,1.357c-0.632,0.905-0.951,2.232-0.959,3.981v0.82
					c0,1.718,0.315,3.051,0.947,3.998c0.632,0.948,1.541,1.422,2.728,1.422c1.163,0,2.057-0.457,2.681-1.37
					c0.624-0.912,0.94-2.243,0.948-3.992V368.45z"/>
				<path style="fill:#24004661;" d="M312.156,360.419v11.082c0,1.841-0.576,3.297-1.727,4.368c-1.152,1.07-2.726,1.606-4.721,1.606
					c-1.965,0-3.525-0.52-4.681-1.56c-1.155-1.04-1.745-2.469-1.768-4.287v-11.209h3.467v11.105c0,1.102,0.264,1.904,0.791,2.409
					c0.527,0.505,1.258,0.757,2.191,0.757c1.948,0,2.938-1.024,2.97-3.074v-11.197H312.156z"/>
				<path style="fill:#24004661;" d="M328.681,377.244h-3.467l-6.749-11.07v11.07h-3.467v-16.825h3.467l6.761,11.094v-11.094h3.455
					V377.244z"/>
				<path style="fill:#24004661;" d="M331.708,377.244v-16.825h5.178c1.478,0,2.802,0.333,3.969,0.999
					c1.168,0.667,2.078,1.614,2.733,2.843c0.654,1.229,0.982,2.626,0.982,4.189v0.774c0,1.563-0.322,2.954-0.965,4.172
					c-0.643,1.217-1.551,2.16-2.722,2.831c-1.171,0.67-2.492,1.009-3.964,1.017H331.708z M335.175,363.227v11.232h1.676
					c1.355,0,2.393-0.442,3.108-1.329c0.717-0.886,1.083-2.153,1.098-3.802v-0.89c0-1.71-0.355-3.006-1.063-3.889
					c-0.709-0.882-1.745-1.323-3.108-1.323H335.175z"/>
			</g>
			<g>
				<path style="fill:#FF00FF;" d="M158.896,368.872v5.928h-3.467v-16.825h6.564c1.264,0,2.375,0.23,3.334,0.693
					c0.959,0.462,1.697,1.119,2.213,1.97c0.516,0.852,0.774,1.82,0.774,2.906c0,1.649-0.564,2.949-1.693,3.9
					c-1.129,0.952-2.691,1.428-4.686,1.428H158.896z M158.896,366.063h3.097c0.917,0,1.616-0.216,2.098-0.647
					c0.481-0.431,0.722-1.047,0.722-1.849c0-0.824-0.243-1.49-0.728-1.999c-0.485-0.509-1.156-0.771-2.011-0.786h-3.178V366.063z"/>
				<path style="fill:#FF00FF;" d="M178.137,371.333h-6.079l-1.156,3.467h-3.686l6.263-16.825h3.212l6.298,16.825h-3.686
					L178.137,371.333z M172.995,368.525h4.206l-2.115-6.299L172.995,368.525z"/>
				<path style="fill:#FF00FF;" d="M197.631,372.674c-0.624,0.747-1.506,1.327-2.646,1.739c-1.14,0.412-2.404,0.618-3.79,0.618
					c-1.456,0-2.733-0.318-3.831-0.954c-1.098-0.635-1.945-1.558-2.542-2.768c-0.597-1.209-0.903-2.631-0.918-4.264v-1.144
					c0-1.679,0.283-3.133,0.849-4.362c0.566-1.229,1.383-2.168,2.45-2.819c1.067-0.651,2.317-0.977,3.75-0.977
					c1.995,0,3.555,0.476,4.68,1.428c1.125,0.951,1.791,2.336,1.999,4.154h-3.374c-0.154-0.963-0.495-1.668-1.023-2.115
					c-0.528-0.446-1.253-0.67-2.178-0.67c-1.179,0-2.076,0.442-2.692,1.329c-0.617,0.886-0.929,2.203-0.936,3.952v1.074
					c0,1.765,0.335,3.097,1.005,3.998c0.671,0.901,1.652,1.353,2.947,1.353c1.302,0,2.23-0.277,2.785-0.832v-2.9h-3.155v-2.554
					h6.621V372.674z"/>
				<path style="fill:#FF00FF;" d="M210.563,367.508h-6.656v4.507h7.812v2.785H200.44v-16.825h11.255v2.808h-7.788v4.01h6.656
					V367.508z"/>
				<path style="fill:#FF00FF;" d="M233.328,374.8h-3.467l-6.749-11.07v11.07h-3.467v-16.825h3.467l6.76,11.094v-11.094h3.455V374.8
					z"/>
				<path style="fill:#FF00FF;" d="M250.177,366.768c0,1.656-0.293,3.108-0.878,4.356c-0.585,1.248-1.423,2.211-2.513,2.889
					c-1.09,0.679-2.34,1.018-3.75,1.018c-1.395,0-2.639-0.335-3.732-1.006c-1.094-0.67-1.941-1.627-2.542-2.871
					c-0.601-1.244-0.905-2.676-0.913-4.293v-0.832c0-1.656,0.299-3.115,0.896-4.374c0.597-1.26,1.441-2.227,2.531-2.9
					c1.09-0.675,2.336-1.012,3.739-1.012c1.402,0,2.648,0.337,3.738,1.012c1.09,0.674,1.934,1.641,2.531,2.9
					c0.597,1.259,0.896,2.714,0.896,4.362V366.768z M246.663,366.006c0-1.765-0.316-3.104-0.947-4.022
					c-0.632-0.917-1.533-1.375-2.704-1.375c-1.164,0-2.061,0.452-2.693,1.357c-0.632,0.905-0.952,2.232-0.959,3.981v0.82
					c0,1.718,0.316,3.051,0.948,3.998c0.631,0.948,1.541,1.422,2.727,1.422c1.163,0,2.057-0.457,2.681-1.37
					c0.624-0.912,0.94-2.243,0.947-3.992V366.006z"/>
				<path style="fill:#FF00FF;" d="M264.379,360.782h-5.154V374.8h-3.467v-14.017h-5.084v-2.808h13.705V360.782z"/>
				<path style="fill:#FF00FF;" d="M281.678,367.924h-6.656v6.876h-3.467v-16.825h10.955v2.808h-7.488v4.346h6.656V367.924z"/>
				<path style="fill:#FF00FF;" d="M298.342,366.768c0,1.656-0.293,3.108-0.878,4.356c-0.586,1.248-1.424,2.211-2.514,2.889
					c-1.091,0.679-2.34,1.018-3.75,1.018c-1.395,0-2.639-0.335-3.732-1.006c-1.094-0.67-1.941-1.627-2.543-2.871
					c-0.6-1.244-0.905-2.676-0.912-4.293v-0.832c0-1.656,0.298-3.115,0.895-4.374c0.597-1.26,1.441-2.227,2.53-2.9
					c1.09-0.675,2.336-1.012,3.738-1.012s2.648,0.337,3.738,1.012c1.091,0.674,1.934,1.641,2.531,2.9
					c0.597,1.259,0.896,2.714,0.896,4.362V366.768z M294.829,366.006c0-1.765-0.316-3.104-0.948-4.022
					c-0.632-0.917-1.533-1.375-2.704-1.375c-1.163,0-2.061,0.452-2.692,1.357c-0.632,0.905-0.951,2.232-0.959,3.981v0.82
					c0,1.718,0.315,3.051,0.947,3.998c0.632,0.948,1.541,1.422,2.728,1.422c1.163,0,2.057-0.457,2.681-1.37
					c0.624-0.912,0.94-2.243,0.948-3.992V366.006z"/>
				<path style="fill:#FF00FF;" d="M313.596,357.974v11.082c0,1.841-0.576,3.297-1.727,4.368c-1.152,1.07-2.726,1.607-4.721,1.607
					c-1.965,0-3.525-0.521-4.681-1.561c-1.155-1.04-1.745-2.469-1.768-4.287v-11.209h3.467v11.105c0,1.102,0.264,1.904,0.791,2.409
					c0.527,0.505,1.258,0.757,2.19,0.757c1.948,0,2.939-1.024,2.97-3.074v-11.197H313.596z"/>
				<path style="fill:#FF00FF;" d="M330.12,374.8h-3.467l-6.749-11.07v11.07h-3.467v-16.825h3.467l6.761,11.094v-11.094h3.455V374.8
					z"/>
				<path style="fill:#FF00FF;" d="M333.147,374.8v-16.825h5.178c1.478,0,2.802,0.333,3.969,0.999
					c1.168,0.667,2.078,1.614,2.733,2.843c0.654,1.229,0.982,2.626,0.982,4.19v0.774c0,1.564-0.322,2.954-0.965,4.172
					c-0.644,1.217-1.551,2.16-2.722,2.831c-1.171,0.67-2.492,1.009-3.964,1.017H333.147z M336.614,360.782v11.232h1.676
					c1.355,0,2.393-0.442,3.108-1.329c0.717-0.886,1.083-2.153,1.098-3.802v-0.89c0-1.71-0.355-3.006-1.063-3.889
					c-0.709-0.882-1.745-1.323-3.108-1.323H336.614z"/>
			</g>
			<g>
				<path style="fill:#FFFFFF;" d="M157.762,369.85v5.928h-3.467v-16.825h6.564c1.264,0,2.375,0.23,3.334,0.693
					c0.959,0.462,1.697,1.119,2.213,1.97c0.516,0.852,0.774,1.82,0.774,2.906c0,1.65-0.564,2.949-1.693,3.9
					c-1.129,0.952-2.691,1.428-4.686,1.428H157.762z M157.762,367.041h3.097c0.917,0,1.616-0.216,2.098-0.647
					c0.482-0.431,0.722-1.047,0.722-1.849c0-0.824-0.243-1.49-0.728-1.999c-0.485-0.509-1.156-0.771-2.011-0.786h-3.178V367.041z"/>
				<path style="fill:#FFFFFF;" d="M177.003,372.311h-6.079l-1.156,3.467h-3.686l6.263-16.825h3.212l6.298,16.825h-3.686
					L177.003,372.311z M171.86,369.503h4.207l-2.115-6.299L171.86,369.503z"/>
				<path style="fill:#FFFFFF;" d="M196.497,373.651c-0.624,0.747-1.506,1.327-2.646,1.739c-1.14,0.412-2.404,0.618-3.79,0.618
					c-1.456,0-2.733-0.318-3.831-0.954c-1.098-0.635-1.945-1.558-2.542-2.768c-0.597-1.209-0.903-2.631-0.919-4.264v-1.145
					c0-1.679,0.283-3.133,0.849-4.362c0.566-1.229,1.383-2.168,2.45-2.819c1.067-0.651,2.317-0.977,3.75-0.977
					c1.995,0,3.555,0.476,4.68,1.428c1.125,0.951,1.791,2.336,1.999,4.154h-3.374c-0.154-0.963-0.495-1.668-1.023-2.115
					c-0.528-0.446-1.253-0.67-2.178-0.67c-1.179,0-2.076,0.442-2.692,1.329c-0.617,0.886-0.929,2.203-0.936,3.952v1.074
					c0,1.765,0.335,3.097,1.005,3.998c0.67,0.901,1.652,1.352,2.947,1.352c1.302,0,2.23-0.277,2.785-0.832v-2.9h-3.155v-2.554h6.621
					V373.651z"/>
				<path style="fill:#FFFFFF;" d="M209.429,368.486h-6.656v4.507h7.812v2.785h-11.278v-16.825h11.255v2.808h-7.789v4.01h6.656
					V368.486z"/>
				<path style="fill:#FFFFFF;" d="M232.194,375.777h-3.467l-6.749-11.07v11.07h-3.467v-16.825h3.467l6.76,11.094v-11.094h3.455
					V375.777z"/>
				<path style="fill:#FFFFFF;" d="M249.042,367.746c0,1.656-0.293,3.108-0.878,4.356c-0.585,1.248-1.423,2.211-2.513,2.889
					c-1.09,0.679-2.34,1.018-3.75,1.018c-1.395,0-2.639-0.335-3.732-1.006c-1.094-0.67-1.941-1.627-2.542-2.871
					c-0.601-1.244-0.905-2.676-0.913-4.293v-0.832c0-1.656,0.299-3.115,0.896-4.374c0.597-1.26,1.441-2.227,2.531-2.9
					c1.09-0.675,2.337-1.012,3.739-1.012c1.402,0,2.648,0.337,3.738,1.012c1.09,0.674,1.934,1.641,2.531,2.9
					c0.597,1.259,0.896,2.714,0.896,4.362V367.746z M245.529,366.984c0-1.765-0.316-3.105-0.947-4.022
					c-0.632-0.917-1.533-1.375-2.704-1.375c-1.164,0-2.061,0.452-2.693,1.357c-0.632,0.905-0.952,2.232-0.959,3.981v0.82
					c0,1.718,0.316,3.051,0.948,3.998c0.631,0.948,1.54,1.422,2.727,1.422c1.163,0,2.057-0.457,2.681-1.37
					c0.624-0.912,0.939-2.243,0.947-3.992V366.984z"/>
				<path style="fill:#FFFFFF;" d="M263.245,361.76h-5.154v14.018h-3.467V361.76h-5.084v-2.808h13.706V361.76z"/>
				<path style="fill:#FFFFFF;" d="M280.543,368.901h-6.656v6.876h-3.467v-16.825h10.955v2.808h-7.488v4.346h6.656V368.901z"/>
				<path style="fill:#FFFFFF;" d="M297.207,367.746c0,1.656-0.293,3.108-0.878,4.356c-0.586,1.248-1.424,2.211-2.514,2.889
					c-1.091,0.679-2.34,1.018-3.75,1.018c-1.395,0-2.639-0.335-3.732-1.006c-1.094-0.67-1.941-1.627-2.543-2.871
					c-0.601-1.244-0.905-2.676-0.912-4.293v-0.832c0-1.656,0.298-3.115,0.896-4.374c0.597-1.26,1.44-2.227,2.53-2.9
					c1.09-0.675,2.336-1.012,3.738-1.012c1.402,0,2.648,0.337,3.738,1.012c1.091,0.674,1.934,1.641,2.531,2.9
					c0.597,1.259,0.895,2.714,0.895,4.362V367.746z M293.695,366.984c0-1.765-0.316-3.105-0.948-4.022
					c-0.632-0.917-1.533-1.375-2.704-1.375c-1.163,0-2.061,0.452-2.692,1.357c-0.632,0.905-0.951,2.232-0.959,3.981v0.82
					c0,1.718,0.315,3.051,0.947,3.998c0.632,0.948,1.541,1.422,2.728,1.422c1.163,0,2.057-0.457,2.681-1.37
					c0.624-0.912,0.94-2.243,0.948-3.992V366.984z"/>
				<path style="fill:#FFFFFF;" d="M312.461,358.952v11.082c0,1.841-0.576,3.297-1.728,4.368c-1.152,1.07-2.726,1.607-4.721,1.607
					c-1.965,0-3.525-0.521-4.681-1.561s-1.745-2.469-1.768-4.287v-11.209h3.467v11.105c0,1.102,0.264,1.904,0.791,2.409
					c0.527,0.505,1.258,0.757,2.19,0.757c1.948,0,2.938-1.024,2.97-3.074v-11.197H312.461z"/>
				<path style="fill:#FFFFFF;" d="M328.986,375.777h-3.467l-6.749-11.07v11.07h-3.467v-16.825h3.467l6.761,11.094v-11.094h3.455
					V375.777z"/>
				<path style="fill:#FFFFFF;" d="M332.013,375.777v-16.825h5.178c1.479,0,2.802,0.333,3.969,0.999
					c1.168,0.667,2.078,1.614,2.733,2.843c0.654,1.229,0.982,2.626,0.982,4.19v0.774c0,1.564-0.322,2.954-0.965,4.172
					c-0.643,1.217-1.551,2.16-2.722,2.831c-1.171,0.67-2.492,1.009-3.964,1.017H332.013z M335.48,361.76v11.233h1.676
					c1.355,0,2.393-0.442,3.108-1.329c0.717-0.886,1.083-2.153,1.098-3.802v-0.89c0-1.71-0.354-3.006-1.063-3.889
					c-0.709-0.882-1.745-1.323-3.108-1.323H335.48z"/>
			</g>
		</g>
		<g>
			<path style="fill:none;" d="M242.083,211.255c0.221-0.065,0.436-0.144,0.661-0.198
				C242.519,211.111,242.304,211.19,242.083,211.255z"/>
			<path style="fill:none;" d="M240.416,211.87c0.223-0.1,0.442-0.21,0.67-0.297C240.858,211.66,240.639,211.77,240.416,211.87z"/>
			<path style="fill:none;" d="M243.908,210.846c0.195-0.03,0.384-0.077,0.583-0.1C244.292,210.769,244.103,210.815,243.908,210.846
				z"/>
			<path style="fill:none;" d="M252.057,277.714c-0.022,0.114-0.043,0.231-0.065,0.344
				C252.014,277.945,252.035,277.829,252.057,277.714z"/>
			<path style="fill:none;" d="M252.6,274.551c-0.011,0.076-0.022,0.154-0.033,0.229C252.578,274.705,252.589,274.626,252.6,274.551
				z"/>
			<path style="fill:none;" d="M237.407,213.715c0.209-0.168,0.416-0.339,0.631-0.493
				C237.823,213.376,237.616,213.548,237.407,213.715z"/>
			<path style="fill:none;" d="M238.861,212.691c0.218-0.134,0.433-0.275,0.657-0.396
				C239.294,212.415,239.079,212.557,238.861,212.691z"/>
			<path style="fill:none;" d="M200.634,225.74c-0.211,0.667-0.419,1.338-0.618,2.022
				C200.215,227.078,200.423,226.407,200.634,225.74z"/>
			<path style="fill:none;" d="M203.259,234.753c-0.134,0.623-0.262,1.254-0.388,1.888
				C202.996,236.006,203.124,235.376,203.259,234.753z"/>
			<path style="fill:none;" d="M199.727,228.795c-0.167,0.598-0.331,1.2-0.489,1.81C199.396,229.994,199.56,229.393,199.727,228.795
				z"/>
			<path style="fill:none;" d="M203.951,231.754c-0.146,0.596-0.289,1.197-0.427,1.804
				C203.662,232.951,203.804,232.35,203.951,231.754z"/>
			<path style="fill:none;" d="M202.64,237.818c-0.131,0.699-0.253,1.409-0.374,2.121
				C202.387,239.226,202.51,238.516,202.64,237.818z"/>
			<path style="fill:none;" d="M267.736,307.251c0.189-0.225,0.371-0.462,0.557-0.691
				C268.107,306.79,267.925,307.026,267.736,307.251z"/>
			<path style="fill:none;" d="M201.769,222.369c-0.297,0.818-0.585,1.649-0.862,2.494h0.004
				C201.188,224.019,201.472,223.186,201.769,222.369z"/>
			<path style="fill:none;" d="M250.661,283.522c-0.037,0.126-0.075,0.251-0.112,0.375
				C250.586,283.773,250.624,283.647,250.661,283.522z"/>
			<path style="fill:none;" d="M248.993,320.506c3.553-1.269,6.878-2.99,9.975-5.165
				C255.871,317.516,252.546,319.237,248.993,320.506z"/>
			<path style="fill:none;" d="M251.411,280.713c-0.031,0.128-0.061,0.258-0.092,0.385
				C251.35,280.971,251.38,280.841,251.411,280.713z"/>
			<path style="fill:none;" d="M242.35,322.3c1.531-0.29,3.025-0.652,4.483-1.087C245.375,321.647,243.881,322.01,242.35,322.3z"/>
			<path style="fill:none;" d="M197.092,240.963c-0.17,1.062-0.332,2.136-0.48,3.229
				C196.76,243.099,196.921,242.025,197.092,240.963z"/>
			<polygon style="fill:#FF00FF;" points="93.534,259.703 89.929,264.421 84.753,271.379 84.686,272.385 94.377,259.703 			"/>
			<polygon style="fill:#FF00FF;" points="166.321,269.637 179.371,269.637 175.881,291.548 176.212,291.548 181.388,284.59 
				185.149,260.972 172.099,260.972 173.032,255.133 168.639,255.133 			"/>
			<polygon style="fill:#FF00FF;" points="102.997,239.262 102.154,239.262 86.727,259.451 87.57,259.451 			"/>
			<polygon style="fill:#FF00FF;" points="142.992,196.085 142.985,195.635 148.161,188.676 148.161,188.676 148.161,188.676 
				148.161,188.676 148.161,188.676 179.191,189.131 168.68,254.881 173.073,254.881 177.831,225.116 174.138,225.116 
				174.138,224.863 177.871,224.863 184.969,180.466 153.939,180.011 148.763,186.97 148.77,187.42 109.347,239.01 110.19,239.01 
							"/>
			<polygon style="fill:#FF00FF;" points="120.035,260.789 113.67,269.449 132.388,269.604 133.961,260.905 			"/>
			<polygon style="fill:#FF00FF;" points="374.279,293.254 374.279,293.255 374.279,293.254 			"/>
			<polygon style="fill:#FF00FF;" points="388.482,241.853 385.731,259.06 390.124,259.06 392.875,241.853 			"/>
			<polygon style="fill:#FF00FF;" points="378.041,269.637 391.091,269.637 387.601,291.548 387.932,291.548 393.107,284.59 
				396.869,260.972 383.819,260.972 384.084,259.313 379.691,259.313 			"/>
			<polygon style="fill:#FF00FF;" points="331.746,260.789 325.381,269.449 344.099,269.604 345.672,260.905 			"/>
			<polygon style="fill:#FF00FF;" points="354.696,195.635 359.872,188.676 390.91,189.131 382.522,241.601 386.915,241.601 
				396.689,180.466 365.65,180.011 360.474,186.97 360.481,187.421 296.473,271.379 296.405,272.385 354.703,196.086 			"/>
			<polygon style="fill:#FF00FF;" points="370.034,319.631 370.362,319.631 375.538,312.672 377.543,300.213 373.159,300.213 			"/>
			<path style="fill:#FF00FF;" d="M209.233,207.506c1.462-2.145,3.036-4.138,4.725-5.978c8.785-9.553,20.011-14.326,33.695-14.326
				c0.41,0,0.821,0.004,1.235,0.013c11.559,0.249,20.665,4.126,27.318,11.631c6.645,7.513,10.313,17.754,10.986,30.721
				c0.135,3.175,0.092,6.365-0.111,9.57h4.792l0.66-4.697c0.479-4.545,0.628-9.055,0.437-13.538
				c-0.674-12.967-4.342-23.208-10.986-30.721c-6.653-7.504-15.759-11.381-27.318-11.631c-0.414-0.008-0.825-0.013-1.235-0.013
				c-13.684,0-24.91,4.773-33.695,14.326c-1.229,1.339-2.395,2.76-3.503,4.261c0.033-0.045,0.065-0.093,0.098-0.138l-5.176,6.959
				c-1.497,2.012-2.878,4.18-4.157,6.485l3.554-4.779C210.103,206.256,209.663,206.874,209.233,207.506z"/>
			<path style="fill:#FF00FF;" d="M281.757,243.104l-3.306,23.529c-0.667,4.758-1.539,9.218-2.613,13.384h3.092
				c2.376-6.464,4.144-13.811,5.299-22.049l2.611-18.579h-4.769C281.988,240.625,281.887,241.863,281.757,243.104z"/>
			<path style="fill:#FF00FF;" d="M234.781,216.38c0.185-0.234,0.372-0.466,0.563-0.685
				C235.153,215.915,234.967,216.146,234.781,216.38z"/>
			<path style="fill:#FF00FF;" d="M246.631,292.599c-0.014,0.02-0.028,0.039-0.041,0.059
				C246.603,292.638,246.617,292.619,246.631,292.599z"/>
			<path style="fill:#FF00FF;" d="M247.793,290.664c-0.033,0.061-0.067,0.118-0.101,0.178
				C247.726,290.782,247.76,290.725,247.793,290.664z"/>
			<path style="fill:#FF00FF;" d="M203.123,218.92c0.223-0.534,0.449-1.065,0.681-1.586
				C203.571,217.855,203.346,218.386,203.123,218.92z"/>
			<path style="fill:#FF00FF;" d="M201.991,221.784c0.248-0.666,0.499-1.327,0.76-1.975
				C202.49,220.457,202.239,221.118,201.991,221.784z"/>
			<path style="fill:#FF00FF;" d="M249.808,286.121c-0.041,0.113-0.083,0.224-0.124,0.335
				C249.725,286.345,249.767,286.234,249.808,286.121z"/>
			<path style="fill:#FF00FF;" d="M248.852,288.504c-0.04,0.091-0.082,0.178-0.123,0.268
				C248.77,288.682,248.812,288.595,248.852,288.504z"/>
			<path style="fill:#FF00FF;" d="M205.395,214.011c0.242-0.473,0.489-0.938,0.74-1.398
				C205.884,213.073,205.637,213.538,205.395,214.011z"/>
			<path style="fill:#FF00FF;" d="M204.236,216.391c0.227-0.49,0.458-0.975,0.693-1.453
				C204.693,215.417,204.463,215.902,204.236,216.391z"/>
			<path style="fill:#FF00FF;" d="M235.363,218.774c-1.183,0.514-2.293,1.194-3.326,2.052c-0.599,1.232-1.148,2.58-1.65,4.037h3.584
				C234.364,222.672,234.831,220.649,235.363,218.774z"/>
			<path style="fill:#FF00FF;" d="M207.891,209.576c0.381-0.613,0.771-1.214,1.169-1.805
				C208.662,208.362,208.271,208.963,207.891,209.576z"/>
			<path style="fill:#FF00FF;" d="M236.048,214.945c0.198-0.201,0.395-0.403,0.599-0.589
				C236.443,214.542,236.246,214.744,236.048,214.945z"/>
			<path style="fill:#FF00FF;" d="M206.612,211.743c0.273-0.484,0.554-0.957,0.837-1.428
				C207.166,210.785,206.885,211.259,206.612,211.743z"/>
			<path style="fill:#FF00FF;" d="M238.927,225.116H235.3c-1.254,3.712-2.208,8.113-2.839,13.256l-2.196,16.509h4.625l3.349-25.174
				C238.436,228.102,238.669,226.58,238.927,225.116z"/>
			<path style="fill:#FF00FF;" d="M239.77,291.064c-0.292,0-0.589-0.007-0.887-0.022c-7.301-0.419-10.886-6.239-10.746-17.442
				c-0.036-2.424,0.214-6.15,0.749-11.176l0.97-7.291h-4.625l-2.123,15.956c-0.535,5.027-0.784,8.752-0.749,11.176
				c-0.14,11.203,3.445,17.023,10.746,17.442c0.298,0.015,0.595,0.022,0.887,0.022c3.564,0,6.638-1.122,9.246-3.312
				c0.929-1.919,1.74-4.109,2.434-6.567C243.878,290.65,241.914,291.064,239.77,291.064z"/>
			<path style="fill:#FF00FF;" d="M273.724,298.465l1.688-2.27c-0.066,0.09-0.138,0.171-0.205,0.26
				c3.444-4.568,6.317-9.967,8.626-16.186h-3.064C278.978,287.145,276.628,293.209,273.724,298.465z"/>
			<polygon style="fill:#24004661;" points="148.161,188.676 148.161,188.676 148.161,188.676 			"/>
			<polygon style="fill:#24004661;" points="142.985,195.635 142.992,196.085 148.17,189.309 148.161,188.676 			"/>
			<polygon style="fill:#24004661;" points="138.53,235.627 133.961,260.905 137.873,260.937 143.726,228.559 			"/>
			<polygon style="fill:#24004661;" points="132.388,269.604 136.3,269.637 137.873,260.937 133.961,260.905 			"/>
			<polygon style="fill:#24004661;" points="354.703,196.086 359.881,189.309 359.872,188.676 354.696,195.635 			"/>
			<polygon style="fill:#24004661;" points="345.96,259.313 345.672,260.905 349.584,260.937 349.877,259.313 			"/>
			<polygon style="fill:#24004661;" points="355.116,241.853 352.005,259.06 355.923,259.06 359.033,241.853 			"/>
			<polygon style="fill:#24004661;" points="355.436,228.559 350.241,235.628 349.161,241.601 353.079,241.601 			"/>
			<polygon style="fill:#24004661;" points="344.099,269.604 348.011,269.637 349.584,260.937 345.672,260.905 			"/>
			<polygon style="fill:#24004661;" points="377.543,300.213 382.154,300.213 387.329,293.254 387.329,293.254 378.663,293.254 			"/>
			<polygon style="fill:#24004661;" points="374.279,293.254 374.279,293.255 373.159,300.213 377.543,300.213 378.663,293.254 			"/>
			<polygon style="fill:#24004661;" points="339.739,321.337 344.25,293.254 294.52,293.254 295.389,280.27 290.68,280.27 
				289.344,300.213 339.074,300.213 334.564,328.296 364.584,328.296 369.76,321.337 369.76,321.337 339.739,321.337 			"/>
			<polygon style="fill:#24004661;" points="295.87,273.086 290.715,280.017 295.406,280.017 			"/>
			<path style="fill:#24004661;" d="M247.605,280.27c-0.488,3.551-1.132,6.745-1.933,9.58c1.189-0.53,2.305-1.225,3.344-2.098
				c0.409-0.845,0.787-1.76,1.151-2.709c0.127-0.381,0.26-0.75,0.381-1.146c0.038-0.124,0.075-0.249,0.112-0.375
				c0.231-0.78,0.451-1.587,0.657-2.424c0.032-0.127,0.062-0.257,0.092-0.385c0.034-0.143,0.063-0.298,0.097-0.443H247.605z"/>
			<path style="fill:#24004661;" d="M252.262,239.389h-4.544c-0.124,2.04-0.313,4.223-0.582,6.583l-4.27,32.254
				c-0.071,0.607-0.146,1.203-0.225,1.791h3.923c0.147-0.644,0.296-1.284,0.429-1.959c0.022-0.113,0.043-0.23,0.065-0.344
				c0.183-0.949,0.354-1.924,0.51-2.934c0.012-0.075,0.022-0.154,0.033-0.229c0.161-1.062,0.309-2.154,0.441-3.283L252.262,239.389z
				"/>
			<path style="fill:#24004661;" d="M257.311,239.014c0.363-3.182,0.594-6.073,0.693-8.673c0.033-0.867,0.052-1.701,0.055-2.503
				c-0.03-2.079-0.182-3.969-0.455-5.671c-0.273-1.702-0.667-3.215-1.183-4.539c-0.344-0.883-0.742-1.682-1.193-2.398
				s-0.957-1.347-1.517-1.895c-1.679-1.644-3.843-2.534-6.493-2.671c-0.301-0.015-0.599-0.023-0.893-0.023
				c-0.627,0-1.238,0.037-1.835,0.105c-0.199,0.023-0.387,0.069-0.583,0.1c-0.392,0.061-0.785,0.12-1.164,0.211
				c-0.225,0.054-0.44,0.133-0.661,0.198c-0.335,0.099-0.672,0.194-0.997,0.318c-0.228,0.087-0.447,0.197-0.67,0.297
				c-0.302,0.135-0.606,0.267-0.898,0.425c-0.224,0.121-0.439,0.262-0.657,0.396c-0.277,0.17-0.555,0.34-0.823,0.532
				c-0.215,0.154-0.422,0.325-0.631,0.493c-0.152,0.122-0.302,0.25-0.451,0.38c-0.587,1.43-1.116,2.996-1.593,4.679
				c1.766-0.768,3.689-1.175,5.787-1.175c0.294,0,0.593,0.008,0.893,0.023c7.067,0.365,10.678,6.087,10.841,17.174
				c-0.007,1.348-0.064,2.809-0.153,4.34h4.564L257.311,239.014z"/>
			<path style="fill:#24004661;" d="M236.956,214.095c-0.102,0.089-0.209,0.168-0.309,0.261c-0.204,0.187-0.401,0.389-0.599,0.589
				c-0.238,0.242-0.474,0.488-0.703,0.75c-0.192,0.219-0.378,0.451-0.563,0.685c-1.007,1.27-1.922,2.753-2.745,4.446
				c1.033-0.858,2.144-1.538,3.326-2.052C235.84,217.091,236.369,215.525,236.956,214.095z"/>
			<path style="fill:#24004661;" d="M249.017,287.752c-1.039,0.873-2.156,1.568-3.344,2.098c-0.694,2.458-1.505,4.647-2.434,6.567
				c1.217-1.022,2.342-2.259,3.351-3.759c0.013-0.02,0.028-0.039,0.041-0.059c0.369-0.552,0.721-1.141,1.062-1.757
				c0.033-0.06,0.068-0.117,0.101-0.178c0.326-0.599,0.637-1.233,0.936-1.892c0.041-0.09,0.082-0.177,0.123-0.268
				c0.29-0.653,0.566-1.337,0.832-2.048c0.042-0.111,0.083-0.222,0.124-0.335c0.126-0.346,0.239-0.719,0.359-1.078
				C249.804,285.992,249.425,286.907,249.017,287.752z"/>
			<path style="fill:#24004661;" d="M202.092,240.963c0.055-0.345,0.117-0.682,0.175-1.024c0.12-0.713,0.243-1.422,0.374-2.121
				c0.074-0.396,0.153-0.785,0.23-1.176c0.126-0.635,0.254-1.266,0.388-1.888c0.086-0.401,0.175-0.798,0.265-1.194
				c0.138-0.607,0.281-1.208,0.427-1.804c0.094-0.385,0.189-0.769,0.287-1.149c0.158-0.611,0.322-1.212,0.489-1.81
				c0.096-0.345,0.19-0.693,0.289-1.033c0.199-0.684,0.407-1.355,0.618-2.022c0.065-0.206,0.124-0.42,0.191-0.624h-2.558
				c-3.205,7.432-5.485,16.106-6.83,26.035l-0.505,3.73h4.234l1.447-10.689C201.76,243.099,201.921,242.025,202.092,240.963z"/>
			<path style="fill:#24004661;" d="M267.736,307.251c-0.578,0.687-1.168,1.356-1.776,2.001c-2.185,2.32-4.516,4.349-6.993,6.089
				c-3.096,2.175-6.421,3.896-9.975,5.165c-0.711,0.254-1.431,0.489-2.159,0.707c-1.458,0.435-2.952,0.797-4.483,1.087
				c-3.062,0.58-6.27,0.87-9.624,0.87c-0.425,0-0.852-0.005-1.281-0.014c-7.548-0.187-14.162-1.952-19.832-5.321
				c-0.71-0.42-1.4-0.865-2.07-1.334c-1.34-0.939-2.601-1.976-3.782-3.111c-1.181-1.135-2.283-2.369-3.305-3.701
				c-1.534-1.998-2.889-4.217-4.066-6.657c-1.177-2.443-2.16-5.012-2.947-7.705c-0.263-0.898-0.503-1.81-0.723-2.735
				c-0.438-1.852-0.79-3.759-1.055-5.722c-0.265-1.963-0.443-3.982-0.534-6.056c-0.061-1.121-0.1-2.244-0.116-3.369
				c-0.033-2.25,0.025-4.507,0.176-6.771c0.075-1.132,0.174-2.265,0.296-3.399l1.644-12.142h-4.233l-2.586,19.1
				c-0.488,4.536-0.601,9.055-0.356,13.538c0.364,8.297,2.119,15.704,5.258,22.219c3.139,6.506,7.544,11.443,13.223,14.803
				c5.671,3.369,12.284,5.133,19.832,5.321c0.43,0.009,0.856,0.014,1.281,0.014c13.417,0,24.495-4.639,33.234-13.917
				c1.289-1.369,2.514-2.833,3.673-4.392l5.176-6.959c-0.066,0.09-0.138,0.171-0.205,0.26c-0.37,0.492-0.752,0.967-1.135,1.44
				C268.107,306.79,267.925,307.026,267.736,307.251z"/>
			<path style="fill:#24004661;" d="M201.769,222.369c0.046-0.127,0.095-0.249,0.141-0.375c1.443-4.195,3.139-8.051,5.089-11.565
				l-1.622,2.18c-2.687,3.613-5.021,7.698-7.006,12.254h2.536C201.184,224.018,201.472,223.187,201.769,222.369z"/>
			<path style="fill:#24004661;" d="M201.991,221.784c0.248-0.666,0.499-1.327,0.76-1.975c0.121-0.3,0.247-0.592,0.371-0.888
				c0.223-0.534,0.449-1.065,0.681-1.586c0.142-0.318,0.287-0.63,0.432-0.943c0.227-0.49,0.458-0.975,0.693-1.453
				c0.154-0.312,0.309-0.621,0.466-0.928c0.242-0.473,0.49-0.938,0.74-1.398c0.158-0.291,0.316-0.583,0.477-0.87
				c0.273-0.484,0.554-0.957,0.837-1.428c0.148-0.246,0.292-0.496,0.442-0.738c0.381-0.613,0.771-1.214,1.169-1.805
				c0.059-0.088,0.115-0.179,0.174-0.266c0.43-0.631,0.87-1.25,1.32-1.855l-3.554,4.779c-1.95,3.514-3.646,7.37-5.089,11.565
				C201.936,221.923,201.965,221.855,201.991,221.784z"/>
			<polygon style="fill:#FFFFFF;" points="166.952,293.254 175.61,293.254 175.881,291.548 167.227,291.548 			"/>
			<polygon style="fill:#FFFFFF;" points="120.243,259.703 119.448,260.784 120.035,260.789 120.834,259.703 			"/>
			<polygon style="fill:#FFFFFF;" points="138.53,235.627 138.55,235.518 143.726,228.559 137.873,260.937 138.167,260.939 
				144.308,226.962 135.453,239.01 136.044,239.01 			"/>
			<polygon style="fill:#FFFFFF;" points="128.268,239.262 102.997,239.262 87.57,259.451 113.429,259.451 			"/>
			<polygon style="fill:#FFFFFF;" points="148.161,188.676 148.161,188.676 148.161,188.676 			"/>
			<polygon style="fill:#FFFFFF;" points="142.995,196.268 148.17,189.309 142.992,196.085 			"/>
			<polygon style="fill:#FFFFFF;" points="148.161,188.676 148.17,189.309 148.161,188.676 148.161,188.676 			"/>
			<polygon style="fill:#FFFFFF;" points="138.55,235.518 138.53,235.627 143.726,228.559 			"/>
			<polygon style="fill:#FFFFFF;" points="131.125,276.595 136.3,269.637 132.388,269.604 			"/>
			<polygon style="fill:#FFFFFF;" points="131.029,321.337 135.539,293.254 131.029,321.337 			"/>
			<polygon style="fill:#FFFFFF;" points="84.15,273.086 84.15,273.086 82.809,293.254 			"/>
			<polygon style="fill:#FFFFFF;" points="350.261,235.518 355.436,228.559 353.079,241.601 353.373,241.601 356.019,226.963 
				331.159,260.784 331.746,260.789 350.241,235.628 			"/>
			<polygon style="fill:#FFFFFF;" points="295.894,280.017 296.405,272.385 295.87,273.086 295.406,280.017 			"/>
			<polygon style="fill:#FFFFFF;" points="349.584,260.937 349.877,260.939 350.171,259.313 349.877,259.313 			"/>
			<polygon style="fill:#FFFFFF;" points="378.663,293.254 387.329,293.254 387.601,291.548 378.938,291.548 			"/>
			<polygon style="fill:#FFFFFF;" points="344.852,291.548 295.122,291.548 295.877,280.27 295.389,280.27 294.52,293.254 
				344.25,293.254 339.739,321.337 369.76,321.337 370.034,319.631 340.342,319.631 			"/>
			<polygon style="fill:#FFFFFF;" points="355.923,259.06 356.217,259.06 359.327,241.853 359.033,241.853 			"/>
			<polygon style="fill:#FFFFFF;" points="356.217,259.06 385.731,259.06 388.482,241.853 359.327,241.853 			"/>
			<polygon style="fill:#FFFFFF;" points="378.041,269.637 379.691,259.313 350.171,259.313 349.877,260.939 349.584,260.937 
				348.011,269.637 342.835,276.595 344.099,269.604 325.381,269.449 331.746,260.789 331.159,260.784 356.019,226.963 
				353.373,241.601 382.522,241.601 390.91,189.131 359.872,188.676 359.881,189.309 354.706,196.268 354.703,196.086 
				296.405,272.385 295.894,280.017 310.343,280.017 310.343,280.27 295.877,280.27 295.122,291.548 344.852,291.548 
				340.342,319.631 370.034,319.631 373.159,300.213 369.104,300.213 374.279,293.255 374.279,293.254 374.279,293.254 
				378.663,293.254 378.938,291.548 387.601,291.548 391.091,269.637 			"/>
			<polygon style="fill:#FFFFFF;" points="354.703,196.086 354.706,196.268 359.881,189.309 359.872,188.676 359.881,189.309 			"/>
			<polygon style="fill:#FFFFFF;" points="350.261,235.518 350.241,235.628 355.436,228.559 			"/>
			<polygon style="fill:#FFFFFF;" points="342.835,276.595 348.011,269.637 344.099,269.604 			"/>
			<polygon style="fill:#FFFFFF;" points="369.104,300.213 373.159,300.213 374.279,293.255 			"/>
			<polygon style="fill:#FFFFFF;" points="339.739,321.337 344.25,293.254 339.739,321.337 			"/>
			<path style="fill:#FFFFFF;" d="M202.215,242.485c0.852-6.294,2.085-12.079,3.685-17.37h-0.072
				c-0.067,0.205-0.128,0.417-0.194,0.624c-0.211,0.667-0.419,1.338-0.618,2.022c-0.099,0.341-0.193,0.689-0.289,1.033
				c-0.167,0.598-0.331,1.2-0.489,1.81c-0.098,0.38-0.193,0.764-0.287,1.149c-0.146,0.596-0.289,1.197-0.427,1.804
				c-0.09,0.396-0.179,0.794-0.265,1.194c-0.134,0.623-0.262,1.254-0.388,1.888c-0.077,0.391-0.156,0.781-0.23,1.176
				c-0.131,0.699-0.253,1.409-0.374,2.121c-0.058,0.342-0.119,0.679-0.175,1.024c-0.171,1.062-0.332,2.136-0.48,3.229l-1.447,10.689
				h0.372L202.215,242.485z"/>
			<path style="fill:#FFFFFF;" d="M200.978,224.863c0.294-0.963,0.602-1.909,0.922-2.839c-0.043,0.116-0.089,0.228-0.131,0.344
				c-0.297,0.817-0.581,1.651-0.858,2.494H200.978z"/>
			<path style="fill:#FFFFFF;" d="M238.038,213.222c0.268-0.192,0.546-0.361,0.823-0.532c0.218-0.134,0.433-0.275,0.657-0.396
				c0.292-0.158,0.596-0.29,0.898-0.425c0.223-0.1,0.442-0.21,0.67-0.297c0.324-0.124,0.662-0.219,0.997-0.318
				c0.221-0.065,0.436-0.144,0.661-0.198c0.379-0.091,0.772-0.15,1.164-0.211c0.195-0.03,0.384-0.077,0.583-0.1
				c0.597-0.068,1.208-0.105,1.835-0.105c0.294,0,0.593,0.008,0.893,0.023c2.65,0.137,4.814,1.027,6.493,2.671
				c0.56,0.548,1.065,1.18,1.517,1.895s0.849,1.515,1.193,2.398c0.516,1.325,0.91,2.838,1.183,4.539s0.425,3.592,0.455,5.671
				c-0.004,0.802-0.022,1.637-0.055,2.503c-0.099,2.6-0.331,5.491-0.693,8.673l-0.016,0.123h0.377l0.242-1.829
				c0.484-4.242,0.733-7.968,0.749-11.176c-0.163-11.087-3.773-16.809-10.841-17.174c-0.301-0.015-0.599-0.023-0.893-0.023
				c-3.504,0-6.537,1.088-9.114,3.227c-0.293,0.603-0.573,1.238-0.843,1.894c0.142-0.122,0.292-0.225,0.436-0.341
				C237.616,213.548,237.823,213.376,238.038,213.222z"/>
			<path style="fill:#FFFFFF;" d="M251.411,280.713c-0.031,0.128-0.061,0.258-0.092,0.385c-0.207,0.837-0.426,1.643-0.657,2.424
				c-0.037,0.126-0.075,0.251-0.112,0.375c-0.085,0.278-0.171,0.554-0.259,0.826c0.514-1.378,0.983-2.86,1.403-4.453h-0.175
				C251.483,280.419,251.446,280.565,251.411,280.713z"/>
			<path style="fill:#FFFFFF;" d="M266.563,307.546c-8.739,9.278-19.818,13.917-33.234,13.917c-0.425,0-0.852-0.005-1.281-0.014
				c-7.548-0.187-14.162-1.952-19.832-5.321c-5.679-3.36-10.084-8.297-13.223-14.803c-3.139-6.515-4.895-13.921-5.258-22.219
				c-0.245-4.483-0.132-9.002,0.356-13.538l1.413-10.435h-0.372l-1.644,12.142c-0.122,1.134-0.221,2.267-0.296,3.399
				c-0.151,2.263-0.209,4.521-0.176,6.771c0.016,1.125,0.055,2.248,0.116,3.369c0.091,2.074,0.269,4.093,0.534,6.056
				c0.265,1.963,0.617,3.87,1.055,5.722c0.219,0.926,0.46,1.837,0.723,2.735c0.788,2.694,1.77,5.262,2.947,7.705
				c1.177,2.44,2.532,4.659,4.066,6.657c1.022,1.332,2.124,2.566,3.305,3.701c1.181,1.135,2.442,2.173,3.782,3.111
				c0.67,0.469,1.36,0.914,2.07,1.334c5.671,3.369,12.284,5.134,19.832,5.321c0.43,0.009,0.856,0.014,1.281,0.014
				c3.354,0,6.562-0.29,9.624-0.87c1.531-0.29,3.025-0.652,4.483-1.087c0.729-0.217,1.449-0.453,2.159-0.707
				c3.553-1.269,6.878-2.99,9.975-5.165c2.477-1.74,4.808-3.769,6.993-6.089c0.607-0.645,1.197-1.314,1.776-2.001
				c0.189-0.225,0.371-0.462,0.557-0.691c0.384-0.472,0.765-0.948,1.135-1.44c1.547-2.052,2.978-4.271,4.296-6.656l-3.488,4.689
				C269.077,304.713,267.852,306.177,266.563,307.546z"/>
			<path style="fill:#FFFFFF;" d="M248.041,271.267c-0.132,1.13-0.28,2.221-0.441,3.283c-0.011,0.076-0.022,0.154-0.033,0.229
				c-0.156,1.01-0.327,1.985-0.51,2.934c-0.022,0.114-0.043,0.231-0.065,0.344c-0.132,0.667-0.269,1.322-0.414,1.959h0.184
				c0.8-3.089,1.429-6.57,1.882-10.456l3.994-30.172h-0.377L248.041,271.267z"/>
			<path style="fill:#FFFFFF;" d="M251.692,280.27c-0.42,1.593-0.889,3.074-1.403,4.453c-0.155,0.478-0.316,0.943-0.481,1.398
				c-0.041,0.113-0.083,0.224-0.124,0.335c-0.265,0.71-0.542,1.395-0.832,2.048c-0.04,0.091-0.082,0.178-0.123,0.268
				c-0.3,0.659-0.611,1.293-0.936,1.892c-0.033,0.061-0.067,0.118-0.101,0.178c-0.341,0.616-0.693,1.205-1.062,1.757
				c-0.014,0.02-0.028,0.039-0.041,0.059c-0.191,0.283-0.384,0.56-0.581,0.827l-5.176,6.959c0.875-1.176,1.676-2.518,2.406-4.026
				c-2.608,2.19-5.682,3.312-9.246,3.312c-0.292,0-0.589-0.007-0.887-0.022c-7.301-0.419-10.886-6.239-10.746-17.442
				c-0.036-2.424,0.214-6.15,0.749-11.176l2.123-15.956h-29.728l-1.413,10.435c-0.488,4.536-0.601,9.055-0.356,13.538
				c0.364,8.297,2.119,15.704,5.258,22.219c3.139,6.506,7.544,11.443,13.223,14.803c5.671,3.369,12.284,5.133,19.832,5.321
				c0.43,0.009,0.856,0.014,1.281,0.014c13.416,0,24.495-4.639,33.234-13.917c1.29-1.369,2.514-2.833,3.673-4.392l3.488-4.689
				c2.904-5.257,5.254-11.32,7.045-18.195H251.692z"/>
			<path style="fill:#FFFFFF;" d="M281.757,243.104c0.131-1.241,0.232-2.48,0.313-3.716h-29.431l-3.994,30.172
				c-0.453,3.886-1.082,7.367-1.882,10.456h29.075c1.074-4.167,1.946-8.627,2.613-13.384L281.757,243.104z"/>
			<path style="fill:#FFFFFF;" d="M235.3,225.116h-29.4c-1.6,5.29-2.832,11.075-3.685,17.37l-1.678,12.395h29.727l2.196-16.509
				C233.091,233.229,234.046,228.828,235.3,225.116z"/>
			<path style="fill:#FFFFFF;" d="M200.978,224.863h29.408c0.502-1.456,1.051-2.804,1.65-4.037
				c-1.007,0.836-1.951,1.818-2.816,2.981l5.176-6.959c0.124-0.167,0.258-0.308,0.385-0.468c0.185-0.234,0.372-0.466,0.563-0.685
				c0.229-0.262,0.465-0.508,0.703-0.75c0.198-0.201,0.395-0.403,0.599-0.589c0.108-0.099,0.214-0.204,0.325-0.3
				c0.27-0.656,0.55-1.291,0.843-1.894c2.577-2.14,5.609-3.227,9.114-3.227c0.294,0,0.593,0.008,0.893,0.023
				c7.067,0.365,10.678,6.087,10.841,17.174c-0.016,3.208-0.265,6.934-0.749,11.176l-0.242,1.829h29.411
				c0.202-3.205,0.246-6.395,0.111-9.57c-0.674-12.967-4.342-23.208-10.986-30.721c-6.653-7.504-15.759-11.381-27.318-11.631
				c-0.414-0.008-0.825-0.013-1.235-0.013c-13.684,0-24.91,4.773-33.695,14.326c-1.689,1.84-3.264,3.833-4.725,5.978
				c-0.059,0.087-0.115,0.179-0.174,0.266c-0.398,0.591-0.788,1.191-1.169,1.805c-0.15,0.242-0.294,0.492-0.442,0.738
				c-0.283,0.471-0.564,0.944-0.837,1.428c-0.162,0.286-0.319,0.579-0.477,0.87c-0.251,0.461-0.498,0.926-0.74,1.398
				c-0.157,0.307-0.312,0.616-0.466,0.928c-0.236,0.478-0.466,0.963-0.693,1.453c-0.145,0.313-0.29,0.625-0.432,0.943
				c-0.232,0.521-0.458,1.052-0.681,1.586c-0.124,0.296-0.25,0.589-0.371,0.888c-0.261,0.648-0.513,1.309-0.76,1.975
				c-0.03,0.081-0.062,0.16-0.091,0.241C201.58,222.954,201.273,223.9,200.978,224.863z"/>
			<path style="fill:#FFFFFF;" d="M251.563,280.017h0.015c0.145-0.637,0.282-1.291,0.414-1.959
				C251.859,278.734,251.71,279.374,251.563,280.017z"/>
			<path style="fill:#FFFFFF;" d="M251.411,280.713c0.035-0.148,0.072-0.294,0.106-0.443h-0.009
				C251.474,280.415,251.445,280.57,251.411,280.713z"/>
			<path style="fill:#FFFFFF;" d="M256.422,217.627c0.516,1.325,0.91,2.838,1.183,4.539
				C257.332,220.465,256.938,218.952,256.422,217.627z"/>
			<path style="fill:#FFFFFF;" d="M239.518,212.295c0.292-0.158,0.596-0.29,0.898-0.425
				C240.114,212.005,239.81,212.137,239.518,212.295z"/>
			<path style="fill:#FFFFFF;" d="M238.038,213.222c0.268-0.192,0.546-0.361,0.823-0.532
				C238.583,212.861,238.306,213.03,238.038,213.222z"/>
			<path style="fill:#FFFFFF;" d="M251.318,281.098c-0.207,0.837-0.426,1.643-0.657,2.424
				C250.892,282.742,251.112,281.935,251.318,281.098z"/>
			<path style="fill:#FFFFFF;" d="M252.567,274.78c-0.156,1.01-0.327,1.985-0.51,2.934
				C252.24,276.765,252.411,275.79,252.567,274.78z"/>
			<path style="fill:#FFFFFF;" d="M241.086,211.573c0.324-0.124,0.662-0.219,0.997-0.318
				C241.748,211.354,241.41,211.449,241.086,211.573z"/>
			<path style="fill:#FFFFFF;" d="M242.744,211.057c0.379-0.091,0.772-0.15,1.164-0.211
				C243.516,210.906,243.123,210.965,242.744,211.057z"/>
			<polygon style="fill:#FFFFFF;" points="257.295,239.136 257.295,239.136 257.311,239.014 			"/>
			<path style="fill:#FFFFFF;" d="M248.041,271.267c-0.132,1.13-0.28,2.221-0.441,3.283
				C247.761,273.488,247.91,272.397,248.041,271.267l4.22-31.879l0,0L248.041,271.267z"/>
			<path style="fill:#FFFFFF;" d="M258.005,230.341c-0.099,2.6-0.331,5.491-0.693,8.673
				C257.674,235.832,257.905,232.941,258.005,230.341z"/>
			<path style="fill:#FFFFFF;" d="M253.712,213.334c0.56,0.548,1.065,1.18,1.517,1.895
				C254.777,214.514,254.272,213.882,253.712,213.334z"/>
			<path style="fill:#FFFFFF;" d="M244.491,210.746c0.597-0.068,1.208-0.105,1.835-0.105
				C245.699,210.641,245.088,210.678,244.491,210.746z"/>
			<path style="fill:#FFFFFF;" d="M237.407,213.715c-0.144,0.116-0.294,0.218-0.436,0.341c-0.005,0.013-0.01,0.027-0.015,0.039
				C237.105,213.965,237.255,213.837,237.407,213.715z"/>
			<path style="fill:#FFFFFF;" d="M250.167,285.043c0.041-0.107,0.082-0.212,0.122-0.32c0.088-0.271,0.174-0.547,0.259-0.826
				C250.428,284.293,250.295,284.661,250.167,285.043z"/>
			<path style="fill:#FFFFFF;" d="M248.73,288.772c-0.3,0.659-0.611,1.293-0.936,1.892
				C248.119,290.065,248.43,289.431,248.73,288.772z"/>
			<path style="fill:#FFFFFF;" d="M236.971,214.056c-0.11,0.095-0.216,0.201-0.325,0.3c0.101-0.092,0.207-0.172,0.309-0.261
				C236.961,214.082,236.966,214.068,236.971,214.056z"/>
			<path style="fill:#FFFFFF;" d="M235.345,215.695c0.229-0.262,0.465-0.508,0.703-0.75
				C235.81,215.187,235.574,215.433,235.345,215.695z"/>
			<path style="fill:#FFFFFF;" d="M234.396,216.848l-5.176,6.959c0.865-1.163,1.809-2.145,2.816-2.981
				c0.823-1.693,1.738-3.176,2.745-4.446C234.654,216.54,234.52,216.682,234.396,216.848z"/>
			<path style="fill:#FFFFFF;" d="M249.808,286.121c0.165-0.455,0.326-0.921,0.481-1.398c-0.04,0.108-0.082,0.214-0.122,0.32
				C250.047,285.402,249.934,285.775,249.808,286.121z"/>
			<path style="fill:#FFFFFF;" d="M243.238,296.417c-0.73,1.508-1.531,2.85-2.406,4.026l5.176-6.959
				c0.198-0.266,0.391-0.543,0.581-0.827C245.58,294.158,244.456,295.395,243.238,296.417z"/>
			<path style="fill:#FFFFFF;" d="M249.684,286.456c-0.265,0.71-0.542,1.395-0.832,2.048
				C249.142,287.851,249.419,287.166,249.684,286.456z"/>
			<path style="fill:#FFFFFF;" d="M247.693,290.842c-0.341,0.616-0.693,1.205-1.062,1.757
				C246.999,292.047,247.352,291.458,247.693,290.842z"/>
			<path style="fill:#FFFFFF;" d="M193.191,270.673c-0.151,2.263-0.209,4.521-0.176,6.771
				C192.982,275.194,193.04,272.937,193.191,270.673z"/>
			<path style="fill:#FFFFFF;" d="M193.665,286.869c0.265,1.963,0.616,3.87,1.055,5.722
				C194.281,290.739,193.93,288.832,193.665,286.869z"/>
			<path style="fill:#FFFFFF;" d="M205.76,313.39c1.181,1.135,2.442,2.173,3.782,3.111
				C208.202,315.562,206.941,314.525,205.76,313.39z"/>
			<path style="fill:#FFFFFF;" d="M265.96,309.252c0.607-0.645,1.197-1.314,1.776-2.001
				C267.158,307.938,266.567,308.608,265.96,309.252z"/>
			<path style="fill:#FFFFFF;" d="M202.455,309.689c-1.534-1.998-2.889-4.217-4.066-6.657c-1.177-2.443-2.16-5.012-2.947-7.705
				c0.788,2.694,1.77,5.262,2.947,7.705C199.566,305.471,200.922,307.69,202.455,309.689z"/>
			<path style="fill:#FFFFFF;" d="M202.455,309.689c1.022,1.332,2.124,2.566,3.305,3.701
				C204.579,312.254,203.478,311.021,202.455,309.689z"/>
			<path style="fill:#FFFFFF;" d="M269.428,305.121c-0.37,0.492-0.752,0.967-1.135,1.44
				C268.677,306.088,269.058,305.612,269.428,305.121z"/>
			<path style="fill:#FFFFFF;" d="M197.267,239.939c-0.058,0.342-0.119,0.679-0.175,1.024
				C197.147,240.618,197.209,240.281,197.267,239.939z"/>
			<path style="fill:#FFFFFF;" d="M201.91,221.994c-0.046,0.126-0.095,0.248-0.141,0.375c0.042-0.117,0.088-0.228,0.131-0.344
				C201.903,222.014,201.907,222.004,201.91,221.994z"/>
			<path style="fill:#FFFFFF;" d="M203.524,233.558c-0.09,0.396-0.179,0.794-0.265,1.194
				C203.345,234.352,203.434,233.954,203.524,233.558z"/>
			<path style="fill:#FFFFFF;" d="M199.238,230.605c-0.098,0.38-0.193,0.764-0.287,1.149
				C199.045,231.369,199.14,230.985,199.238,230.605z"/>
			<path style="fill:#FFFFFF;" d="M202.871,236.641c-0.077,0.391-0.156,0.781-0.23,1.176
				C202.715,237.422,202.793,237.032,202.871,236.641z"/>
			<path style="fill:#FFFFFF;" d="M200.016,227.761c-0.099,0.341-0.193,0.688-0.289,1.033
				C199.823,228.45,199.917,228.102,200.016,227.761z"/>
			<path style="fill:#FFFFFF;" d="M200.828,225.116h-0.003c-0.066,0.204-0.126,0.418-0.191,0.624
				C200.699,225.533,200.761,225.321,200.828,225.116z"/>
			<path style="fill:#FFFFFF;" d="M206.135,212.612c0.158-0.291,0.316-0.583,0.477-0.87
				C206.45,212.029,206.293,212.321,206.135,212.612z"/>
			<path style="fill:#FFFFFF;" d="M201.991,221.784c-0.026,0.071-0.055,0.139-0.081,0.21c-0.004,0.01-0.007,0.02-0.01,0.031
				C201.93,221.943,201.961,221.865,201.991,221.784z"/>
			<path style="fill:#FFFFFF;" d="M202.752,219.809c0.121-0.3,0.247-0.592,0.371-0.888
				C202.999,219.216,202.872,219.509,202.752,219.809z"/>
			<path style="fill:#FFFFFF;" d="M203.804,217.334c0.142-0.318,0.287-0.63,0.432-0.943
				C204.091,216.704,203.945,217.017,203.804,217.334z"/>
			<path style="fill:#FFFFFF;" d="M204.929,214.939c0.154-0.312,0.309-0.621,0.466-0.928
				C205.238,214.318,205.083,214.627,204.929,214.939z"/>
			<path style="fill:#FFFFFF;" d="M209.059,207.772c0.059-0.087,0.115-0.179,0.174-0.266
				C209.174,207.593,209.118,207.684,209.059,207.772z"/>
			<path style="fill:#FFFFFF;" d="M207.449,210.314c0.148-0.246,0.292-0.496,0.442-0.738
				C207.74,209.819,207.596,210.069,207.449,210.314z"/>
			<g>
				<rect x="132.602" y="302.826" style="fill:none;" width="0" height="17.427"/>
				<polygon style="fill:none;" points="84.15,273.086 84.15,273.086 82.809,293.254 				"/>
				<polygon style="fill:none;" points="132.539,293.254 131.024,302.683 131.024,302.683 				"/>
				<rect x="131.104" y="320.389" style="fill:none;" width="0" height="0.954"/>
				<polygon style="fill:#FF00FF;" points="161.051,302.683 165.435,302.683 165.832,300.213 161.449,300.213 				"/>
				<polygon style="fill:#FF00FF;" points="161.324,319.631 161.652,319.631 166.827,312.672 168.394,302.936 164.01,302.936 				
					"/>
				<polygon style="fill:#24004661;" points="170.434,300.213 175.61,293.254 166.952,293.254 165.832,300.213 				"/>
				<polygon style="fill:#24004661;" points="161.449,300.213 165.832,300.213 166.952,293.254 162.568,293.254 				"/>
				<polygon style="fill:#24004661;" points="131.029,321.337 131.18,320.395 127.122,320.395 125.853,328.296 155.874,328.296 
					161.049,321.337 131.029,321.337 				"/>
				<polygon style="fill:#24004661;" points="132.539,293.254 82.809,293.254 84.15,273.086 78.975,280.044 77.633,300.213 
					127.363,300.213 126.967,302.683 131.024,302.683 				"/>
				<polygon style="fill:#24004661;" points="133.984,302.936 129.926,302.936 127.162,320.143 131.22,320.143 				"/>
				<polygon style="fill:#FFFFFF;" points="131.029,321.337 161.049,321.337 161.201,320.395 131.18,320.395 				"/>
				<polygon style="fill:#FFFFFF;" points="82.809,293.254 132.539,293.254 131.024,302.683 131.353,302.683 133.141,291.548 
					83.411,291.548 84.686,272.385 84.15,273.086 84.15,273.086 84.15,273.086 				"/>
				<polygon style="fill:#FFFFFF;" points="134.313,302.936 133.984,302.936 131.22,320.143 161.241,320.143 161.324,319.631 
					131.631,319.631 				"/>
				<polygon style="fill:#FFFFFF;" points="133.141,291.548 131.353,302.683 161.051,302.683 161.449,300.213 157.393,300.213 
					162.568,293.254 166.952,293.254 167.227,291.548 175.881,291.548 179.371,269.637 166.321,269.637 168.639,255.133 
					164.782,255.133 164.782,254.881 168.68,254.881 179.191,189.131 148.161,188.676 148.17,189.309 142.995,196.268 
					142.992,196.085 110.19,239.01 135.453,239.01 144.308,226.962 138.167,260.939 137.873,260.937 136.3,269.637 131.125,276.595 
					132.388,269.604 113.67,269.449 120.035,260.789 119.448,260.784 120.243,259.703 94.377,259.703 84.686,272.385 
					83.411,291.548 				"/>
				<polygon style="fill:#FFFFFF;" points="134.313,302.936 131.631,319.631 161.324,319.631 164.01,302.936 				"/>
				<polygon style="fill:#FFFFFF;" points="157.393,300.213 161.449,300.213 162.568,293.254 				"/>
			</g>
		</g>
		<g>
			<g>
				<polygon style="fill:#24004661;" points="424.798,217.098 400.605,217.067 400.605,218.213 424.798,218.244 				"/>
				<polygon style="fill:#FFFFFF;" points="422.322,188.572 387.347,188.527 387.347,193.455 422.322,193.5 				"/>
				<polygon style="fill:#FF00FF;" points="419.298,183.116 403.034,183.095 403.034,185.036 419.298,185.057 				"/>
				<polygon style="fill:#FF00FF;" points="103.156,320.431 85.085,320.388 85.085,322.329 103.156,322.371 				"/>
				<polygon style="fill:#FF00FF;" points="422.038,235.717 407.578,235.698 407.578,238.443 422.038,238.462 				"/>
				<polygon style="fill:#FFFFFF;" points="444.164,212.71 438.607,212.703 438.607,213.817 444.164,213.824 				"/>
				<polygon style="fill:#24004661;" points="432.749,256.193 424.798,256.183 424.798,259.213 432.749,259.224 				"/>
				<path style="fill:#3D00FF;" d="M161.648,184.579v1.712c0,0.082-0.023,0.153-0.035,0.229l5.774,0.007v-1.94L161.648,184.579z"/>
				<polygon style="fill:#FFFFFF;" points="167.79,170.907 158.837,170.896 158.837,172.157 167.79,172.169 				"/>
				<polygon style="fill:#24004661;" points="81.204,301.093 65.694,301.073 65.694,304.103 81.204,304.123 				"/>
				<polygon style="fill:#24004661;" points="146.831,333.426 146.831,338.354 151.191,338.36 151.191,333.432 				"/>
				<path style="fill:#3D00FF;" d="M361.599,298.208v9.018c0,0.434-0.023,0.805-0.035,1.206l5.774,0.039v-10.224L361.599,298.208z"
					/>
				<polygon style="fill:#3D00FF;" points="393.817,269.473 358.841,269.428 358.841,274.356 393.817,274.401 				"/>
				<polygon style="fill:#FFFFFF;" points="383.655,288.647 367.391,288.627 367.391,290.567 383.655,290.588 				"/>
				<path style="fill:#FFFFFF;" d="M77.953,314.89l-25.456-0.033v1.394l25.39,0.033C77.908,315.82,77.93,315.355,77.953,314.89z"/>
				<path style="fill:#FFFFFF;" d="M339.536,180.984l-26.474-0.034c-0.023,0.465-0.045,0.93-0.066,1.394l26.54,0.034V180.984z"/>
				<polygon style="fill:#FFFFFF;" points="306.521,336.451 306.521,337.845 316.852,337.859 316.852,336.464 				"/>
				<polygon style="fill:#FFFFFF;" points="40.997,254.085 35.44,254.077 35.44,255.192 40.997,255.199 				"/>
				<polygon style="fill:#FFFFFF;" points="107.224,215.935 107.224,220.863 111.585,220.869 111.585,215.941 				"/>
				<rect x="274.143" y="269.786" style="fill:#FFFFFF;" width="21.242" height="2.053"/>
				<path style="fill:#24004661;" d="M328.858,274.401v1.712c0,0.082-0.023,0.153-0.035,0.229l5.774,0.008v-1.94L328.858,274.401z"/>
				<polygon style="fill:#FF00FF;" points="90.034,184.95 81.089,184.939 81.089,187.326 90.034,187.337 				"/>
				<path style="fill:#FF00FF;" d="M339.571,177.135v1.711c0,0.083-0.023,0.153-0.035,0.229l5.774,0.007v-1.941L339.571,177.135z"/>
			</g>
			<g>
				<polygon style="fill:#3D00FF;" points="254.635,171.006 238.414,171.116 238.414,172.231 254.635,172.12 				"/>
				<polygon style="fill:#3D00FF;" points="185.887,183.081 185.887,188.01 198.617,187.923 198.617,182.995 				"/>
				<polygon style="fill:#3D00FF;" points="220.782,259.778 220.782,264.706 236.044,264.62 236.044,259.691 				"/>
				<polygon style="fill:#FFFFFF;" points="207.766,275.707 148.449,275.836 148.449,278.201 207.766,278.071 				"/>
			</g>
			<g>
				<path style="fill:#FF00FF;" d="M268.741,200.195l-39.502,0.067v3.031l39.526-0.067
					C268.748,202.215,268.742,201.205,268.741,200.195z"/>
				<polygon style="fill:#FF00FF;" points="259.604,180.814 207.766,180.614 207.766,181.596 259.604,181.796 				"/>
				<polygon style="fill:#3D00FF;" points="109.945,211.089 58.107,210.889 58.107,211.871 109.945,212.071 				"/>
				<polygon style="fill:#FF00FF;" points="380.078,227.223 338.983,227.155 338.983,229.542 380.078,229.609 				"/>
				<polygon style="fill:#3D00FF;" points="155.08,256.506 114.658,256.35 114.658,257.562 155.08,257.718 				"/>
				<polygon style="fill:#FF00FF;" points="205.623,235.832 172.4,235.704 172.4,238.091 205.623,238.219 				"/>
				<polygon style="fill:#FF00FF;" points="202.99,293.162 169.768,293.034 169.768,295.421 202.99,295.549 				"/>
				<polygon style="fill:#FF00FF;" points="179.925,250.583 146.702,250.455 146.702,252.842 179.925,252.97 				"/>
				<polygon style="fill:#3D00FF;" points="134.067,272.98 84.026,272.787 84.026,273.372 134.067,273.565 				"/>
			</g>
			<polygon style="fill:#24004661;" points="221.374,340.473 200.068,340.545 200.023,342.576 221.329,342.504 			"/>
			<polygon style="fill:#FFFFFF;" points="282.566,282.127 282.566,283.205 330.466,282.82 330.476,281.741 			"/>
			<polygon style="fill:#FFFFFF;" points="342.727,220.181 320.385,220.256 320.357,221.557 342.698,221.482 			"/>
			<polygon style="fill:#FFFFFF;" points="131.685,227.127 111.823,227.194 111.783,229.034 131.644,228.967 			"/>
			<polygon style="fill:#FFFFFF;" points="452.861,274.081 422.952,274.162 422.919,275.333 452.828,275.252 			"/>
			<g>
				<polygon style="fill:#24004661;" points="281.131,240.083 245.438,240.038 245.438,241.184 281.131,241.23 				"/>
				<polygon style="fill:#3D00FF;" points="315.427,212.348 289.21,212.307 289.21,214.179 315.427,214.22 				"/>
				<polygon style="fill:#FF00FF;" points="426.403,309.899 420.267,309.891 420.267,310.477 426.403,310.485 				"/>
				<polygon style="fill:#24004661;" points="352.387,318.516 345.651,318.507 345.651,319.093 352.387,319.102 				"/>
				<polygon style="fill:#24004661;" points="236.661,299.601 230.099,299.593 230.099,301.979 236.661,301.988 				"/>
				<polygon style="fill:#24004661;" points="218.683,202.103 212.12,202.095 212.12,204.482 218.683,204.49 				"/>
				<polygon style="fill:#24004661;" points="277.773,332.88 268.827,332.868 268.827,335.255 277.773,335.266 				"/>
				<polygon style="fill:#24004661;" points="211.94,319.934 188.176,319.89 188.176,320.383 211.94,320.428 				"/>
				<polygon style="fill:#FFFFFF;" points="326.735,295.577 295.225,295.537 295.225,297.923 326.735,297.964 				"/>
				<polygon style="fill:#24004661;" points="292.16,244.167 264.825,244.132 264.825,246.877 292.16,246.912 				"/>
				<polygon style="fill:#FFFFFF;" points="100.476,245.557 73.142,245.522 73.142,248.267 100.476,248.303 				"/>
				<polygon style="fill:#3D00FF;" points="372.065,341.536 362.978,341.525 362.978,343.911 372.065,343.923 				"/>
				<polygon style="fill:#3D00FF;" points="278.492,240.414 272.356,240.406 272.356,240.992 278.492,241 				"/>
				<polygon style="fill:#FF00FF;" points="254.252,328.831 247.69,328.823 247.69,331.209 254.252,331.218 				"/>
				<polygon style="fill:#FFFFFF;" points="301.163,258.486 292.217,258.474 292.217,260.861 301.163,260.872 				"/>
				<polygon style="fill:#24004661;" points="128.469,217.56 121.734,217.551 121.734,218.137 128.469,218.145 				"/>
				<polygon style="fill:#24004661;" points="65.225,281.887 59.089,281.879 59.089,282.465 65.225,282.473 				"/>
				<polygon style="fill:#24004661;" points="109.405,206.826 103.268,206.818 103.268,207.404 109.405,207.411 				"/>
				<polygon style="fill:#24004661;" points="126.766,170.343 120.204,170.335 120.204,172.721 126.766,172.73 				"/>
				<polygon style="fill:#24004661;" points="314.353,282.636 310.98,282.627 310.98,283.213 314.353,283.221 				"/>
				<polygon style="fill:#24004661;" points="304.804,271.902 301.731,271.894 301.731,272.48 304.804,272.487 				"/>
			</g>
		</g>
	</g>
</g>
</svg>
