<?xml version="1.0" encoding="utf-8"?>
<!-- Generator: Adobe Illustrator 27.5.0, SVG Export Plug-In . SVG Version: 6.00 Build 0)  -->
<svg version="1.1" id="Layer_1" xmlns="http://www.w3.org/2000/svg" xmlns:xlink="http://www.w3.org/1999/xlink" x="0px" y="0px"
	 viewBox="0 0 173.399 277.188" style="enable-background:new 0 0 173.399 277.188;" xml:space="preserve">
<g>
	<g>
		<g>
			<g>
				<path style="fill:#EBEBEC;" d="M27.072,53.285c-1.431-1.856-2.974-3.176-4.552-4.087c-2.411,1.32-4.7,3.177-6.303,4.782
					c-2.918,2.92-5.479,6.713-5.54,10.881c11.102,18.708,31.842,33.01,31.842,33.01l14.008-19.903
					C47.121,72.655,33.401,61.488,27.072,53.285z"/>
				<path style="fill:#D9D9DB;" d="M27.072,53.285c-1.431-1.856-2.974-3.176-4.552-4.087c-2.411,1.32-4.7,3.177-6.303,4.782
					c-2.6,2.602-4.912,5.898-5.429,9.534c0.536,1.666,1.45,3.208,2.794,4.366c2.621,2.258,5.364,2.257,8.594,2.663
					c3.959,0.497,13.974,11.464,13.982,15.245c0.005,2.809,0.204,5.323,0.683,7.771c3.418,2.752,5.678,4.313,5.678,4.313
					l14.008-19.903C47.121,72.655,33.401,61.488,27.072,53.285z"/>
				<path style="fill:#D9D9DB;" d="M24.178,69.606c4.383-1.434,8.817-4.265,9.911-8.726c-2.76-2.636-5.199-5.238-7.017-7.594
					c-1.431-1.856-2.974-3.176-4.552-4.087c-2.411,1.32-4.7,3.177-6.303,4.782c-2.6,2.602-4.912,5.898-5.429,9.534
					c0.485,1.506,1.297,2.896,2.438,4.007C16.23,69.887,20.932,70.668,24.178,69.606z"/>
				<path style="fill:#818386;" d="M38.503,64.889c0.379,0.329,0.76,0.658,1.147,0.986C36.936,73,32.262,79.438,26.551,84.441
					c-0.656-0.641-1.318-1.306-1.982-1.984C30.64,78.135,35.564,71.764,38.503,64.889z"/>
				<path style="fill:#EBEBEC;" d="M64.249,102.301c0,0-13.038,2.628-22.694-0.797c-9.657-3.425-0.805-35.979,8.847-30.477
					C60.052,76.529,67.145,101.85,64.249,102.301z"/>
				<path style="fill:#EBEBEC;" d="M49.029,102.013c0,0-7.702,0.87-10.051-4.791c-2.349-5.662,0.531-14.701,2.735-19.647
					c0,0-4.036,11.553-1.964,17.258C41.822,100.539,49.029,102.013,49.029,102.013z"/>
				<g>
					<path style="fill:#D9D9DB;" d="M12.625,35.868c1.665,1.999,3.929,3.711,6.401,4.567c2.627,0.909,5.764,1.672,8.505,0.731
						c1.314-0.448,2.359-1.342,3.411-2.209c0.401,8.92,0.65,19.46,0.65,19.46s-1.902,11.987-13.613,11.495
						c0,0-8.269-1.751-9.045-9.786C8.404,54.666,9.548,42.89,11.87,34.907C12.125,35.255,12.383,35.577,12.625,35.868z"/>
					<path style="fill:#EBEBEC;" d="M21.336,42.574l0.014-1.443c-0.801-0.197-1.584-0.441-2.325-0.697
						c-2.421-0.837-4.64-2.502-6.294-4.445c-0.183,0.616-0.37,1.295-0.557,2.014C14.042,40.822,18.026,42.547,21.336,42.574z"/>
					<path style="fill:#EBEBEC;" d="M11.704,39.911c-1.263,5.37-2.401,12.388-2.268,17.342c0.211,7.784,5.857,9.792,5.857,9.792
						c4.418,1.728,5.81,0.168,5.81,0.168l0.219-23.109C17.872,44.054,14.045,42.538,11.704,39.911z"/>
				</g>
				<path style="fill:#D9D9DB;" d="M36.894,19.108c-1.812-0.408-3.705,0.566-4.907,1.871c-0.456,0.496-3.561,4.439-3.356,4.813
					c-1.394-2.538-2.233-10.611-2.252-11.68c-0.024-1.403,0.161-2.842,0.059-4.238c0.004-1.018-0.244-1.969-0.743-2.85
					c-1.842-1.417-3.156-1.21-3.941,0.622c-0.006,0.013-0.016,0.018-0.022,0.03c-0.29,0.851-0.495,1.783-0.645,2.692
					c-0.191,0.86-0.295,1.781-0.336,2.723c-0.035,0.37-0.066,0.711-0.095,1.003c-0.013,0.127-0.019,0.265-0.031,0.395
					c-0.627-2.99-0.583-6.085-1.479-9.043c-0.49-1.614-2.728-1.641-3.629-0.47c-1.552,2.015-1.841,4.569-1.78,7.058
					c-0.397-1.09-0.797-2.179-1.078-3.332c-0.388-1.594-1.896-3.105-3.601-1.861c-1.917,1.398-2.38,3.528-1.92,5.877
					c0.036,0.183,0.086,0.387,0.127,0.58c-0.487-0.574-1.083-0.944-1.83-0.906c-3.138,0.163-2.919,3.362-2.755,5.674
					c0.396,5.569,2.208,10.825,5.367,15.431c1.693,2.468,3.459,5.022,5.882,6.836c4.217,3.158,11.814,4.189,16.221,0.872
					c3.492-2.63,3.689-7.014,4.585-10.93c0.334-1.461,0.831-2.876,1.375-4.27c0.644-1.65,1.976-3.484,1.979-5.309
					C38.092,19.735,37.598,19.266,36.894,19.108z"/>
				<path style="opacity:0.6;fill:#D9D9DB;" d="M37.636,19.501c-3.964-0.469-6.4,5.18-8.227,7.699
					c-2.801,3.863-3.456,6.678-1.532,11.121c0.396,0.914-0.95,1.711-1.349,0.788c-1.013-2.34-2.335-5.42-1.31-8.002
					c0.801-2.02,2.06-3.755,3.327-5.497c-1.342-2.707-2.148-10.453-2.166-11.499c-0.024-1.403,0.161-2.842,0.059-4.238
					c0.002-0.484-0.057-0.951-0.169-1.405c-0.019-0.036-0.047-0.061-0.062-0.101c-0.744-2.061-2.389-0.134-2.733,0.955
					c-0.313,0.989-1.111,1.949-1.364,2.96c-0.424,1.698-0.781,5.599-0.935,4.876c-0.2-0.941-0.384-1.881-0.538-2.824
					c-0.004,0.052-0.008,0.103-0.012,0.154c-0.591-2.818-0.595-5.729-1.343-8.532c-1.848-1.696-3.861,0.565-4.132,2.325
					c-0.235,1.522-0.697,5.7-1.006,4.876c-0.165-0.44-0.294-0.888-0.406-1.339c0.001,0.072-0.001,0.144,0.001,0.216
					c-0.397-1.09-0.797-2.179-1.078-3.332c-0.198-0.812-0.687-1.6-1.344-2.016C7.561,7.19,8.565,14.809,8.16,14.29
					c-0.281-0.361-0.591-0.694-0.902-1.028c0.002,0.012,0.005,0.024,0.008,0.035c-0.487-0.574-1.083-0.944-1.83-0.906
					c-0.283,0.014-0.53,0.062-0.762,0.123c-3.564,2.677,2.219,15.13,3.584,17.699c2.123,3.995,4.831,8.156,8.797,10.548
					c2.704,1.631,5.429,2.255,8.284,2.337c1.779-0.26,3.448-0.868,4.811-1.894c3.492-2.63,3.689-7.014,4.585-10.93
					c0.334-1.461,0.831-2.876,1.375-4.27c0.644-1.65,1.976-3.484,1.979-5.309C38.092,20.138,37.913,19.762,37.636,19.501z"/>
				<path style="opacity:0.6;fill:#D9D9DB;" d="M25.633,15.526c-0.035,4.049,0.517,7.833,1.83,11.604
					c0.354-0.51,0.716-1.015,1.083-1.519c-1.342-2.707-2.148-10.453-2.166-11.499c-0.024-1.403,0.161-2.842,0.059-4.238
					c0.002-0.452-0.054-0.887-0.152-1.312C26.336,10.862,25.652,13.313,25.633,15.526z"/>
				<path style="opacity:0.6;fill:#EBEBEC;" d="M22.411,24.247c-1.486-1.279-3.498-0.571-5.09-0.263
					c-0.857,0.166-2.266,1.017-3.101,1.279c-1.677,0.523-3.238,1.462-3.891,3.174c-0.336,0.882,0.473,1.791,1.355,1.981
					c0.926,0.198,1.879,0.26,2.824,0.174c1.741-0.158,3.054-0.752,4.505-1.704c1.256-0.824,2.786-1.899,3.476-3.271
					C22.822,24.951,22.727,24.519,22.411,24.247z"/>
				<path style="opacity:0.6;fill:#D9D9DB;" d="M35.67,24.647c-1.903,3.543-1.664,7.249-2.605,11.025
					c-0.398,1.599-0.979,3.17-1.798,4.517c2.431-2.657,2.681-6.466,3.47-9.914c0.334-1.461,0.831-2.876,1.375-4.27
					c0.644-1.65,1.976-3.484,1.979-5.309c0-0.114-0.012-0.216-0.026-0.316C37.763,21.861,36.563,22.985,35.67,24.647z"/>
			</g>
		</g>
		<path style="fill:#C9CACC;" d="M23.35,22.716c-0.034-0.004-0.068-0.011-0.102-0.016c-1.099-2.515-2.127-5.446-2.592-8.197
			c-0.06,0.274-0.106,0.551-0.13,0.833c0.241,2.5,1.322,5.183,2.405,7.321c-1.809-0.167-3.721,0.188-5.432,0.728
			c-1.735-3.881-2.726-8.004-3.926-12.064c0.008,0.168,0.022,0.334,0.032,0.501c0.078,0.88,0.184,1.757,0.403,2.615
			c0.184,0.719,0.38,1.431,0.553,2.15c0.69,2.347,1.554,4.636,2.663,6.885c-0.085,0.028-0.173,0.053-0.257,0.082
			c-1.247,0.43-3.306,1.018-4.971,1.909c-1.076-2.306-1.745-4.755-2.401-7.213c-0.438-1.64-0.878-3.47-2.001-4.716
			c-0.212-0.133-0.425-0.265-0.645-0.381c1.764,1.646,2.207,4.672,2.721,6.892c0.434,1.875,1.068,3.861,2.033,5.577
			c-0.527,0.303-0.987,0.645-1.366,1.02C14.043,24.251,18.903,22.927,23.35,22.716z"/>
		<path style="fill:#C9CACC;" d="M28.884,25.16c-1.751,2.209-3.48,4.389-4.249,7.154c-0.485,1.742,0.003,5.293,1.547,6.497
			c0.057,0.044,0.178-0.054,0.131-0.116c-0.008-0.01-0.016-0.02-0.024-0.03c-0.042-0.054-0.126,0.044-0.12,0.089
			c-0.25-1.897-1.308-3.636-1.213-5.787c0.131-2.975,2.717-5.354,4.099-7.762C29.134,25.069,28.947,25.082,28.884,25.16z"/>
		<path style="opacity:0.5;fill:#EBEBEC;" d="M15.149,69.926c0,0,10.013,13.248,20.036,21.007c0,0,0.474-1.814-1.097-4.1
			C32.518,84.548,21.35,72.665,21.35,72.665L15.149,69.926z"/>
		<path style="fill:#EBEBEC;" d="M23.498,42.619c-3.35-0.344-5.642-1.285-8.243-3.446c-2.215-1.84-4.003-4.269-5.589-6.656
			C6.233,27.35,2.937,19.803,4.107,13.485c0.016-0.091-0.109-0.036-0.125,0.021c-1.724,6.41,1.455,13.482,4.556,18.976
			c2.932,5.194,8.532,10.634,14.877,10.332C23.493,42.809,23.62,42.631,23.498,42.619z"/>
	</g>
	<g>
		<g>
			<g>
				<path style="fill:#EBEBEC;" d="M146.327,53.285c1.431-1.856,2.974-3.176,4.553-4.087c2.411,1.32,4.7,3.177,6.303,4.782
					c2.918,2.92,5.479,6.713,5.54,10.881c-11.102,18.708-31.841,33.01-31.841,33.01l-14.008-19.903
					C126.278,72.655,140,61.488,146.327,53.285z"/>
				<path style="fill:#D9D9DB;" d="M146.327,53.285c1.431-1.856,2.974-3.176,4.553-4.087c2.411,1.32,4.7,3.177,6.303,4.782
					c2.599,2.602,4.912,5.898,5.429,9.534c-0.535,1.666-1.45,3.208-2.794,4.366c-2.621,2.258-5.365,2.257-8.594,2.663
					c-3.96,0.497-13.975,11.464-13.982,15.245c-0.006,2.809-0.204,5.323-0.684,7.771c-3.418,2.752-5.678,4.313-5.678,4.313
					l-14.008-19.903C126.278,72.655,140,61.488,146.327,53.285z"/>
				<path style="fill:#D9D9DB;" d="M149.221,69.606c-4.383-1.434-8.816-4.265-9.911-8.726c2.76-2.636,5.2-5.238,7.017-7.594
					c1.431-1.856,2.974-3.176,4.553-4.087c2.411,1.32,4.7,3.177,6.303,4.782c2.599,2.602,4.912,5.898,5.429,9.534
					c-0.484,1.506-1.297,2.896-2.438,4.007C157.17,69.887,152.468,70.668,149.221,69.606z"/>
				<path style="fill:#818386;" d="M134.897,64.889c-0.38,0.329-0.761,0.658-1.147,0.986c2.715,7.124,7.389,13.563,13.099,18.566
					c0.656-0.641,1.319-1.306,1.982-1.984C142.76,78.135,137.836,71.764,134.897,64.889z"/>
				<path style="fill:#EBEBEC;" d="M109.151,102.301c0,0,13.038,2.628,22.695-0.797c9.656-3.425,0.804-35.979-8.847-30.477
					C113.347,76.529,106.255,101.85,109.151,102.301z"/>
				<path style="fill:#EBEBEC;" d="M124.37,102.013c0,0,7.703,0.87,10.052-4.791c2.348-5.662-0.531-14.701-2.736-19.647
					c0,0,4.035,11.553,1.965,17.258C131.578,100.539,124.37,102.013,124.37,102.013z"/>
				<g>
					<path style="fill:#D9D9DB;" d="M160.775,35.868c-1.665,1.999-3.929,3.711-6.401,4.567c-2.627,0.909-5.764,1.672-8.505,0.731
						c-1.314-0.448-2.36-1.342-3.411-2.209c-0.402,8.92-0.65,19.46-0.65,19.46s1.902,11.987,13.612,11.495
						c0,0,8.27-1.751,9.046-9.786c0.529-5.459-0.616-17.236-2.938-25.218C161.275,35.255,161.017,35.577,160.775,35.868z"/>
					<path style="fill:#EBEBEC;" d="M152.064,42.574l-0.014-1.443c0.801-0.197,1.584-0.441,2.325-0.697
						c2.421-0.837,4.641-2.502,6.294-4.445c0.183,0.616,0.37,1.295,0.557,2.014C159.358,40.822,155.374,42.547,152.064,42.574z"/>
					<path style="fill:#EBEBEC;" d="M161.696,39.911c1.264,5.37,2.401,12.388,2.268,17.342c-0.21,7.784-5.856,9.792-5.856,9.792
						c-4.419,1.728-5.811,0.168-5.811,0.168l-0.219-23.109C155.527,44.054,159.354,42.538,161.696,39.911z"/>
				</g>
				<path style="fill:#D9D9DB;" d="M136.506,19.108c1.811-0.408,3.705,0.566,4.907,1.871c0.455,0.496,3.561,4.439,3.355,4.813
					c1.394-2.538,2.234-10.611,2.253-11.68c0.024-1.403-0.161-2.842-0.059-4.238c-0.004-1.018,0.243-1.969,0.743-2.85
					c1.842-1.417,3.156-1.21,3.941,0.622c0.006,0.013,0.016,0.018,0.023,0.03c0.29,0.851,0.495,1.783,0.644,2.692
					c0.191,0.86,0.296,1.781,0.337,2.723c0.034,0.37,0.065,0.711,0.095,1.003c0.012,0.127,0.019,0.265,0.03,0.395
					c0.627-2.99,0.583-6.085,1.479-9.043c0.49-1.614,2.728-1.641,3.629-0.47c1.552,2.015,1.842,4.569,1.78,7.058
					c0.397-1.09,0.797-2.179,1.078-3.332c0.388-1.594,1.896-3.105,3.601-1.861c1.917,1.398,2.379,3.528,1.92,5.877
					c-0.036,0.183-0.086,0.387-0.127,0.58c0.487-0.574,1.083-0.944,1.829-0.906c3.138,0.163,2.919,3.362,2.755,5.674
					c-0.396,5.569-2.207,10.825-5.367,15.431c-1.692,2.468-3.459,5.022-5.881,6.836c-4.217,3.158-11.814,4.189-16.221,0.872
					c-3.492-2.63-3.689-7.014-4.585-10.93c-0.335-1.461-0.832-2.876-1.376-4.27c-0.644-1.65-1.976-3.484-1.98-5.309
					C135.307,19.735,135.801,19.266,136.506,19.108z"/>
				<path style="opacity:0.6;fill:#D9D9DB;" d="M135.764,19.501c3.964-0.469,6.4,5.18,8.227,7.699
					c2.801,3.863,3.456,6.678,1.532,11.121c-0.396,0.914,0.949,1.711,1.349,0.788c1.014-2.34,2.334-5.42,1.31-8.002
					c-0.801-2.02-2.06-3.755-3.327-5.497c1.342-2.707,2.148-10.453,2.166-11.499c0.024-1.403-0.161-2.842-0.059-4.238
					c-0.002-0.484,0.057-0.951,0.169-1.405c0.019-0.036,0.047-0.061,0.062-0.101c0.745-2.061,2.389-0.134,2.733,0.955
					c0.313,0.989,1.111,1.949,1.364,2.96c0.424,1.698,0.782,5.599,0.935,4.876c0.2-0.941,0.384-1.881,0.538-2.824
					c0.004,0.052,0.008,0.103,0.012,0.154c0.591-2.818,0.595-5.729,1.343-8.532c1.847-1.696,3.861,0.565,4.132,2.325
					c0.236,1.522,0.697,5.7,1.007,4.876c0.166-0.44,0.295-0.888,0.406-1.339c-0.001,0.072,0.001,0.144-0.001,0.216
					c0.397-1.09,0.797-2.179,1.078-3.332c0.198-0.812,0.687-1.6,1.344-2.016c3.755,0.504,2.751,8.123,3.155,7.604
					c0.281-0.361,0.591-0.694,0.902-1.028c-0.003,0.012-0.005,0.024-0.008,0.035c0.487-0.574,1.083-0.944,1.829-0.906
					c0.284,0.014,0.53,0.062,0.762,0.123c3.564,2.677-2.219,15.13-3.585,17.699c-2.122,3.995-4.83,8.156-8.796,10.548
					c-2.704,1.631-5.429,2.255-8.285,2.337c-1.779-0.26-3.448-0.868-4.81-1.894c-3.492-2.63-3.689-7.014-4.585-10.93
					c-0.335-1.461-0.832-2.876-1.376-4.27c-0.644-1.65-1.976-3.484-1.98-5.309C135.308,20.138,135.487,19.762,135.764,19.501z"/>
				<path style="opacity:0.6;fill:#D9D9DB;" d="M147.767,15.526c0.034,4.049-0.517,7.833-1.83,11.604
					c-0.354-0.51-0.716-1.015-1.083-1.519c1.342-2.707,2.148-10.453,2.166-11.499c0.024-1.403-0.161-2.842-0.059-4.238
					c-0.002-0.452,0.054-0.887,0.152-1.312C147.064,10.862,147.748,13.313,147.767,15.526z"/>
				<path style="opacity:0.6;fill:#EBEBEC;" d="M150.989,24.247c1.486-1.279,3.498-0.571,5.09-0.263
					c0.857,0.166,2.266,1.017,3.101,1.279c1.677,0.523,3.238,1.462,3.891,3.174c0.336,0.882-0.473,1.791-1.355,1.981
					c-0.926,0.198-1.879,0.26-2.825,0.174c-1.741-0.158-3.053-0.752-4.504-1.704c-1.256-0.824-2.786-1.899-3.476-3.271
					C150.578,24.951,150.673,24.519,150.989,24.247z"/>
				<path style="opacity:0.6;fill:#D9D9DB;" d="M137.73,24.647c1.904,3.543,1.663,7.249,2.605,11.025
					c0.398,1.599,0.979,3.17,1.798,4.517c-2.431-2.657-2.681-6.466-3.469-9.914c-0.335-1.461-0.832-2.876-1.376-4.27
					c-0.644-1.65-1.976-3.484-1.98-5.309c0-0.114,0.011-0.216,0.026-0.316C135.637,21.861,136.837,22.985,137.73,24.647z"/>
			</g>
		</g>
		<path style="fill:#C9CACC;" d="M150.05,22.716c0.034-0.004,0.067-0.011,0.102-0.016c1.099-2.515,2.126-5.446,2.592-8.197
			c0.059,0.274,0.105,0.551,0.13,0.833c-0.242,2.5-1.321,5.183-2.405,7.321c1.809-0.167,3.722,0.188,5.433,0.728
			c1.735-3.881,2.726-8.004,3.926-12.064c-0.008,0.168-0.022,0.334-0.032,0.501c-0.078,0.88-0.184,1.757-0.404,2.615
			c-0.184,0.719-0.381,1.431-0.553,2.15c-0.69,2.347-1.553,4.636-2.663,6.885c0.084,0.028,0.173,0.053,0.257,0.082
			c1.247,0.43,3.306,1.018,4.971,1.909c1.075-2.306,1.745-4.755,2.4-7.213c0.438-1.64,0.879-3.47,2.001-4.716
			c0.212-0.133,0.425-0.265,0.645-0.381c-1.765,1.646-2.207,4.672-2.721,6.892c-0.434,1.875-1.068,3.861-2.033,5.577
			c0.527,0.303,0.986,0.645,1.367,1.02C159.356,24.251,154.497,22.927,150.05,22.716z"/>
		<path style="fill:#C9CACC;" d="M144.515,25.16c1.751,2.209,3.48,4.389,4.249,7.154c0.485,1.742-0.003,5.293-1.547,6.497
			c-0.058,0.044-0.178-0.054-0.131-0.116c0.008-0.01,0.016-0.02,0.024-0.03c0.042-0.054,0.126,0.044,0.119,0.089
			c0.25-1.897,1.309-3.636,1.213-5.787c-0.132-2.975-2.718-5.354-4.099-7.762C144.266,25.069,144.454,25.082,144.515,25.16z"/>
		<path style="opacity:0.5;fill:#EBEBEC;" d="M158.25,69.926c0,0-10.013,13.248-20.036,21.007c0,0-0.475-1.814,1.096-4.1
			c1.572-2.286,12.74-14.168,12.74-14.168L158.25,69.926z"/>
		<path style="fill:#EBEBEC;" d="M149.902,42.619c3.35-0.344,5.641-1.285,8.243-3.446c2.215-1.84,4.003-4.269,5.589-6.656
			c3.432-5.166,6.728-12.713,5.559-19.031c-0.017-0.091,0.11-0.036,0.125,0.021c1.724,6.41-1.455,13.482-4.556,18.976
			c-2.932,5.194-8.532,10.634-14.878,10.332C149.907,42.809,149.779,42.631,149.902,42.619z"/>
	</g>
	<path style="fill:#EBEBEC;" d="M50.077,138.04c0,0-2.972,3.844-2.857,10.121c0.115,6.276,32.795,18.121,41.216,19.805
		c8.421,1.685,37.785-14.978,37.544-21.492c-0.241-6.515-1.224-9.25-5.169-9.387C116.866,136.952,50.077,138.04,50.077,138.04z"/>
	<path style="fill:#EBEBEC;" d="M53.46,151.603c-0.573-4.565-0.413-9.074-0.379-13.61c-1.91,0.03-3.005,0.047-3.005,0.047
		s-2.972,3.844-2.857,10.121c0.032,1.781,2.688,4.011,6.666,6.329C53.719,153.524,53.581,152.558,53.46,151.603z"/>
	<path style="fill:#EBEBEC;" d="M120.811,137.088c-0.409-0.014-1.5-0.015-3.118-0.005c0.011,0.087,0.027,0.173,0.037,0.261
		c0.309,2.624,0.544,5.298,0.51,7.943c-0.045,3.493-0.415,6.971-0.61,10.455c4.944-3.517,8.435-7.005,8.351-9.268
		C125.74,139.959,124.756,137.224,120.811,137.088z"/>
	<path style="fill:#D3D4D5;" d="M124.461,73.639c-2.842-7.644-28.85-7.829-28.85-7.829l-8.601,0.205l-8.6-0.205
		c0,0-26.007,0.185-28.85,7.829c-2.843,7.645-2.61,62.711,0.742,67.297c2.3,3.148,14.422,6.924,27.692,8.687
		c2.981,0.396,5.733,0.395,8.731,0.557c2.998-0.162,6.321-0.161,9.302-0.557c13.27-1.764,25.393-5.54,27.693-8.687
		C127.071,136.35,127.303,81.284,124.461,73.639z"/>
	<path style="fill:#EBEBEC;" d="M122.39,73.207c-2.685-7.222-27.255-7.397-27.255-7.397l-8.126,0.193l-8.125-0.193
		c0,0-24.569,0.175-27.255,7.397c-2.686,7.22-2.466,59.242,0.7,63.575c2.173,2.973,13.626,6.541,26.163,8.207
		c2.816,0.373,5.416,0.373,8.248,0.527c2.832-0.154,5.971-0.154,8.788-0.527c12.537-1.666,23.989-5.234,26.162-8.207
		C124.857,132.449,125.076,80.427,122.39,73.207z"/>
	<path style="opacity:0.5;fill:#D9D9DB;" d="M88.605,145.492c-10.338,0.314-20.92-2.053-29.332-8.324
		c-5.264-3.924-8.797-8.815-11.299-14.333c0.423,9.268,1.198,16.554,2.327,18.1c2.3,3.148,14.422,6.924,27.692,8.687
		c2.981,0.396,5.733,0.395,8.731,0.557c2.998-0.162,6.321-0.161,9.302-0.557c13.27-1.764,25.393-5.54,27.693-8.687
		c0.882-1.208,1.548-5.917,1.999-12.336C117.323,139.734,102.353,145.074,88.605,145.492z"/>
	<path style="fill:#C9CACC;" d="M87.456,80.444c7.329-0.163,14.655-1.721,21.526-4.259c3.893-1.439,8.532-3.088,11.437-6.269
		c-8.094-3.987-24.808-4.106-24.808-4.106l-8.601,0.205l-8.6-0.205c0,0-15.549,0.112-23.916,3.696
		C62.993,77.618,76,80.7,87.456,80.444z"/>
	<g>
		<g>
			<path style="fill:#EBEBEC;" d="M62.583,51.949c0,5.545-4.496,10.041-10.043,10.041l0,0c-5.545,0-10.042-4.496-10.042-10.041
				v-7.047c0-5.546,4.497-10.042,10.042-10.042l0,0c5.547,0,10.043,4.496,10.043,10.042V51.949z"/>
			<path style="fill:#C7C8CA;" d="M61.583,51.597c0,4.993-4.049,9.042-9.042,9.042l0,0c-4.994,0-9.043-4.049-9.043-9.042v-6.345
				c0-4.993,4.049-9.042,9.043-9.042l0,0c4.994,0,9.042,4.049,9.042,9.042V51.597z"/>
			<g>
				<path style="fill:#2A416F;" d="M49.789,41.483c0,1.131-0.917,2.049-2.049,2.049c-1.131,0-2.048-0.918-2.048-2.049
					c0-1.131,0.917-2.048,2.048-2.048C48.872,39.435,49.789,40.352,49.789,41.483z"/>
				<path style="fill:#FFFFFF;" d="M47.918,40.749c0,0.307-0.249,0.556-0.557,0.556c-0.307,0-0.556-0.249-0.556-0.556
					c0-0.308,0.249-0.556,0.556-0.556C47.669,40.193,47.918,40.441,47.918,40.749z"/>
				<path style="fill:#FFFFFF;" d="M46.805,41.919c0,0.14-0.115,0.256-0.256,0.256c-0.141,0-0.257-0.116-0.257-0.256
					c0-0.142,0.116-0.256,0.257-0.256C46.69,41.663,46.805,41.777,46.805,41.919z"/>
			</g>
			<g>
				<path style="fill:#2A416F;" d="M49.41,50.1c0,1.132-0.917,2.049-2.049,2.049c-1.131,0-2.048-0.917-2.048-2.049
					c0-1.132,0.917-2.049,2.048-2.049C48.493,48.051,49.41,48.968,49.41,50.1z"/>
				<path style="fill:#FFFFFF;" d="M47.539,49.366c0,0.307-0.249,0.557-0.557,0.557c-0.307,0-0.556-0.25-0.556-0.557
					c0-0.307,0.249-0.557,0.556-0.557C47.29,48.809,47.539,49.059,47.539,49.366z"/>
				<path style="fill:#FFFFFF;" d="M46.426,50.535c0,0.141-0.115,0.256-0.256,0.256c-0.141,0-0.257-0.115-0.257-0.256
					c0-0.141,0.115-0.256,0.257-0.256C46.311,50.279,46.426,50.394,46.426,50.535z"/>
			</g>
			<path style="fill:#C9CACC;" d="M52.541,34.86c-1.084,0-2.126,0.176-3.105,0.494c-1.389,4.426-1.66,9.106-1.337,13.755
				c0.189,2.735,0.36,5.483,0.701,8.203c0.169,1.352,0.305,2.773,0.566,4.156c0.998,0.333,2.064,0.521,3.175,0.521
				c5.547,0,10.043-4.496,10.043-10.041v-7.047C62.583,39.356,58.088,34.86,52.541,34.86z"/>
		</g>
		<g>
			<path style="fill:#EBEBEC;" d="M111.438,51.949c0,5.545,4.496,10.041,10.043,10.041l0,0c5.545,0,10.042-4.496,10.042-10.041
				v-7.047c0-5.546-4.497-10.042-10.042-10.042l0,0c-5.547,0-10.043,4.496-10.043,10.042V51.949z"/>
			<path style="fill:#C7C8CA;" d="M112.438,51.597c0,4.993,4.049,9.042,9.042,9.042l0,0c4.994,0,9.043-4.049,9.043-9.042v-6.345
				c0-4.993-4.049-9.042-9.043-9.042l0,0c-4.994,0-9.042,4.049-9.042,9.042V51.597z"/>
			<g>
				<path style="fill:#2A416F;" d="M124.232,41.483c0,1.131,0.917,2.049,2.049,2.049c1.131,0,2.048-0.918,2.048-2.049
					c0-1.131-0.917-2.048-2.048-2.048C125.149,39.435,124.232,40.352,124.232,41.483z"/>
				<path style="fill:#FFFFFF;" d="M126.103,40.749c0,0.307,0.249,0.556,0.557,0.556c0.307,0,0.556-0.249,0.556-0.556
					c0-0.308-0.249-0.556-0.556-0.556C126.352,40.193,126.103,40.441,126.103,40.749z"/>
				<path style="fill:#FFFFFF;" d="M127.216,41.919c0,0.14,0.115,0.256,0.256,0.256c0.141,0,0.256-0.116,0.256-0.256
					c0-0.142-0.115-0.256-0.256-0.256C127.331,41.663,127.216,41.777,127.216,41.919z"/>
			</g>
			<g>
				<path style="fill:#2A416F;" d="M124.611,50.1c0,1.132,0.917,2.049,2.049,2.049c1.131,0,2.048-0.917,2.048-2.049
					c0-1.132-0.917-2.049-2.048-2.049C125.528,48.051,124.611,48.968,124.611,50.1z"/>
				<path style="fill:#FFFFFF;" d="M126.482,49.366c0,0.307,0.249,0.557,0.557,0.557c0.307,0,0.556-0.25,0.556-0.557
					c0-0.307-0.249-0.557-0.556-0.557C126.731,48.809,126.482,49.059,126.482,49.366z"/>
				<path style="fill:#FFFFFF;" d="M127.595,50.535c0,0.141,0.115,0.256,0.256,0.256s0.256-0.115,0.256-0.256
					c0-0.141-0.115-0.256-0.256-0.256S127.595,50.394,127.595,50.535z"/>
			</g>
			<path style="fill:#C9CACC;" d="M121.48,34.86c1.084,0,2.126,0.176,3.105,0.494c1.389,4.426,1.66,9.106,1.338,13.755
				c-0.189,2.735-0.36,5.483-0.701,8.203c-0.169,1.352-0.305,2.773-0.566,4.156c-0.998,0.333-2.065,0.521-3.175,0.521
				c-5.547,0-10.043-4.496-10.043-10.041v-7.047C111.438,39.356,115.933,34.86,121.48,34.86z"/>
		</g>
		<g>
			<path style="fill:#EBEBEC;" d="M91.561,5.14c-1.544-0.188-3.138-0.292-4.783-0.303c-1.644,0.011-3.238,0.116-4.782,0.303
				C61.71,7.605,50.155,24.665,50.155,41.945c0,19.609,2.262,27.628,20.056,33.236c3.857,1.216,10.318,2.439,16.89,2.156
				c6.573,0.283,12.39-0.94,16.246-2.156c17.794-5.608,20.056-13.626,20.056-33.236C123.402,24.665,111.847,7.605,91.561,5.14z"/>
			<path style="fill:#D9D9DB;" d="M52.267,60.994c2.432,6.785,7.52,10.902,17.944,14.187c3.857,1.216,10.318,2.439,16.89,2.156
				c6.573,0.283,12.39-0.94,16.246-2.156c11.11-3.501,16.164-7.942,18.394-15.557C99.663,51.763,74.295,53.097,52.267,60.994z"/>
			<path style="opacity:0.5;fill:#C9CACC;" d="M55.329,32.219c1.365,0.432,1.644-1.451,2.173-2.47
				c1.239-2.391,2.609-4.727,4.234-6.879c2.974-3.937,6.519-7.283,10.832-9.694c-0.819-1.559-1.878-2.934-3.015-4.253
				c-8.887,4.594-14.944,12.603-17.701,21.653C52.971,31.217,54.119,31.838,55.329,32.219z"/>
			<path style="opacity:0.5;fill:#C9CACC;" d="M112.502,23.421c0.932,1.661,1.811,3.348,2.635,5.058
				c0.036-0.03,0.072-0.063,0.11-0.093c1.406-1.142,2.857-2.224,4.276-3.346c-2.258-4.657-5.464-8.861-9.562-12.206
				c-0.968,1.074-1.955,2.132-2.919,3.206C109.021,18.361,110.972,20.694,112.502,23.421z"/>
			<path style="fill:#C9CACC;" d="M117.496,43.939c0,16.124-13.752,29.195-30.718,29.195c-16.966,0-30.718-13.07-30.718-29.195
				c0-16.124,13.752-29.196,30.718-29.196C103.744,14.744,117.496,27.815,117.496,43.939z"/>
			<g>
				<radialGradient id="SVGID_1_" cx="76.4935" cy="43.7231" r="37.4916" gradientUnits="userSpaceOnUse">
					<stop  offset="0.1486" style="stop-color:#21687E"/>
					<stop  offset="0.491" style="stop-color:#023F5F"/>
					<stop  offset="0.9801" style="stop-color:#000000"/>
				</radialGradient>
				<path style="fill:url(#SVGID_1_);" d="M115.64,42.175c0,15.149-12.922,27.43-28.861,27.43c-15.94,0-28.86-12.281-28.86-27.43
					c0-15.15,12.921-27.431,28.86-27.431C102.718,14.744,115.64,27.025,115.64,42.175z"/>
				
					<radialGradient id="SVGID_00000178918324497995070930000012986669515877273516_" cx="85.3025" cy="0.1176" r="74.9038" gradientUnits="userSpaceOnUse">
					<stop  offset="0.2849" style="stop-color:#21687E"/>
					<stop  offset="0.4225" style="stop-color:#0D3B59"/>
					<stop  offset="0.5885" style="stop-color:#05294A"/>
					<stop  offset="0.7076" style="stop-color:#031B31"/>
					<stop  offset="0.8978" style="stop-color:#01070D"/>
					<stop  offset="1" style="stop-color:#000000"/>
				</radialGradient>
				<path style="fill:url(#SVGID_00000178918324497995070930000012986669515877273516_);" d="M112.51,29.756
					c1.497,3.609,2.187,7.535,1.711,11.764c-1.106,9.811-8.769,17.522-18.013,20.192c-8.433,2.435-18.993,2.291-26.715-2.32
					C57.765,52.389,56.78,38.2,62.54,27.294c-2.92,4.287-4.622,9.393-4.622,14.881c0,15.149,12.921,27.43,28.86,27.43
					c15.94,0,28.861-12.281,28.861-27.43C115.64,37.704,114.506,33.485,112.51,29.756z"/>
				
					<radialGradient id="SVGID_00000113350940738465674880000014383832374795414172_" cx="52.4439" cy="21.145" r="47.0864" gradientUnits="userSpaceOnUse">
					<stop  offset="0.2851" style="stop-color:#FFFFFF"/>
					<stop  offset="0.6912" style="stop-color:#6C6C6C"/>
					<stop  offset="1" style="stop-color:#000000"/>
				</radialGradient>
				<path style="fill:url(#SVGID_00000113350940738465674880000014383832374795414172_);" d="M61.881,47.635
					c0.215,1.607,0.536,3.192,0.995,4.725c0.386,1.292,0.864,2.529,1.408,3.728c1.259,1.095,2.586,2.13,3.986,3.116
					c2.244,1.578,4.575,3.097,7.052,4.277c-2.361-3.753-3.962-8.026-4.75-12.425C67.625,50.019,64.671,49.008,61.881,47.635z"/>
				
					<radialGradient id="SVGID_00000039122385475176934720000003292062278753581185_" cx="52.4453" cy="21.1451" r="47.0859" gradientUnits="userSpaceOnUse">
					<stop  offset="0.2851" style="stop-color:#FFFFFF"/>
					<stop  offset="0.6912" style="stop-color:#6C6C6C"/>
					<stop  offset="1" style="stop-color:#000000"/>
				</radialGradient>
				<path style="fill:url(#SVGID_00000039122385475176934720000003292062278753581185_);" d="M84.823,17.105
					c-8.154,1.062-16.204,5.381-20.109,12.883c-2.192,4.212-3.21,9.064-3.135,13.881c2.599,1.058,5.353,1.866,7.984,2.687
					c0.164,0.051,0.331,0.102,0.495,0.153c-0.138-2.47-0.023-4.937,0.37-7.338c1.094-6.686,4.236-13.051,9.688-17.234
					c2.987-2.292,6.475-4.142,10.158-5.246C88.453,16.815,86.628,16.87,84.823,17.105z"/>
			</g>
		</g>
	</g>
	<path style="fill:#C6C8D0;" d="M107.135,87.464h-5.587H71.934h-5.588c-5.536,0-6.441,4.274-7.103,7.672v19.687v15.431v0.569h0.113
		c0.663,3.286,1.759,7.104,6.99,7.104h5.588h29.614h5.587c5.231,0,6.328-3.817,6.991-7.104h0.113v-0.569v-15.431V95.135
		C113.578,91.738,112.671,87.464,107.135,87.464z"/>
	<path style="fill:#EBEBEC;" d="M106.201,88.265h-5.257H73.077H67.82c-5.209,0-6.062,4.022-6.684,7.219v18.526v14.52v0.535h0.106
		c0.623,3.093,1.656,6.685,6.578,6.685h5.257h27.867h5.257c4.922,0,5.954-3.592,6.578-6.685h0.106v-0.535v-14.52V95.484
		C112.263,92.287,111.41,88.265,106.201,88.265z"/>
	<g>
		<path style="fill:#C7C8CA;" d="M107.758,119.587h-1.216h-6.447h-1.216c-1.206,0-1.404,0.932-1.548,1.671v4.286v3.36v0.124h0.025
			c0.145,0.715,0.384,1.547,1.523,1.547h1.216h6.447h1.216c1.14,0,1.378-0.832,1.523-1.547h0.025v-0.124v-3.36v-4.286
			C109.162,120.519,108.964,119.587,107.758,119.587z"/>
		<path style="fill:#EBEBEC;" d="M107.158,120.121h-1.051h-5.576h-1.051c-1.043,0-1.214,0.805-1.338,1.445v3.707v2.904v0.108h0.021
			c0.125,0.618,0.332,1.338,1.317,1.338h1.051h5.576h1.051c0.985,0,1.192-0.719,1.317-1.338h0.021v-0.108v-2.904v-3.707
			C108.371,120.926,108.201,120.121,107.158,120.121z"/>
		<path style="fill:#EBEBEC;" d="M106.377,120.822h-0.838h-4.442h-0.837c-0.83,0-0.966,0.233-1.065,0.418v1.071v0.841v0.03h0.017
			c0.099,0.178,0.263,0.386,1.048,0.386h0.837h4.442h0.838c0.784,0,0.949-0.208,1.048-0.386h0.017v-0.03v-0.841v-1.071
			C107.344,121.055,107.207,120.822,106.377,120.822z"/>
		<path style="fill:#EBEBEC;" d="M106.219,91.918h-2.368H91.299h-2.368c-0.534,0-2.084,0-2.618,0h-2.368H71.392h-2.368
			c-2.347,0-2.731,1.17-3.011,2.098v5.384v4.219v0.157h0.047c0.281,0.898,0.746,1.942,2.964,1.942h2.368h12.552h2.368
			c0.532,0,2.086,0,2.618,0h2.368h12.552h2.368c2.217,0,2.683-1.044,2.964-1.942h0.047v-0.157v-4.219v-5.384
			C108.95,93.088,108.566,91.918,106.219,91.918z"/>
		<path style="fill:#C7C8CA;" d="M94.692,119.587h-1.216h-6.447h-1.216c-1.206,0-1.404,0.932-1.548,1.671v4.286v3.36v0.124h0.025
			c0.145,0.715,0.383,1.547,1.523,1.547h1.216h6.447h1.216c1.14,0,1.378-0.832,1.523-1.547h0.024v-0.124v-3.36v-4.286
			C96.096,120.519,95.898,119.587,94.692,119.587z"/>
		<path style="fill:#EBEBEC;" d="M94.091,120.121H93.04h-5.576h-1.051c-1.043,0-1.214,0.805-1.338,1.445v3.707v2.904v0.108h0.021
			c0.125,0.618,0.332,1.338,1.317,1.338h1.051h5.576h1.051c0.985,0,1.192-0.719,1.317-1.338h0.021v-0.108v-2.904v-3.707
			C95.304,120.926,95.134,120.121,94.091,120.121z"/>
		<path style="fill:#EBEBEC;" d="M93.311,120.822h-0.838h-4.442h-0.837c-0.83,0-0.966,0.233-1.065,0.418v1.071v0.841v0.03h0.017
			c0.099,0.178,0.263,0.386,1.048,0.386h0.837h4.442h0.838c0.784,0,0.948-0.208,1.048-0.386h0.017v-0.03v-0.841v-1.071
			C94.277,121.055,94.141,120.822,93.311,120.822z"/>
		<g>
			<path style="fill:#D9D9DB;" d="M92.534,112.606c0,1.501-1.216,2.717-2.717,2.717l0,0c-1.5,0-2.717-1.216-2.717-2.717l0,0
				c0-1.501,1.216-2.718,2.717-2.718l0,0C91.318,109.888,92.534,111.104,92.534,112.606L92.534,112.606z"/>
			<path style="fill:#D9D9DB;" d="M100.048,112.606c0,1.501-1.216,2.717-2.717,2.717l0,0c-1.501,0-2.717-1.216-2.717-2.717l0,0
				c0-1.501,1.216-2.718,2.717-2.718l0,0C98.831,109.888,100.048,111.104,100.048,112.606L100.048,112.606z"/>
			<path style="fill:#D9D9DB;" d="M107.561,112.606c0,1.501-1.216,2.717-2.717,2.717l0,0c-1.501,0-2.717-1.216-2.717-2.717l0,0
				c0-1.501,1.216-2.718,2.717-2.718l0,0C106.345,109.888,107.561,111.104,107.561,112.606L107.561,112.606z"/>
		</g>
		<rect x="66.146" y="108.601" style="fill:#D9D9DB;" width="15.631" height="22.533"/>
		<g>
			<g>
				<rect x="67.371" y="110.557" style="fill:#EBEBEC;" width="4.098" height="4.097"/>
				<rect x="71.914" y="110.557" style="fill:#EBEBEC;" width="4.097" height="4.097"/>
				<rect x="76.455" y="110.557" style="fill:#EBEBEC;" width="4.098" height="4.097"/>
				<rect x="67.371" y="115.37" style="fill:#EBEBEC;" width="4.098" height="4.096"/>
				<rect x="71.914" y="115.37" style="fill:#EBEBEC;" width="4.097" height="4.096"/>
				<rect x="76.455" y="115.37" style="fill:#EBEBEC;" width="4.098" height="4.096"/>
			</g>
			<g>
				<rect x="67.371" y="120.268" style="fill:#EBEBEC;" width="4.098" height="4.098"/>
				<rect x="71.914" y="120.268" style="fill:#EBEBEC;" width="4.097" height="4.098"/>
				<rect x="76.455" y="120.268" style="fill:#EBEBEC;" width="4.098" height="4.098"/>
				<rect x="67.371" y="125.081" style="fill:#EBEBEC;" width="4.098" height="4.098"/>
				<rect x="71.914" y="125.081" style="fill:#EBEBEC;" width="4.097" height="4.098"/>
				<rect x="76.455" y="125.081" style="fill:#EBEBEC;" width="4.098" height="4.098"/>
			</g>
		</g>
		
			<linearGradient id="SVGID_00000000907855931401288230000010645410464841310892_" gradientUnits="userSpaceOnUse" x1="91.7283" y1="88.3369" x2="91.7283" y2="107.5843">
			<stop  offset="0.1486" style="stop-color:#21687E"/>
			<stop  offset="0.491" style="stop-color:#023F5F"/>
			<stop  offset="0.9801" style="stop-color:#000000"/>
		</linearGradient>
		<path style="fill:url(#SVGID_00000000907855931401288230000010645410464841310892_);" d="M105.849,93.579h-1.798h-9.53h-1.799
			c-0.406,0-1.581,0-1.987,0h-1.798h-9.531h-1.799c-1.781,0-2.073,0.889-2.286,1.594v4.087v3.204v0.119h0.037
			c0.212,0.682,0.566,1.475,2.249,1.475h1.799h9.531h1.798c0.404,0,1.584,0,1.987,0h1.799h9.53h1.798
			c1.684,0,2.037-0.793,2.251-1.475h0.036v-0.119v-3.204v-4.087C107.923,94.468,107.632,93.579,105.849,93.579z"/>
		<path style="fill:#6B6C6F;" d="M90.649,98.818c4.088-0.087,8.224-0.382,12.189-1.446c1.381-0.371,2.889-0.773,4.252-1.4v-0.566
			c-0.2-0.661-0.473-1.492-2.141-1.492H78.507c-1.668,0-1.942,0.831-2.141,1.492v0.733C80.2,99.066,86.096,98.915,90.649,98.818z"/>
	</g>
	<g>
		<path style="fill:#BEBFC1;" d="M83.675,230.019c-0.483-4.203-2.768-8.745-6.578-10.857c-5.668-3.143-13.08,0.712-17.018,4.913
			c-2.392,2.553-4.048,5.322-5.131,8.645c-0.494,1.516-0.852,3.077-1.21,4.634c-0.391,1.118-0.783,2.237-1.153,3.365
			c-0.945,2.895-1.487,5.915-2.054,8.902c-0.917,4.834-1.608,9.986-0.307,14.813c2.374,8.813,13.649,10.716,20.586,6.318
			c3.591-2.275,6.006-6.008,7.597-9.863c0.962-2.33,1.57-4.803,2.138-7.251c0.694-2.998,1.502-5.956,2.079-8.983
			C83.529,239.912,84.23,234.844,83.675,230.019z"/>
		<path style="fill:#EBEBEC;" d="M74.02,238.479c4.224-2.828,7.428-6.926,8.447-11.988c0.047-0.237,0.079-0.474,0.119-0.711
			c-1.104-2.737-2.957-5.215-5.489-6.618c-5.668-3.143-13.08,0.712-17.018,4.913c-2.392,2.553-4.048,5.322-5.131,8.645
			c-0.244,0.748-0.455,1.507-0.648,2.271C58.851,241.224,67.112,243.103,74.02,238.479z"/>
		<path style="fill:#EBEBEC;" d="M63.204,248.287c-4.16-0.296-8.792-0.179-12.685,1.402c-0.909,4.815-1.588,9.942-0.294,14.746
			c2.374,8.813,13.649,10.716,20.586,6.318c3.591-2.275,6.006-6.008,7.597-9.863c0.714-1.73,1.233-3.537,1.685-5.356
			C75.237,251.549,69.827,248.76,63.204,248.287z"/>
		<path style="fill:#D9D9DB;" d="M83.675,230.019c-0.483-4.203-2.768-8.745-6.578-10.857c-0.885-0.491-1.812-0.812-2.762-0.986
			c3.01,1.519,5.358,4.406,6.572,8.038c2.391,7.147,0.231,15.498-1.966,22.455c-2.496,7.902-6.798,15.517-15.092,18.362
			c-3.48,1.195-8.222,1.831-11.253-0.827c-1.514-1.329-2.339-3.079-2.947-4.931c0.112,1.065,0.296,2.121,0.576,3.162
			c2.374,8.813,13.649,10.716,20.586,6.318c3.591-2.275,6.006-6.008,7.597-9.863c0.962-2.33,1.57-4.803,2.138-7.251
			c0.694-2.998,1.502-5.956,2.079-8.983C83.529,239.912,84.23,234.844,83.675,230.019z"/>
		<path style="fill:#D9D9DB;" d="M70.576,237.12c3.263-1.351,6.368-3.545,7.821-6.879c0.565-1.297,0.888-2.637,1.057-3.999
			c-0.034-0.242-0.077-0.481-0.132-0.719c-6.13-26.229-8.951-26.606-4.798-35.829c4.152-9.224,11.312-22.984,9.01-26.239
			c-7.372-10.429-26.131-16.596-26.131-16.596s-7.193-1.249-8.952,1.148c-1.76,2.396-14.498,31.231-11.331,46.947
			c2.542,12.617,13.815,32.434,18.162,39.76C59.037,238.762,65.241,239.329,70.576,237.12z"/>
		<path style="fill:#EBEBEC;" d="M49.506,197.407c5.44-0.443,10.706-4.702,9.303-10.724c-1.841-7.894-13.273-12.545-20.745-9.444
			c-1.347,6.384-1.951,12.713-0.944,17.715c0.006,0.031,0.014,0.063,0.021,0.095C41.02,196.708,45.396,197.742,49.506,197.407z"/>
		<path style="fill:#D9D9DB;" d="M45.554,194.176c3.772-0.308,7.423-3.261,6.449-7.436c-1.275-5.472-9.201-8.697-14.381-6.548
			c-0.934,4.427-1.353,8.814-0.654,12.282c0.004,0.022,0.009,0.044,0.013,0.065C39.669,193.691,42.704,194.408,45.554,194.176z"/>
		<path style="fill:#EBEBEC;" d="M57.605,171.576c7.167,2.013,15.133,5.643,19.891,11.69c3.822-8.226,7.847-17.255,6.04-19.811
			c-7.372-10.429-26.131-16.596-26.131-16.596s-7.193-1.249-8.952,1.148c-1.027,1.398-5.788,11.791-8.95,23.329
			C45.136,169.201,52.04,170.014,57.605,171.576z"/>
		<path style="fill:#EBEBEC;" d="M56.515,211.83c4.275-0.474,8.427-2.011,11.869-4.621c1.485-1.125,3.585-2.753,4.99-4.626
			c-0.839-3.5-1.063-5.741-0.511-8.238c-5.784,3.279-13.071,4.418-19.432,4.651c-4.774,0.174-11.725-0.027-16.102-3.084
			c0.736,3.215,1.985,6.843,3.509,10.583C44.869,210.675,50.378,212.51,56.515,211.83z"/>
		<path style="fill:#FFFFFF;" d="M56.67,201.626c5.751-0.765,11.766-2.938,16.123-6.9c0.025-0.127,0.042-0.252,0.07-0.381
			c-5.784,3.279-13.071,4.418-19.432,4.651c-4.774,0.174-11.725-0.027-16.102-3.084c0.278,1.22,0.633,2.5,1.048,3.822
			C43.662,202.556,51.158,202.36,56.67,201.626z"/>
		<path style="opacity:0.5;fill:#D9D9DB;" d="M74.525,189.694c4.152-9.224,11.312-22.984,9.01-26.239
			c-7.372-10.429-26.131-16.596-26.131-16.596s-2.902-0.502-5.472-0.256c0.915,0.071,1.861,0.274,2.81,0.604
			c3.373,1.172,6.472,3.117,9.217,5.384c2.284,1.885,5.11,4.291,5.946,7.276c1.42,5.074-2.111,10.838-4.139,15.314
			c-2.738,6.046-5.455,12.924-5.712,19.641c-0.25,6.57,2.23,12.988,4.859,18.898c1.298,2.918,2.687,5.793,4.028,8.691
			c1.067,2.305,2.51,4.649,3.156,7.118c1.059,4.04-0.665,6.61-3.437,8.251c0.646-0.182,1.286-0.4,1.915-0.66
			c3.263-1.351,6.368-3.545,7.821-6.879c0.565-1.297,0.888-2.637,1.057-3.999c-0.034-0.242-0.077-0.481-0.132-0.719
			C73.193,199.294,70.372,198.917,74.525,189.694z"/>
		<path style="opacity:0.5;fill:#EBEBEC;" d="M50.833,149.257c0,0-14.945,31.473-12.47,44.356
			c2.475,12.883,18.169,39.725,18.169,39.725s-15.318-30.6-16.209-42.623c-0.892-12.023,17.595-38.134,17.595-38.134L50.833,149.257
			z"/>
		<path style="fill:#FFFFFF;" d="M72.246,245.656c-0.138,0-0.278-0.022-0.417-0.067c-11.255-3.69-17.145-0.474-17.203-0.441
			c-0.642,0.364-1.458,0.138-1.821-0.504c-0.364-0.642-0.138-1.457,0.504-1.821c0.278-0.159,6.987-3.831,19.353,0.227
			c0.701,0.229,1.084,0.984,0.853,1.686C73.331,245.298,72.808,245.656,72.246,245.656z"/>
		<path style="fill:#FFFFFF;" d="M71.538,251.597c-0.158,0-0.318-0.028-0.475-0.088c-11.589-4.409-18.004-1.101-18.067-1.067
			c-0.651,0.349-1.46,0.104-1.808-0.548c-0.348-0.65-0.102-1.461,0.547-1.807c0.303-0.163,7.563-3.912,20.278,0.924
			c0.689,0.262,1.035,1.034,0.774,1.724C72.585,251.268,72.077,251.597,71.538,251.597z"/>
	</g>
	<g>
		<path style="fill:#BEBFC1;" d="M91.913,244.656c0.576,3.027,1.385,5.985,2.078,8.983c0.568,2.449,1.176,4.921,2.139,7.251
			c1.591,3.855,4.005,7.587,7.597,9.863c6.936,4.397,18.212,2.495,20.586-6.318c1.3-4.827,0.609-9.979-0.307-14.813
			c-0.566-2.988-1.11-6.008-2.055-8.902c-0.368-1.127-0.761-2.247-1.153-3.365c-0.357-1.557-0.715-3.118-1.209-4.634
			c-1.084-3.323-2.741-6.092-5.132-8.645c-3.937-4.201-11.348-8.057-17.018-4.913c-3.808,2.111-6.093,6.654-6.576,10.857
			C90.307,234.844,91.008,239.912,91.913,244.656z"/>
		<path style="fill:#EBEBEC;" d="M100.518,238.479c-4.223-2.828-7.428-6.926-8.447-11.988c-0.048-0.237-0.079-0.474-0.119-0.711
			c1.104-2.737,2.956-5.215,5.488-6.618c5.67-3.143,13.082,0.712,17.018,4.913c2.391,2.553,4.049,5.322,5.132,8.645
			c0.243,0.748,0.453,1.507,0.648,2.271C115.687,241.224,107.425,243.103,100.518,238.479z"/>
		<path style="fill:#EBEBEC;" d="M111.334,248.287c4.16-0.296,8.792-0.179,12.684,1.402c0.911,4.815,1.59,9.942,0.295,14.746
			c-2.374,8.813-13.65,10.716-20.586,6.318c-3.592-2.275-6.006-6.008-7.597-9.863c-0.714-1.73-1.233-3.537-1.686-5.356
			C99.301,251.549,104.71,248.76,111.334,248.287z"/>
		<path style="fill:#D9D9DB;" d="M90.863,230.019c0.483-4.203,2.768-8.745,6.576-10.857c0.886-0.491,1.813-0.812,2.764-0.986
			c-3.01,1.519-5.358,4.406-6.573,8.038c-2.392,7.147-0.231,15.498,1.967,22.455c2.496,7.902,6.797,15.517,15.093,18.362
			c3.48,1.195,8.222,1.831,11.252-0.827c1.514-1.329,2.339-3.079,2.948-4.931c-0.113,1.065-0.296,2.121-0.576,3.162
			c-2.374,8.813-13.65,10.716-20.586,6.318c-3.592-2.275-6.006-6.008-7.597-9.863c-0.963-2.33-1.571-4.803-2.139-7.251
			c-0.693-2.998-1.502-5.956-2.078-8.983C91.008,239.912,90.307,234.844,90.863,230.019z"/>
		<path style="fill:#D9D9DB;" d="M103.962,237.12c-3.264-1.351-6.368-3.545-7.821-6.879c-0.565-1.297-0.889-2.637-1.057-3.999
			c0.034-0.242,0.076-0.481,0.131-0.719c6.131-26.229,8.95-26.606,4.798-35.829c-4.152-9.224-11.311-22.984-9.01-26.239
			c7.372-10.429,26.13-16.596,26.13-16.596s7.193-1.249,8.953,1.148c1.76,2.396,14.497,31.231,11.33,46.947
			c-2.542,12.617-13.815,32.434-18.162,39.76C115.502,238.762,109.297,239.329,103.962,237.12z"/>
		<path style="fill:#EBEBEC;" d="M125.031,197.407c-5.439-0.443-10.706-4.702-9.302-10.724c1.84-7.894,13.272-12.545,20.744-9.444
			c1.347,6.384,1.951,12.713,0.943,17.715c-0.007,0.031-0.014,0.063-0.021,0.095C133.518,196.708,129.142,197.742,125.031,197.407z"
			/>
		<path style="fill:#D9D9DB;" d="M128.984,194.176c-3.771-0.308-7.422-3.261-6.45-7.436c1.276-5.472,9.202-8.697,14.383-6.548
			c0.934,4.427,1.353,8.814,0.654,12.282c-0.004,0.022-0.009,0.044-0.014,0.065C134.868,193.691,131.834,194.408,128.984,194.176z"
			/>
		<path style="fill:#EBEBEC;" d="M116.933,171.576c-7.166,2.013-15.133,5.643-19.89,11.69c-3.823-8.226-7.847-17.255-6.04-19.811
			c7.372-10.429,26.13-16.596,26.13-16.596s7.193-1.249,8.953,1.148c1.026,1.398,5.787,11.791,8.948,23.329
			C129.402,169.201,122.496,170.014,116.933,171.576z"/>
		<path style="fill:#EBEBEC;" d="M118.022,211.83c-4.275-0.474-8.427-2.011-11.869-4.621c-1.484-1.125-3.585-2.753-4.989-4.626
			c0.839-3.5,1.063-5.741,0.511-8.238c5.785,3.279,13.071,4.418,19.433,4.651c4.773,0.174,11.724-0.027,16.102-3.084
			c-0.737,3.215-1.986,6.843-3.509,10.583C129.667,210.675,124.16,212.51,118.022,211.83z"/>
		<path style="fill:#FFFFFF;" d="M117.868,201.626c-5.751-0.765-11.765-2.938-16.122-6.9c-0.024-0.127-0.042-0.252-0.071-0.381
			c5.785,3.279,13.071,4.418,19.433,4.651c4.773,0.174,11.724-0.027,16.102-3.084c-0.28,1.22-0.634,2.5-1.048,3.822
			C130.876,202.556,123.379,202.36,117.868,201.626z"/>
		<path style="opacity:0.5;fill:#D9D9DB;" d="M100.013,189.694c-4.152-9.224-11.311-22.984-9.01-26.239
			c7.372-10.429,26.13-16.596,26.13-16.596s2.902-0.502,5.471-0.256c-0.914,0.071-1.86,0.274-2.809,0.604
			c-3.374,1.172-6.472,3.117-9.217,5.384c-2.285,1.885-5.111,4.291-5.947,7.276c-1.419,5.074,2.112,10.838,4.139,15.314
			c2.738,6.046,5.455,12.924,5.711,19.641c0.252,6.57-2.229,12.988-4.859,18.898c-1.299,2.918-2.686,5.793-4.027,8.691
			c-1.067,2.305-2.51,4.649-3.158,7.118c-1.057,4.04,0.667,6.61,3.438,8.251c-0.647-0.182-1.287-0.4-1.915-0.66
			c-3.264-1.351-6.368-3.545-7.821-6.879c-0.565-1.297-0.889-2.637-1.057-3.999c0.034-0.242,0.076-0.481,0.131-0.719
			C101.345,199.294,104.165,198.917,100.013,189.694z"/>
		<path style="opacity:0.5;fill:#EBEBEC;" d="M123.705,149.257c0,0,14.945,31.473,12.47,44.356
			c-2.474,12.883-18.17,39.725-18.17,39.725s15.319-30.6,16.211-42.623c0.892-12.023-17.596-38.134-17.596-38.134L123.705,149.257z"
			/>
		<path style="fill:#FFFFFF;" d="M102.291,245.656c0.138,0,0.279-0.022,0.417-0.067c11.255-3.69,17.146-0.474,17.204-0.441
			c0.642,0.364,1.457,0.138,1.821-0.504c0.364-0.642,0.137-1.457-0.504-1.821c-0.28-0.159-6.987-3.831-19.354,0.227
			c-0.701,0.229-1.083,0.984-0.853,1.686C101.207,245.298,101.73,245.656,102.291,245.656z"/>
		<path style="fill:#FFFFFF;" d="M102.999,251.597c0.158,0,0.318-0.028,0.476-0.088c11.589-4.409,18.004-1.101,18.066-1.067
			c0.651,0.349,1.461,0.104,1.808-0.548c0.348-0.65,0.103-1.461-0.548-1.807c-0.302-0.163-7.562-3.912-20.277,0.924
			c-0.69,0.262-1.035,1.034-0.773,1.724C101.954,251.268,102.461,251.597,102.999,251.597z"/>
	</g>
	<path style="fill:#EBEBEC;" d="M56.195,138.08c0,0-3.295-34.203-0.979-46.762c0,0,0.949-6.547,4.706-7.749
		c3.755-1.202,22.529,1.333,22.529,1.333l-19.105,0.719c0,0-5.015,0.328-5.985,8.017C56.305,101.992,56.992,101.356,56.195,138.08z"
		/>
	<path style="fill:#EBEBEC;" d="M117.07,138.08c0,0,3.296-34.203,0.979-46.762c0,0-0.948-6.547-4.704-7.749
		c-3.757-1.202-22.53,1.333-22.53,1.333l19.104,0.719c0,0,5.015,0.328,5.986,8.017C116.96,101.992,116.274,101.356,117.07,138.08z"
		/>
</g>
</svg>
