<?xml version="1.0" encoding="utf-8"?>
<!-- Generator: Adobe Illustrator 27.5.0, SVG Export Plug-In . SVG Version: 6.00 Build 0)  -->
<svg version="1.1" xmlns="http://www.w3.org/2000/svg" xmlns:xlink="http://www.w3.org/1999/xlink" x="0px" y="0px"
	 viewBox="0 0 750 500" style="enable-background:new 0 0 750 500;" xml:space="preserve">
<g id="BACKGROUND">
	<rect width="750" height="500"/>
</g>
<g id="OBJECTS">
	<g>
		<path style="fill:#FFFFFF;" d="M45.456,75.414c-0.219-0.374-0.629-0.61-1.063-0.61s-0.843,0.235-1.062,0.61
			c-0.111,0.192-0.167,0.399-0.168,0.621c0.001,0.222,0.057,0.429,0.168,0.621c0.029,0.065,0.057,0.131,0.086,0.196
			c0.027,0.061,0.065,0.111,0.105,0.16c0.021,0.071,0.041,0.142,0.062,0.213c0.028,0.067,0.056,0.134,0.085,0.201
			c0.053,0.098,0.125,0.176,0.216,0.236c0.052,0.052,0.114,0.088,0.185,0.108c0.1,0.053,0.208,0.077,0.323,0.072
			c0.075-0.01,0.149-0.02,0.223-0.03c0.067-0.028,0.134-0.056,0.201-0.085c0.098-0.053,0.176-0.125,0.236-0.216
			c0.074-0.081,0.124-0.176,0.15-0.286c0.022-0.076,0.044-0.153,0.066-0.229c0.029-0.038,0.058-0.075,0.087-0.113
			c0.004-0.01,0.009-0.02,0.013-0.03c0.029-0.065,0.057-0.131,0.086-0.196c0.111-0.192,0.167-0.399,0.168-0.621
			C45.624,75.813,45.568,75.606,45.456,75.414z"/>
		<path style="fill:#FFFFFF;" d="M13.468,143.324c-1.709,0-1.712,2.656,0,2.656C15.177,145.98,15.18,143.324,13.468,143.324z"/>
		<path style="fill:#FFFFFF;" d="M144.095,118.685c-0.047-0.196-0.136-0.366-0.269-0.512c-0.106-0.164-0.247-0.293-0.422-0.387
			c-0.144-0.066-0.289-0.131-0.438-0.187c-0.029-0.011-0.057-0.019-0.087-0.027c-0.014-0.003-0.027-0.006-0.041-0.009
			c-0.15-0.027-0.305-0.044-0.456-0.062c-0.029-0.003-0.057-0.005-0.086-0.005c-0.169,0.002-0.339,0.035-0.504,0.064
			c-0.149,0.027-0.41,0.162-0.458,0.184c-0.01,0.005-0.02,0.01-0.03,0.015c-0.111,0.086-0.221,0.171-0.332,0.257
			c-0.085,0.11-0.171,0.221-0.257,0.332c-0.055,0.131-0.11,0.261-0.165,0.392c0,0.002-0.001,0.003-0.001,0.005
			c-0.001,0.006-0.003,0.012-0.004,0.018c-0.073,0.351-0.086,0.559-0.001,0.91c0.037,0.153,0.098,0.306,0.186,0.438
			c0.002,0.003,0.004,0.005,0.006,0.008c0.081,0.105,0.163,0.211,0.244,0.316c0.001,0.002,0.003,0.004,0.004,0.005
			c0.004,0.005,0.008,0.009,0.013,0.014c0.005,0.005,0.01,0.009,0.016,0.014c0.05,0.043,0.143,0.111,0.162,0.125
			c0.049,0.038,0.109,0.087,0.165,0.127c0.238,0.138,0.495,0.207,0.77,0.208c0.275-0.001,0.532-0.07,0.77-0.208
			c0.115-0.068,0.219-0.148,0.31-0.24c0.134-0.051,0.26-0.117,0.367-0.215c0.113-0.067,0.203-0.157,0.27-0.27
			c0.133-0.145,0.223-0.316,0.269-0.511c0.018-0.133,0.036-0.267,0.054-0.4C144.131,118.951,144.113,118.818,144.095,118.685z"/>
		<path style="fill:#FFFFFF;" d="M100.964,139.259c-0.281-0.218-0.579-0.424-0.848-0.656c-0.068-0.059-0.119-0.136-0.181-0.201
			c-0.162-0.17-0.391-0.238-0.606-0.314c-0.175-0.062-0.351-0.125-0.526-0.187c-0.197-0.07-0.503-0.023-0.677,0.089
			c-0.163,0.105-0.284,0.241-0.36,0.42c-0.074,0.175-0.104,0.387-0.044,0.572c0.073,0.227,0.207,0.39,0.404,0.525
			c0.151,0.104,0.303,0.207,0.454,0.311c0.036,0.025,0.073,0.05,0.11,0.075c0.131,0.089,0.27,0.137,0.426,0.158
			c0.056,0.008,0.111,0.013,0.167,0.018c0.345,0.1,0.691,0.2,1.036,0.301c0.271,0.079,0.615-0.05,0.75-0.305
			c0.055-0.104,0.085-0.217,0.091-0.335C101.164,139.584,101.083,139.352,100.964,139.259z"/>
		<path style="fill:#FFFFFF;" d="M158.226,225.39c-0.078-0.132-0.183-0.237-0.315-0.315c-0.071-0.033-0.142-0.065-0.214-0.098
			c-0.155-0.09-0.322-0.135-0.501-0.135c-0.179,0.001-0.346,0.046-0.501,0.135c-0.302,0.176-0.491,0.507-0.491,0.857
			s0.189,0.68,0.491,0.857c0.155,0.09,0.322,0.135,0.501,0.135c0.179-0.001,0.346-0.046,0.501-0.135
			c0.071-0.033,0.142-0.065,0.214-0.098c0.132-0.078,0.237-0.183,0.315-0.315c0.079-0.137,0.119-0.285,0.12-0.443
			C158.346,225.675,158.306,225.527,158.226,225.39z"/>
		<path style="fill:#FFFFFF;" d="M259.294,246.05c-0.008-0.026-0.016-0.053-0.024-0.079c-0.02-0.066-0.044-0.111-0.075-0.186
			c-0.032-0.113-0.089-0.211-0.171-0.294c-0.03-0.055-0.068-0.103-0.114-0.144c-0.119-0.128-0.261-0.219-0.424-0.273
			c-0.157-0.083-0.327-0.12-0.508-0.114c-0.117,0.016-0.234,0.031-0.351,0.047c-0.223,0.063-0.417,0.176-0.582,0.339
			c-0.003,0.003-0.007,0.006-0.01,0.009c-0.069,0.09-0.139,0.18-0.208,0.27c-0.045,0.106-0.09,0.212-0.134,0.318
			c-0.003,0.009-0.005,0.018-0.008,0.026c-0.008,0.026-0.016,0.053-0.024,0.079c-0.135,0.448,0.003,1.009,0.351,1.329
			c0.092,0.071,0.184,0.142,0.276,0.214c0.213,0.124,0.443,0.186,0.689,0.186c0.188,0.007,0.363-0.032,0.526-0.117
			c0.169-0.055,0.316-0.149,0.44-0.282C259.281,247.04,259.434,246.513,259.294,246.05z"/>
		<path style="fill:#FFFFFF;" d="M214.431,281.759c-0.047-0.144-0.127-0.269-0.24-0.374c-0.041-0.035-0.081-0.071-0.122-0.107
			c-0.127-0.126-0.277-0.214-0.45-0.262c-0.136-0.043-0.271-0.049-0.407-0.018c-0.136,0.006-0.262,0.047-0.38,0.121
			c-0.154,0.091-0.276,0.213-0.366,0.366c-0.033,0.045-0.066,0.09-0.099,0.135c-0.039,0.092-0.078,0.185-0.117,0.277
			c-0.014,0.103-0.028,0.206-0.042,0.309c0.014,0.103,0.028,0.206,0.042,0.309c0.039,0.092,0.078,0.185,0.117,0.277
			c0.061,0.078,0.121,0.157,0.182,0.235c0.078,0.06,0.157,0.121,0.235,0.182c0.092,0.039,0.185,0.078,0.277,0.117
			c0.154,0.048,0.309,0.056,0.463,0.021c0.105,0,0.202-0.027,0.293-0.079c0.098-0.028,0.184-0.077,0.256-0.149
			c0.087-0.052,0.157-0.121,0.208-0.208c0.072-0.073,0.122-0.158,0.149-0.256c0.053-0.091,0.079-0.188,0.079-0.293
			c0.028-0.103,0.028-0.206,0-0.309C214.51,281.947,214.484,281.85,214.431,281.759z"/>
		<path style="fill:#FFFFFF;" d="M254.895,363.091c-0.046-0.165-0.13-0.308-0.25-0.43c-0.046-0.051-0.091-0.103-0.137-0.154
			c-0.102-0.102-0.223-0.172-0.362-0.211c-0.109-0.034-0.218-0.039-0.327-0.015c-0.109,0.005-0.211,0.037-0.305,0.097
			c-0.123,0.073-0.221,0.171-0.294,0.294c-0.035,0.062-0.069,0.123-0.104,0.185c-0.171,0.305-0.178,0.678,0,0.983
			c0.087,0.146,0.203,0.263,0.349,0.349c0.077,0.044,0.157,0.077,0.24,0.1c0.037,0.015,0.073,0.031,0.11,0.046
			c0.09,0.028,0.179,0.032,0.269,0.012c0.061,0,0.117-0.016,0.17-0.046c0.083-0.027,0.156-0.074,0.217-0.139
			c0.019-0.019,0.039-0.038,0.058-0.057c0.036-0.027,0.084-0.035,0.117-0.068c0.121-0.121,0.204-0.265,0.25-0.429
			C254.941,363.436,254.941,363.264,254.895,363.091z"/>
		<path style="fill:#FFFFFF;" d="M290.836,379.604c-1.106,0-1.108,1.719,0,1.719C291.942,381.323,291.944,379.604,290.836,379.604z"
			/>
		<path style="fill:#FFFFFF;" d="M364.229,401.518c-0.102,0.02-0.203,0.04-0.305,0.06c-0.049,0.01-0.099,0.019-0.148,0.029
			c-0.025,0.005-0.05,0.009-0.074,0.014c-0.154,0.036-0.281,0.155-0.362,0.284c-0.122,0.194-0.238,0.393-0.357,0.589
			c-0.086,0.143-0.064,0.358,0.061,0.473c0.127,0.116,0.321,0.154,0.473,0.061c0.196-0.119,0.395-0.235,0.589-0.357
			c0.043-0.027,0.094-0.062,0.13-0.098c0.057-0.057,0.094-0.124,0.125-0.198c0.021-0.05,0.031-0.082,0.041-0.133
			c0.01-0.049,0.019-0.099,0.029-0.148c0.021-0.104,0.041-0.209,0.062-0.313C364.526,401.616,364.395,401.486,364.229,401.518z"/>
		<path style="fill:#FFFFFF;" d="M429.805,459.388c-0.034-0.104-0.092-0.194-0.174-0.27c-0.076-0.082-0.166-0.14-0.27-0.174
			c-0.1-0.053-0.208-0.077-0.324-0.072c-0.217,0.01-0.443,0.081-0.594,0.246c-0.147,0.16-0.256,0.37-0.246,0.594
			c0.01,0.074,0.02,0.149,0.03,0.223c0.026,0.109,0.076,0.205,0.15,0.286c0.059,0.091,0.138,0.164,0.236,0.216
			c0.072,0.043,0.153,0.053,0.233,0.07l0.078,0.202c0.043,0.111,0.183,0.111,0.226,0c0.026-0.067,0.052-0.135,0.078-0.202
			c0.079-0.017,0.161-0.027,0.233-0.07c0.057-0.044,0.113-0.088,0.17-0.131c0.082-0.076,0.14-0.166,0.174-0.27
			c0.052-0.1,0.077-0.208,0.072-0.324C429.882,459.596,429.857,459.488,429.805,459.388z"/>
		<path style="fill:#FFFFFF;" d="M327.503,487.416c-0.187-0.32-0.537-0.521-0.908-0.521s-0.721,0.201-0.908,0.521
			c-0.095,0.164-0.143,0.341-0.143,0.531c0,0.19,0.048,0.367,0.143,0.531c0.13,0.184,0.25,0.388,0.462,0.489l0.065,0.031
			c0.012,0.005,0.023,0.011,0.035,0.017c0.107,0.062,0.223,0.093,0.347,0.094c0.124,0,0.24-0.032,0.347-0.094
			c0.039-0.019,0.078-0.036,0.117-0.056c0.203-0.101,0.319-0.303,0.444-0.481c0.095-0.164,0.143-0.341,0.143-0.531
			C327.646,487.758,327.598,487.581,327.503,487.416z"/>
		<path style="fill:#FFFFFF;" d="M223.926,457.798c0-0.19-0.083-0.39-0.217-0.524c-0.067-0.072-0.147-0.123-0.238-0.153
			c-0.088-0.046-0.184-0.068-0.286-0.064c-0.192,0.009-0.39,0.072-0.524,0.217c-0.13,0.141-0.226,0.327-0.217,0.524
			c0.009,0.066,0.018,0.131,0.027,0.197c0.023,0.096,0.067,0.181,0.133,0.252c0.052,0.081,0.122,0.144,0.208,0.191
			c0.013,0.009,0.029,0.007,0.042,0.015c0.004,0.006,0.007,0.012,0.011,0.018c0.009,0.092,0.019,0.183,0.028,0.275
			c0.008,0.08,0.027,0.149,0.086,0.207c0.051,0.051,0.134,0.089,0.207,0.086c0.076-0.003,0.154-0.028,0.207-0.086
			c0.055-0.06,0.078-0.126,0.086-0.207c0.009-0.092,0.019-0.184,0.028-0.275c0.004-0.006,0.008-0.013,0.012-0.019
			C223.758,458.329,223.926,458.072,223.926,457.798z"/>
		<path style="fill:#FFFFFF;" d="M185.066,409.885c-0.149-0.137-0.332-0.223-0.538-0.223c-0.195,0-0.4,0.085-0.539,0.223
			c-0.094,0.095-0.16,0.207-0.196,0.336c-0.036,0.135-0.036,0.27,0,0.405c0.022,0.161,0.044,0.323,0.066,0.484
			c0.005,0.04,0.011,0.079,0.016,0.119c0.003,0.018,0.004,0.037,0.008,0.055c0.017,0.099,0.066,0.183,0.126,0.26
			c0.039,0.05,0.068,0.08,0.114,0.118c0.024,0.02,0.049,0.04,0.073,0.06c0.094,0.077,0.203,0.143,0.331,0.137
			c0.042-0.005,0.083-0.011,0.124-0.017c0.079-0.022,0.148-0.063,0.207-0.121c0.045-0.037,0.092-0.073,0.135-0.111
			c0.111-0.097,0.166-0.241,0.185-0.382c0.005-0.04,0.011-0.079,0.016-0.119c0.022-0.161,0.044-0.323,0.066-0.484
			c0.036-0.135,0.036-0.27,0-0.405C185.226,410.092,185.161,409.98,185.066,409.885z"/>
		<path style="fill:#FFFFFF;" d="M123.118,398.384c-0.108-0.108-0.286-0.19-0.442-0.183c-0.162,0.007-0.329,0.06-0.442,0.183
			c-0.11,0.12-0.19,0.275-0.183,0.442c0.013,0.322,0.026,0.644,0.039,0.966c0.006,0.154,0.061,0.304,0.172,0.414
			c0.102,0.102,0.268,0.178,0.414,0.172c0.152-0.007,0.309-0.057,0.414-0.172c0.108-0.117,0.165-0.254,0.172-0.414
			c0.013-0.322,0.026-0.644,0.039-0.966C123.307,398.67,123.226,398.493,123.118,398.384z"/>
		<path style="fill:#FFFFFF;" d="M41.101,420.719c-0.045-0.096-0.09-0.193-0.135-0.289c-0.105-0.225-0.423-0.407-0.67-0.384
			c-0.026,0.002-0.052,0.005-0.078,0.007c-0.414,0.038-0.628,0.365-0.653,0.692h-0.039c-0.002,0.026-0.005,0.052-0.007,0.078
			c-0.022,0.247,0.159,0.565,0.385,0.67c0.096,0.045,0.193,0.091,0.289,0.136C40.808,421.916,41.39,421.335,41.101,420.719z"/>
		<path style="fill:#FFFFFF;" d="M75.838,320.099c-0.017-0.174-0.033-0.347-0.05-0.521c-0.012-0.127-0.044-0.238-0.137-0.332
			c-0.081-0.081-0.215-0.142-0.331-0.137c-0.121,0.005-0.247,0.045-0.331,0.137c-0.024,0.032-0.049,0.063-0.073,0.095
			c-0.042,0.073-0.064,0.152-0.064,0.237c-0.016,0.174-0.033,0.348-0.05,0.521l-0.024,0.256c-0.006,0.06,0.003,0.125,0.016,0.183
			c0.016,0.051,0.037,0.099,0.063,0.145c0.048,0.081,0.112,0.145,0.193,0.193c0.018,0.013,0.036,0.027,0.054,0.04
			c0.11,0.082,0.323,0.082,0.434,0c0.018-0.013,0.036-0.027,0.054-0.04c0.081-0.048,0.145-0.112,0.193-0.193
			c0.015-0.025,0.027-0.052,0.036-0.079c0.034-0.08,0.052-0.161,0.043-0.248C75.854,320.27,75.846,320.185,75.838,320.099z"/>
		<path style="fill:#FFFFFF;" d="M17.099,300.907c-0.032-0.099-0.087-0.185-0.166-0.258c-0.054-0.042-0.108-0.083-0.162-0.125
			c-0.064-0.027-0.128-0.054-0.191-0.081c-0.107-0.033-0.213-0.038-0.319-0.014c-0.106,0.005-0.206,0.037-0.298,0.095
			c-0.172,0.106-0.343,0.212-0.515,0.319c-0.011,0.006-0.021,0.013-0.032,0.02c-0.058,0.037-0.16,0.113-0.208,0.161
			c-0.052,0.051-0.12,0.148-0.161,0.208c-0.007,0.01-0.014,0.021-0.021,0.031c-0.028,0.041-0.055,0.083-0.083,0.124
			c-0.028,0.041-0.056,0.083-0.083,0.124c-0.014,0.021-0.028,0.041-0.042,0.062c-0.053,0.079-0.087,0.172-0.119,0.26
			c-0.041,0.151-0.041,0.303,0,0.454c0.041,0.145,0.114,0.27,0.22,0.377c0.107,0.106,0.232,0.179,0.377,0.22
			c0.151,0.041,0.303,0.041,0.454,0c0.085-0.031,0.177-0.063,0.253-0.113c0.021-0.014,0.041-0.028,0.062-0.042
			c0.041-0.028,0.083-0.056,0.124-0.083c0.041-0.028,0.083-0.056,0.124-0.083c0.01-0.007,0.021-0.014,0.031-0.021
			c0.005-0.003,0.01-0.007,0.016-0.01c0.064-0.05,0.129-0.1,0.193-0.149c0.004-0.005,0.009-0.009,0.013-0.014
			c0.05-0.064,0.1-0.129,0.149-0.193c0.009-0.013,0.016-0.026,0.024-0.04c0.106-0.172,0.213-0.343,0.319-0.515
			c0.027-0.064,0.054-0.127,0.081-0.191c0.033-0.106,0.038-0.213,0.014-0.319C17.153,301.037,17.135,300.97,17.099,300.907z"/>
		<path style="fill:#FFFFFF;" d="M44.016,219.786c-0.026-0.08-0.07-0.149-0.133-0.208c-0.112-0.112-0.295-0.196-0.456-0.189
			c-0.167,0.007-0.34,0.062-0.456,0.189c-0.11,0.12-0.202,0.287-0.189,0.456c0.013,0.164,0.024,0.329,0.039,0.493
			c0.01,0.114,0.02,0.157,0.056,0.246c0.016,0.04,0.032,0.08,0.048,0.12c0.029,0.074,0.059,0.148,0.088,0.222
			c0.014,0.034,0.029,0.069,0.043,0.103c0.027,0.05,0.064,0.09,0.111,0.121c0.072,0.056,0.166,0.096,0.26,0.092
			c0.076-0.003,0.149-0.023,0.217-0.059c0.103-0.055,0.157-0.154,0.198-0.257c0.029-0.074,0.059-0.148,0.088-0.222
			c0.015-0.037,0.029-0.074,0.044-0.111c0.037-0.092,0.049-0.14,0.059-0.255c0.015-0.164,0.026-0.328,0.039-0.493
			C44.075,219.946,44.057,219.863,44.016,219.786z"/>
		<path style="fill:#FFFFFF;" d="M82.085,228.088c-0.829,0-0.831,1.289,0,1.289C82.914,229.377,82.916,228.088,82.085,228.088z"/>
		<path style="fill:#FFFFFF;" d="M19.787,42.861c-0.051-0.088-0.136-0.172-0.224-0.224l-0.149-0.063
			c-0.083-0.026-0.166-0.03-0.249-0.011c-0.056,0-0.109,0.014-0.158,0.043c-0.077,0.025-0.144,0.068-0.201,0.129
			c-0.03,0.027-0.057,0.057-0.085,0.086c-0.163,0.037-0.325,0.074-0.488,0.111c-0.104,0.024-0.191,0.138-0.186,0.245
			c0.005,0.108,0.075,0.22,0.186,0.245c0.163,0.037,0.325,0.074,0.488,0.111c0.028,0.029,0.056,0.059,0.085,0.086
			c0.08,0.073,0.173,0.127,0.276,0.161c0.083,0.026,0.166,0.03,0.249,0.011c0.056,0,0.109-0.014,0.158-0.043
			c0.053-0.015,0.099-0.042,0.138-0.08c0.047-0.028,0.084-0.065,0.112-0.112c0.081-0.105,0.14-0.242,0.134-0.379
			C19.867,43.068,19.842,42.954,19.787,42.861z"/>
		<path style="fill:#FFFFFF;" d="M102.412,464.269c-0.049-0.175-0.138-0.328-0.266-0.457c-0.29-0.354-0.58-0.709-0.87-1.063
			c-0.106-0.114-0.232-0.195-0.377-0.242c-0.14-0.073-0.29-0.107-0.451-0.101c-0.161-0.006-0.312,0.028-0.451,0.101
			c-0.145,0.047-0.271,0.128-0.377,0.242c-0.061,0.079-0.122,0.158-0.183,0.237c-0.106,0.183-0.159,0.38-0.16,0.592
			c0.014,0.104,0.028,0.208,0.042,0.312c0.056,0.198,0.156,0.371,0.301,0.517l1.063,0.87c0.094,0.101,0.205,0.172,0.333,0.214
			c0.123,0.065,0.256,0.094,0.399,0.089c0.143,0.005,0.275-0.024,0.399-0.089c0.128-0.042,0.239-0.113,0.333-0.214
			c0.054-0.07,0.108-0.14,0.162-0.21c0.094-0.161,0.141-0.335,0.141-0.522C102.437,464.452,102.424,464.361,102.412,464.269z"/>
		<path style="fill:#FFFFFF;" d="M176.602,491.308c-0.022-0.021-0.046-0.04-0.072-0.055c-0.007-0.004-0.014-0.008-0.022-0.012
			c-0.004-0.002-0.009-0.004-0.013-0.006c-0.026-0.027-0.055-0.052-0.085-0.071c-0.013-0.008-0.029-0.011-0.043-0.018l-0.005-0.006
			c-0.068-0.068-0.149-0.115-0.241-0.141c-0.097-0.026-0.194-0.026-0.291,0c-0.115,0.041-0.232,0.089-0.337,0.154
			c-0.077,0.048-0.148,0.107-0.218,0.163c-0.014,0.011-0.027,0.023-0.04,0.035c-0.006,0.005-0.011,0.011-0.017,0.016
			c-0.098,0.099-0.138,0.191-0.186,0.316c-0.012,0.032-0.023,0.065-0.029,0.099c-0.015,0.083-0.036,0.178-0.029,0.266
			c0.013,0.185,0.033,0.251,0.109,0.416c0.006,0.012,0.012,0.024,0.019,0.035c0.064,0.104,0.14,0.186,0.246,0.248
			c0.109,0.064,0.218,0.088,0.344,0.092c0.148,0.004,0.318-0.043,0.44-0.129c0.055-0.029,0.098-0.07,0.132-0.121
			c0.041-0.045,0.069-0.098,0.084-0.159c0.006-0.042,0.011-0.083,0.017-0.125c0-0.028-0.017-0.052-0.021-0.08
			c0.001-0.018,0.004-0.023,0.003-0.051c-0.001-0.013-0.005-0.054-0.011-0.095c0.005-0.015,0.016-0.027,0.019-0.043
			c0.004-0.022,0.007-0.044,0.012-0.066c0.006-0.025,0.016-0.048,0.024-0.072c0.003-0.006,0.006-0.013,0.009-0.019
			c0.009-0.016,0.018-0.032,0.029-0.048c0.005-0.008,0.01-0.015,0.015-0.023c0.023-0.036,0.034-0.05,0.049-0.102
			c0.028,0.044,0.072,0.074,0.127,0.067c0.063-0.009,0.124-0.066,0.118-0.134C176.728,491.52,176.694,491.395,176.602,491.308z"/>
		<path style="fill:#FFFFFF;" d="M442.344,400.56c-0.007-0.074-0.015-0.153-0.031-0.226c-0.002-0.007-0.004-0.014-0.006-0.022
			c-0.001-0.004-0.003-0.008-0.004-0.011c-0.055-0.157-0.063-0.17-0.145-0.277c-0.091-0.118-0.08-0.107-0.237-0.217
			c-0.007-0.005-0.015-0.01-0.023-0.015c-0.016-0.009-0.032-0.017-0.048-0.025c-0.095-0.042-0.192-0.092-0.296-0.11
			c-0.104-0.033-0.208-0.037-0.312-0.014c-0.104,0.005-0.201,0.036-0.29,0.093c-0.091,0.049-0.164,0.116-0.219,0.201
			c-0.069,0.075-0.116,0.164-0.14,0.266c-0.009,0.069-0.019,0.139-0.028,0.208c0.001,0.141,0.036,0.273,0.107,0.395
			c0.041,0.053,0.081,0.105,0.122,0.158c0.039,0.039,0.093,0.051,0.138,0.08c0.004,0.004,0.009,0.008,0.013,0.012
			c0.005,0.005,0.01,0.011,0.015,0.016c0.018,0.018,0.032,0.023,0.049,0.038l-0.034-0.014c0.021,0.009,0.041,0.023,0.06,0.035
			c0.006,0.005,0.013,0.01,0.019,0.015c0.013,0.016,0.025,0.033,0.038,0.049l0.146,0.113c0.058,0.024,0.115,0.049,0.173,0.073
			c0.096,0.03,0.192,0.035,0.289,0.013c0.065,0,0.126-0.017,0.183-0.049c0.061-0.017,0.115-0.048,0.16-0.093
			c0.054-0.032,0.098-0.075,0.13-0.13c0.064-0.07,0.107-0.152,0.13-0.246c0.006-0.016,0.011-0.032,0.014-0.048
			c0.014-0.069,0.025-0.149,0.029-0.219c0-0.008,0.001-0.015,0.001-0.023C442.346,400.576,442.345,400.568,442.344,400.56z"/>
		<path style="fill:#FFFFFF;" d="M306.804,332.514c-0.006-0.03-0.013-0.06-0.019-0.09c-0.028-0.133-0.053-0.263-0.162-0.36
			c-0.086-0.078-0.203-0.139-0.324-0.134c-0.125,0.006-0.23,0.05-0.323,0.134c-0.105,0.094-0.132,0.222-0.16,0.351
			c-0.007,0.03-0.013,0.06-0.019,0.09c-0.025,0.115-0.032,0.228,0.005,0.342c0.04,0.122,0.08,0.243,0.121,0.365
			c0.052,0.158,0.2,0.295,0.377,0.287c0.179-0.008,0.321-0.117,0.377-0.287c0.04-0.122,0.081-0.243,0.121-0.365
			C306.833,332.737,306.827,332.628,306.804,332.514z"/>
		<path style="fill:#FFFFFF;" d="M513.118,475.497c-0.829,0-0.831,1.289,0,1.289C513.947,476.786,513.948,475.497,513.118,475.497z"
			/>
		<path style="fill:#FFFFFF;" d="M563.083,450.337c-0.187-0.172-0.417-0.28-0.677-0.28c-0.132-0.005-0.255,0.022-0.369,0.082
			c-0.119,0.039-0.221,0.105-0.308,0.198c-0.238,0.238-0.342,0.605-0.246,0.931c0.088,0.298,0.176,0.596,0.264,0.894
			c0.023,0.054,0.046,0.109,0.069,0.163c0.043,0.08,0.102,0.144,0.176,0.192c0.043,0.042,0.093,0.072,0.151,0.088
			c0.082,0.043,0.169,0.063,0.263,0.059c0.121-0.005,0.238-0.036,0.345-0.093c0.151-0.08,0.267-0.249,0.314-0.408
			c0.088-0.298,0.176-0.596,0.264-0.894C563.422,450.953,563.328,450.562,563.083,450.337z"/>
		<path style="fill:#FFFFFF;" d="M99.889,71.222c0-0.105-0.046-0.215-0.12-0.289c-0.071-0.071-0.187-0.124-0.289-0.12
			c-0.106,0.005-0.215,0.039-0.289,0.12c-0.071,0.078-0.124,0.18-0.12,0.289c0.004,0.092,0.031,0.174,0.088,0.247
			c0.066,0.086,0.151,0.122,0.247,0.15c0.012,0.183,0.023,0.367,0.035,0.55c0.003,0.05,0.075,0.05,0.078,0
			c0.012-0.183,0.023-0.366,0.035-0.549c0.079-0.023,0.152-0.052,0.215-0.11C99.845,71.441,99.889,71.322,99.889,71.222z"/>
		<path style="fill:#FFFFFF;" d="M62.121,10.952c-0.081-0.081-0.215-0.142-0.332-0.137c-0.121,0.005-0.247,0.045-0.331,0.137
			c-0.079,0.086-0.149,0.21-0.137,0.332c0.016,0.164,0.032,0.328,0.049,0.493c0.008,0.082,0.016,0.164,0.024,0.246
			c0.006,0.066,0.01,0.132,0.033,0.195c0.014,0.04,0.029,0.08,0.043,0.121c0.048,0.134,0.168,0.251,0.32,0.244
			c0.154-0.007,0.269-0.1,0.32-0.244c0.014-0.04,0.029-0.081,0.043-0.121c0.022-0.063,0.026-0.129,0.033-0.195
			c0.008-0.082,0.016-0.164,0.024-0.246c0.016-0.164,0.032-0.328,0.049-0.493C62.27,11.171,62.198,11.029,62.121,10.952z"/>
	</g>
	<g>
		<path style="fill:#FFFFFF;" d="M701.102,420.182c0.219,0.374,0.629,0.61,1.063,0.61c0.434,0,0.844-0.235,1.063-0.61
			c0.111-0.192,0.167-0.399,0.168-0.621c-0.001-0.222-0.057-0.429-0.168-0.621c-0.029-0.065-0.057-0.131-0.086-0.196
			c-0.027-0.061-0.065-0.111-0.105-0.16c-0.021-0.071-0.041-0.142-0.062-0.213c-0.028-0.067-0.056-0.134-0.085-0.201
			c-0.053-0.098-0.125-0.177-0.216-0.236c-0.052-0.052-0.114-0.088-0.185-0.108c-0.1-0.053-0.208-0.077-0.324-0.072
			c-0.074,0.01-0.149,0.02-0.223,0.03c-0.067,0.028-0.134,0.056-0.201,0.085c-0.098,0.053-0.176,0.125-0.236,0.216
			c-0.074,0.081-0.124,0.176-0.15,0.286c-0.022,0.076-0.044,0.153-0.066,0.23c-0.029,0.038-0.058,0.075-0.087,0.113
			c-0.004,0.01-0.009,0.02-0.013,0.03c-0.029,0.065-0.057,0.131-0.086,0.196c-0.111,0.192-0.167,0.399-0.168,0.621
			C700.935,419.783,700.991,419.99,701.102,420.182z"/>
		<path style="fill:#FFFFFF;" d="M733.091,352.272c1.709,0,1.712-2.656,0-2.656C731.382,349.615,731.379,352.272,733.091,352.272z"
			/>
		<path style="fill:#FFFFFF;" d="M602.464,376.911c0.047,0.196,0.136,0.366,0.269,0.512c0.106,0.164,0.247,0.293,0.422,0.387
			c0.144,0.066,0.289,0.131,0.438,0.186c0.029,0.011,0.057,0.02,0.087,0.027c0.014,0.003,0.027,0.006,0.041,0.009
			c0.15,0.027,0.305,0.044,0.456,0.062c0.029,0.003,0.057,0.005,0.086,0.005c0.169-0.002,0.339-0.035,0.504-0.065
			c0.149-0.027,0.409-0.162,0.458-0.184c0.01-0.005,0.02-0.01,0.03-0.015c0.111-0.086,0.221-0.171,0.332-0.257
			c0.086-0.111,0.171-0.221,0.256-0.332c0.055-0.131,0.11-0.261,0.165-0.392c0.001-0.002,0.001-0.003,0.001-0.005
			c0.001-0.006,0.003-0.012,0.004-0.018c0.073-0.351,0.086-0.559,0.001-0.91c-0.037-0.154-0.098-0.306-0.186-0.438
			c-0.002-0.003-0.004-0.005-0.006-0.007c-0.081-0.105-0.163-0.211-0.244-0.316c-0.001-0.002-0.003-0.003-0.004-0.005
			c-0.004-0.005-0.008-0.009-0.013-0.014c-0.005-0.005-0.01-0.009-0.016-0.014c-0.05-0.043-0.143-0.111-0.162-0.125
			c-0.049-0.038-0.109-0.087-0.165-0.127c-0.238-0.138-0.495-0.207-0.77-0.208c-0.275,0.001-0.532,0.07-0.77,0.208
			c-0.115,0.068-0.219,0.148-0.31,0.24c-0.134,0.051-0.26,0.117-0.367,0.215c-0.113,0.067-0.203,0.157-0.27,0.27
			c-0.133,0.145-0.223,0.316-0.269,0.512c-0.018,0.133-0.036,0.267-0.054,0.4C602.428,376.645,602.446,376.778,602.464,376.911z"/>
		<path style="fill:#FFFFFF;" d="M645.595,356.337c0.281,0.218,0.579,0.424,0.848,0.656c0.068,0.059,0.119,0.136,0.181,0.201
			c0.162,0.17,0.391,0.238,0.606,0.314c0.175,0.062,0.351,0.125,0.526,0.187c0.197,0.07,0.504,0.023,0.677-0.089
			c0.163-0.105,0.284-0.241,0.36-0.42c0.074-0.175,0.104-0.387,0.044-0.572c-0.073-0.227-0.207-0.39-0.404-0.525
			c-0.151-0.104-0.303-0.207-0.454-0.311c-0.036-0.025-0.073-0.05-0.11-0.075c-0.131-0.089-0.27-0.137-0.426-0.158
			c-0.055-0.008-0.111-0.013-0.167-0.018c-0.345-0.1-0.691-0.201-1.036-0.301c-0.271-0.079-0.615,0.05-0.75,0.305
			c-0.055,0.104-0.085,0.217-0.091,0.335C645.394,356.012,645.476,356.244,645.595,356.337z"/>
		<path style="fill:#FFFFFF;" d="M588.332,270.206c0.078,0.132,0.183,0.237,0.315,0.315c0.071,0.033,0.142,0.065,0.214,0.098
			c0.155,0.09,0.322,0.135,0.501,0.135c0.179,0,0.346-0.046,0.501-0.135c0.302-0.176,0.491-0.507,0.491-0.857
			c0-0.35-0.19-0.68-0.491-0.856c-0.155-0.09-0.322-0.135-0.501-0.136c-0.179,0.001-0.346,0.046-0.501,0.136
			c-0.071,0.032-0.142,0.065-0.214,0.098c-0.132,0.078-0.237,0.183-0.315,0.315c-0.08,0.137-0.12,0.285-0.12,0.443
			C588.213,269.921,588.253,270.069,588.332,270.206z"/>
		<path style="fill:#FFFFFF;" d="M487.265,249.546c0.008,0.026,0.016,0.052,0.024,0.079c0.02,0.066,0.044,0.111,0.075,0.186
			c0.032,0.113,0.089,0.211,0.171,0.294c0.03,0.055,0.068,0.103,0.114,0.144c0.119,0.128,0.261,0.219,0.424,0.273
			c0.157,0.083,0.327,0.12,0.508,0.114c0.117-0.016,0.234-0.031,0.351-0.047c0.223-0.063,0.417-0.176,0.582-0.339
			c0.003-0.003,0.007-0.006,0.01-0.009c0.069-0.09,0.139-0.18,0.208-0.27c0.045-0.106,0.09-0.212,0.134-0.318
			c0.003-0.009,0.005-0.018,0.008-0.026c0.008-0.026,0.016-0.053,0.024-0.079c0.135-0.448-0.003-1.009-0.351-1.329
			c-0.092-0.071-0.184-0.142-0.276-0.214c-0.213-0.124-0.443-0.186-0.689-0.186c-0.188-0.007-0.363,0.032-0.526,0.117
			c-0.169,0.055-0.316,0.149-0.44,0.282C487.278,248.555,487.125,249.083,487.265,249.546z"/>
		<path style="fill:#FFFFFF;" d="M532.127,213.837c0.047,0.144,0.127,0.269,0.24,0.374c0.041,0.036,0.081,0.071,0.122,0.107
			c0.127,0.126,0.278,0.214,0.45,0.262c0.136,0.042,0.271,0.049,0.407,0.018c0.136-0.006,0.262-0.047,0.38-0.121
			c0.153-0.091,0.276-0.213,0.366-0.366c0.033-0.045,0.066-0.09,0.099-0.135c0.039-0.092,0.078-0.185,0.117-0.277
			c0.014-0.103,0.028-0.206,0.042-0.309c-0.014-0.103-0.028-0.206-0.042-0.309c-0.039-0.092-0.078-0.185-0.117-0.277
			c-0.061-0.078-0.121-0.157-0.182-0.235c-0.078-0.061-0.157-0.121-0.235-0.182c-0.092-0.039-0.185-0.078-0.277-0.117
			c-0.154-0.048-0.309-0.055-0.463-0.021c-0.105,0-0.202,0.027-0.293,0.079c-0.098,0.028-0.184,0.077-0.256,0.149
			c-0.087,0.052-0.157,0.121-0.208,0.208c-0.072,0.073-0.122,0.158-0.149,0.256c-0.052,0.09-0.079,0.188-0.079,0.293
			c-0.028,0.103-0.028,0.206,0,0.309C532.048,213.648,532.075,213.746,532.127,213.837z"/>
		<path style="fill:#FFFFFF;" d="M491.664,132.504c0.046,0.165,0.13,0.308,0.25,0.43c0.046,0.051,0.091,0.103,0.137,0.154
			c0.102,0.102,0.223,0.172,0.362,0.211c0.109,0.034,0.218,0.039,0.327,0.015c0.109-0.005,0.211-0.037,0.305-0.097
			c0.123-0.073,0.221-0.171,0.294-0.294c0.035-0.062,0.069-0.123,0.104-0.185c0.171-0.305,0.178-0.678,0-0.983
			c-0.087-0.146-0.203-0.263-0.349-0.349c-0.077-0.044-0.157-0.077-0.24-0.1c-0.037-0.015-0.073-0.031-0.11-0.046
			c-0.09-0.028-0.179-0.032-0.269-0.012c-0.061,0-0.118,0.016-0.17,0.046c-0.083,0.027-0.156,0.074-0.217,0.139
			c-0.019,0.019-0.039,0.038-0.058,0.057c-0.036,0.027-0.084,0.035-0.117,0.068c-0.121,0.121-0.204,0.265-0.25,0.429
			C491.617,132.159,491.617,132.332,491.664,132.504z"/>
		<path style="fill:#FFFFFF;" d="M455.723,115.991c1.106,0,1.108-1.719,0-1.719C454.616,114.273,454.615,115.991,455.723,115.991z"
			/>
		<path style="fill:#FFFFFF;" d="M382.33,94.077c0.102-0.02,0.203-0.04,0.305-0.06c0.049-0.01,0.099-0.019,0.148-0.029
			c0.025-0.005,0.05-0.009,0.074-0.015c0.154-0.036,0.281-0.155,0.362-0.284c0.122-0.195,0.238-0.393,0.357-0.589
			c0.086-0.143,0.064-0.358-0.061-0.473c-0.127-0.117-0.321-0.154-0.473-0.061c-0.196,0.119-0.395,0.235-0.589,0.357
			c-0.043,0.027-0.094,0.062-0.13,0.098c-0.057,0.057-0.094,0.124-0.125,0.198c-0.021,0.05-0.031,0.082-0.041,0.133
			c-0.01,0.049-0.02,0.099-0.029,0.148c-0.021,0.104-0.041,0.209-0.061,0.313C382.033,93.98,382.163,94.11,382.33,94.077z"/>
		<path style="fill:#FFFFFF;" d="M316.754,36.207c0.034,0.104,0.092,0.194,0.174,0.27c0.076,0.082,0.166,0.14,0.27,0.174
			c0.1,0.053,0.208,0.077,0.324,0.072c0.217-0.01,0.443-0.081,0.594-0.246c0.147-0.16,0.256-0.37,0.246-0.594
			c-0.01-0.074-0.02-0.149-0.03-0.223c-0.026-0.109-0.076-0.205-0.15-0.286c-0.059-0.091-0.138-0.164-0.236-0.216
			c-0.072-0.043-0.153-0.053-0.233-0.07l-0.078-0.202c-0.043-0.111-0.183-0.111-0.226,0c-0.026,0.067-0.052,0.135-0.078,0.202
			c-0.079,0.018-0.161,0.027-0.233,0.071c-0.057,0.044-0.113,0.088-0.17,0.131c-0.082,0.076-0.14,0.166-0.174,0.27
			c-0.052,0.1-0.077,0.208-0.072,0.324C316.677,35.999,316.701,36.107,316.754,36.207z"/>
		<path style="fill:#FFFFFF;" d="M419.056,8.179c0.187,0.32,0.537,0.521,0.908,0.521s0.721-0.201,0.908-0.521
			c0.095-0.164,0.143-0.341,0.143-0.531c0-0.19-0.048-0.367-0.143-0.531c-0.13-0.184-0.25-0.388-0.462-0.489l-0.065-0.031
			c-0.011-0.005-0.023-0.011-0.035-0.016c-0.107-0.062-0.223-0.094-0.347-0.094c-0.124,0-0.24,0.032-0.347,0.094
			c-0.039,0.019-0.078,0.036-0.117,0.056c-0.203,0.101-0.319,0.302-0.444,0.481c-0.095,0.164-0.143,0.341-0.144,0.531
			C418.913,7.838,418.961,8.015,419.056,8.179z"/>
		<path style="fill:#FFFFFF;" d="M522.632,37.798c0,0.19,0.083,0.39,0.217,0.524c0.067,0.072,0.147,0.123,0.238,0.153
			c0.088,0.046,0.184,0.068,0.286,0.064c0.192-0.009,0.39-0.071,0.524-0.217c0.13-0.141,0.226-0.327,0.217-0.524
			c-0.009-0.066-0.018-0.131-0.026-0.197c-0.023-0.096-0.067-0.18-0.133-0.252c-0.052-0.081-0.122-0.144-0.208-0.191
			c-0.013-0.009-0.029-0.007-0.043-0.015c-0.004-0.006-0.007-0.012-0.011-0.018c-0.009-0.092-0.018-0.183-0.028-0.275
			c-0.008-0.08-0.027-0.149-0.086-0.207c-0.051-0.051-0.134-0.089-0.207-0.086c-0.076,0.003-0.154,0.028-0.207,0.086
			c-0.055,0.06-0.078,0.126-0.086,0.207c-0.009,0.092-0.018,0.184-0.028,0.275c-0.004,0.006-0.008,0.013-0.012,0.019
			C522.8,37.266,522.632,37.524,522.632,37.798z"/>
		<path style="fill:#FFFFFF;" d="M561.492,85.711c0.149,0.137,0.332,0.223,0.539,0.223c0.195,0,0.401-0.085,0.539-0.223
			c0.094-0.095,0.16-0.207,0.196-0.336c0.036-0.135,0.036-0.27,0-0.405c-0.022-0.161-0.044-0.323-0.066-0.484
			c-0.005-0.04-0.011-0.079-0.016-0.119c-0.002-0.018-0.004-0.037-0.007-0.055c-0.017-0.099-0.066-0.183-0.126-0.26
			c-0.039-0.05-0.068-0.08-0.114-0.118c-0.024-0.02-0.049-0.04-0.073-0.06c-0.094-0.077-0.203-0.143-0.331-0.137
			c-0.042,0.006-0.083,0.011-0.125,0.017c-0.079,0.022-0.148,0.063-0.207,0.121c-0.045,0.037-0.092,0.073-0.135,0.111
			c-0.111,0.097-0.166,0.241-0.185,0.382c-0.005,0.039-0.011,0.079-0.016,0.119c-0.022,0.161-0.044,0.323-0.066,0.484
			c-0.036,0.135-0.036,0.27,0,0.405C561.333,85.504,561.398,85.616,561.492,85.711z"/>
		<path style="fill:#FFFFFF;" d="M623.441,97.212c0.108,0.108,0.286,0.19,0.442,0.183c0.162-0.007,0.329-0.06,0.442-0.183
			c0.11-0.119,0.19-0.275,0.183-0.442c-0.013-0.322-0.026-0.644-0.039-0.966c-0.006-0.154-0.061-0.304-0.172-0.414
			c-0.102-0.102-0.268-0.178-0.414-0.172c-0.152,0.007-0.309,0.057-0.414,0.172c-0.108,0.117-0.165,0.254-0.172,0.414
			c-0.013,0.322-0.026,0.644-0.039,0.966C623.252,96.926,623.332,97.103,623.441,97.212z"/>
		<path style="fill:#FFFFFF;" d="M705.457,74.877c0.045,0.096,0.09,0.193,0.135,0.289c0.106,0.225,0.423,0.407,0.67,0.384
			c0.026-0.002,0.052-0.005,0.078-0.007c0.414-0.037,0.628-0.365,0.653-0.692h0.039c0.002-0.026,0.005-0.052,0.007-0.077
			c0.022-0.247-0.159-0.565-0.385-0.67c-0.096-0.045-0.193-0.09-0.289-0.136C705.751,73.68,705.168,74.26,705.457,74.877z"/>
		<path style="fill:#FFFFFF;" d="M670.72,175.497c0.017,0.174,0.033,0.347,0.05,0.521c0.012,0.127,0.044,0.238,0.137,0.331
			c0.081,0.081,0.215,0.143,0.331,0.137c0.121-0.005,0.247-0.045,0.332-0.137c0.024-0.032,0.049-0.063,0.073-0.095
			c0.042-0.073,0.064-0.152,0.064-0.237c0.017-0.174,0.033-0.347,0.05-0.521l0.024-0.256c0.006-0.06-0.003-0.125-0.016-0.183
			c-0.016-0.051-0.037-0.099-0.063-0.145c-0.048-0.081-0.112-0.145-0.193-0.193c-0.018-0.013-0.036-0.027-0.054-0.04
			c-0.11-0.082-0.323-0.082-0.434,0c-0.018,0.013-0.036,0.027-0.054,0.04c-0.081,0.048-0.145,0.112-0.193,0.193
			c-0.015,0.025-0.027,0.051-0.036,0.079c-0.034,0.08-0.052,0.161-0.043,0.248C670.704,175.326,670.712,175.411,670.72,175.497z"/>
		<path style="fill:#FFFFFF;" d="M729.46,194.689c0.032,0.099,0.088,0.185,0.166,0.258c0.054,0.042,0.108,0.083,0.162,0.125
			c0.064,0.027,0.128,0.054,0.191,0.081c0.107,0.033,0.213,0.038,0.319,0.014c0.107-0.005,0.206-0.037,0.298-0.095
			c0.172-0.106,0.343-0.213,0.515-0.319c0.011-0.007,0.021-0.013,0.032-0.02c0.058-0.037,0.159-0.113,0.208-0.161
			c0.052-0.051,0.12-0.148,0.161-0.208c0.007-0.01,0.014-0.021,0.021-0.031c0.028-0.041,0.056-0.083,0.083-0.124
			c0.028-0.041,0.055-0.083,0.083-0.124c0.014-0.021,0.028-0.041,0.042-0.062c0.053-0.079,0.087-0.172,0.119-0.26
			c0.041-0.151,0.041-0.303,0-0.454c-0.041-0.145-0.114-0.27-0.22-0.377c-0.106-0.106-0.232-0.179-0.377-0.22
			c-0.151-0.041-0.303-0.041-0.454,0c-0.085,0.031-0.177,0.063-0.253,0.113c-0.021,0.014-0.041,0.028-0.062,0.042
			c-0.041,0.028-0.083,0.055-0.124,0.083c-0.041,0.028-0.083,0.055-0.124,0.083c-0.01,0.007-0.021,0.014-0.031,0.021
			c-0.005,0.004-0.01,0.007-0.016,0.011c-0.064,0.05-0.129,0.1-0.193,0.149c-0.005,0.004-0.009,0.009-0.013,0.014
			c-0.05,0.064-0.099,0.129-0.149,0.193c-0.008,0.013-0.016,0.026-0.024,0.04c-0.106,0.172-0.213,0.343-0.319,0.515
			c-0.027,0.064-0.054,0.127-0.081,0.191c-0.033,0.106-0.038,0.213-0.014,0.319C729.405,194.559,729.424,194.626,729.46,194.689z"/>
		<path style="fill:#FFFFFF;" d="M702.542,275.809c0.026,0.08,0.07,0.149,0.133,0.208c0.112,0.112,0.295,0.196,0.456,0.189
			c0.167-0.008,0.339-0.062,0.456-0.189c0.11-0.12,0.202-0.287,0.189-0.456c-0.013-0.164-0.024-0.329-0.039-0.493
			c-0.01-0.114-0.02-0.157-0.055-0.246c-0.016-0.04-0.032-0.08-0.047-0.12c-0.03-0.074-0.059-0.148-0.088-0.222
			c-0.014-0.034-0.029-0.069-0.043-0.103c-0.027-0.05-0.064-0.09-0.111-0.121c-0.072-0.056-0.166-0.096-0.26-0.092
			c-0.076,0.003-0.149,0.023-0.217,0.059c-0.103,0.055-0.157,0.154-0.198,0.257c-0.029,0.074-0.059,0.148-0.088,0.222
			c-0.015,0.037-0.029,0.074-0.044,0.111c-0.036,0.092-0.049,0.14-0.059,0.255c-0.014,0.164-0.026,0.328-0.039,0.493
			C702.483,275.65,702.502,275.733,702.542,275.809z"/>
		<path style="fill:#FFFFFF;" d="M664.474,267.508c0.829,0,0.831-1.289,0-1.289C663.644,266.219,663.643,267.508,664.474,267.508z"
			/>
		<path style="fill:#FFFFFF;" d="M726.772,452.735c0.052,0.088,0.136,0.172,0.224,0.224l0.149,0.063
			c0.083,0.026,0.166,0.03,0.249,0.011c0.056,0,0.109-0.014,0.157-0.043c0.078-0.025,0.145-0.068,0.201-0.129
			c0.03-0.027,0.057-0.057,0.085-0.086c0.163-0.037,0.325-0.074,0.488-0.111c0.104-0.024,0.191-0.138,0.186-0.245
			c-0.005-0.108-0.075-0.22-0.186-0.245c-0.163-0.037-0.325-0.074-0.488-0.111c-0.028-0.029-0.056-0.059-0.085-0.086
			c-0.08-0.073-0.173-0.127-0.276-0.161c-0.083-0.026-0.166-0.03-0.249-0.011c-0.056,0-0.109,0.014-0.158,0.043
			c-0.053,0.015-0.099,0.042-0.138,0.08c-0.047,0.028-0.084,0.065-0.112,0.112c-0.081,0.105-0.14,0.242-0.134,0.378
			C726.691,452.527,726.717,452.641,726.772,452.735z"/>
		<path style="fill:#FFFFFF;" d="M644.147,31.327c0.049,0.175,0.138,0.328,0.266,0.457c0.29,0.354,0.58,0.709,0.87,1.063
			c0.106,0.114,0.232,0.195,0.377,0.243c0.14,0.073,0.29,0.107,0.451,0.101c0.161,0.006,0.312-0.028,0.452-0.101
			c0.145-0.047,0.271-0.128,0.377-0.243c0.061-0.079,0.122-0.158,0.183-0.237c0.106-0.183,0.159-0.38,0.16-0.592
			c-0.014-0.104-0.028-0.208-0.042-0.311c-0.056-0.198-0.156-0.371-0.301-0.517l-1.063-0.87c-0.094-0.101-0.205-0.172-0.333-0.214
			c-0.123-0.065-0.256-0.094-0.399-0.089c-0.143-0.005-0.276,0.024-0.399,0.089c-0.128,0.042-0.239,0.113-0.333,0.214
			c-0.054,0.07-0.108,0.14-0.162,0.21c-0.094,0.161-0.141,0.335-0.141,0.522C644.122,31.143,644.134,31.235,644.147,31.327z"/>
		<path style="fill:#FFFFFF;" d="M569.956,4.288c0.022,0.021,0.046,0.04,0.072,0.055c0.007,0.004,0.014,0.008,0.021,0.011
			c0.004,0.002,0.009,0.004,0.013,0.006c0.026,0.027,0.055,0.052,0.085,0.071c0.013,0.008,0.029,0.011,0.043,0.018l0.005,0.007
			c0.068,0.068,0.149,0.115,0.241,0.141c0.097,0.026,0.194,0.026,0.291,0c0.115-0.041,0.232-0.089,0.336-0.154
			c0.077-0.048,0.148-0.106,0.218-0.163c0.014-0.011,0.027-0.023,0.04-0.035c0.006-0.005,0.011-0.011,0.017-0.016
			c0.098-0.099,0.138-0.191,0.186-0.316c0.013-0.032,0.023-0.065,0.029-0.099c0.015-0.083,0.036-0.178,0.029-0.266
			c-0.013-0.185-0.033-0.251-0.109-0.416c-0.006-0.012-0.012-0.024-0.019-0.035c-0.064-0.104-0.14-0.186-0.246-0.249
			c-0.109-0.064-0.218-0.088-0.344-0.091c-0.149-0.004-0.318,0.043-0.44,0.128c-0.055,0.029-0.099,0.07-0.131,0.121
			c-0.042,0.045-0.069,0.098-0.084,0.16c-0.006,0.041-0.011,0.083-0.017,0.125c0,0.028,0.017,0.053,0.022,0.08
			c-0.001,0.018-0.005,0.023-0.003,0.051c0,0.013,0.005,0.054,0.011,0.095c-0.005,0.015-0.016,0.027-0.019,0.043
			c-0.004,0.022-0.007,0.044-0.012,0.066c-0.006,0.025-0.016,0.048-0.024,0.072c-0.003,0.006-0.006,0.013-0.009,0.019
			c-0.009,0.016-0.018,0.032-0.028,0.048c-0.005,0.008-0.01,0.015-0.015,0.023c-0.023,0.036-0.034,0.05-0.049,0.102
			c-0.028-0.044-0.072-0.074-0.127-0.067c-0.063,0.009-0.124,0.066-0.118,0.134C569.831,4.076,569.865,4.201,569.956,4.288z"/>
		<path style="fill:#FFFFFF;" d="M304.215,95.035c0.007,0.074,0.015,0.153,0.031,0.226c0.002,0.007,0.004,0.014,0.006,0.021
			c0.001,0.004,0.003,0.008,0.004,0.011c0.055,0.157,0.063,0.17,0.145,0.277c0.091,0.118,0.08,0.107,0.237,0.217
			c0.007,0.005,0.015,0.01,0.023,0.015c0.016,0.009,0.032,0.017,0.049,0.025c0.095,0.042,0.192,0.092,0.296,0.11
			c0.104,0.033,0.208,0.037,0.311,0.014c0.104-0.005,0.201-0.036,0.29-0.093c0.091-0.049,0.164-0.116,0.219-0.201
			c0.069-0.076,0.116-0.164,0.14-0.266c0.009-0.069,0.019-0.138,0.028-0.208c0-0.141-0.036-0.273-0.107-0.394
			c-0.041-0.053-0.081-0.105-0.122-0.158c-0.039-0.039-0.093-0.051-0.138-0.08c-0.004-0.004-0.009-0.007-0.013-0.012
			c-0.005-0.005-0.01-0.011-0.015-0.016c-0.018-0.018-0.032-0.023-0.049-0.038l0.034,0.014c-0.021-0.009-0.04-0.022-0.06-0.035
			c-0.006-0.005-0.013-0.01-0.019-0.015c-0.013-0.016-0.025-0.033-0.038-0.049l-0.147-0.113c-0.058-0.024-0.115-0.049-0.173-0.073
			c-0.096-0.03-0.192-0.035-0.289-0.013c-0.065,0-0.126,0.017-0.183,0.049c-0.061,0.017-0.115,0.048-0.16,0.093
			c-0.054,0.032-0.098,0.076-0.13,0.13c-0.064,0.07-0.107,0.152-0.129,0.246c-0.006,0.016-0.011,0.032-0.014,0.048
			c-0.014,0.069-0.025,0.149-0.029,0.219c0,0.007-0.001,0.015-0.001,0.023C304.213,95.02,304.214,95.027,304.215,95.035z"/>
		<path style="fill:#FFFFFF;" d="M439.755,163.081c0.006,0.03,0.013,0.06,0.019,0.089c0.028,0.133,0.053,0.263,0.162,0.36
			c0.086,0.077,0.203,0.139,0.324,0.134c0.125-0.006,0.23-0.05,0.323-0.134c0.105-0.094,0.132-0.222,0.16-0.351
			c0.006-0.03,0.013-0.06,0.019-0.089c0.025-0.115,0.032-0.228-0.005-0.342c-0.04-0.122-0.08-0.243-0.121-0.365
			c-0.052-0.158-0.2-0.295-0.377-0.287c-0.179,0.008-0.321,0.117-0.377,0.287c-0.04,0.122-0.081,0.243-0.121,0.365
			C439.726,162.859,439.732,162.968,439.755,163.081z"/>
		<path style="fill:#FFFFFF;" d="M233.441,20.099c0.829,0,0.831-1.289,0-1.289C232.612,18.81,232.61,20.099,233.441,20.099z"/>
		<path style="fill:#FFFFFF;" d="M183.476,45.258c0.187,0.172,0.417,0.28,0.677,0.28c0.132,0.005,0.255-0.022,0.369-0.082
			c0.119-0.039,0.221-0.105,0.308-0.198c0.238-0.238,0.342-0.605,0.246-0.931c-0.088-0.298-0.176-0.596-0.264-0.894
			c-0.023-0.054-0.046-0.109-0.069-0.163c-0.043-0.08-0.102-0.144-0.176-0.192c-0.043-0.042-0.093-0.072-0.151-0.088
			c-0.081-0.043-0.169-0.063-0.263-0.059c-0.121,0.005-0.238,0.036-0.345,0.093c-0.15,0.08-0.267,0.249-0.314,0.408
			c-0.088,0.298-0.176,0.596-0.264,0.894C183.137,44.642,183.231,45.034,183.476,45.258z"/>
		<path style="fill:#FFFFFF;" d="M646.669,424.374c0,0.105,0.046,0.215,0.12,0.289c0.071,0.071,0.187,0.124,0.289,0.12
			c0.106-0.005,0.215-0.039,0.289-0.12c0.071-0.078,0.124-0.18,0.12-0.289c-0.004-0.092-0.031-0.174-0.088-0.247
			c-0.066-0.086-0.151-0.122-0.247-0.15c-0.012-0.183-0.023-0.367-0.035-0.55c-0.003-0.05-0.075-0.05-0.078,0
			c-0.012,0.183-0.023,0.366-0.035,0.549c-0.079,0.023-0.152,0.052-0.215,0.11C646.714,424.154,646.669,424.274,646.669,424.374z"/>
		<path style="fill:#FFFFFF;" d="M684.438,484.644c0.081,0.081,0.215,0.143,0.331,0.137c0.121-0.005,0.247-0.045,0.331-0.137
			c0.079-0.086,0.149-0.21,0.137-0.331c-0.016-0.164-0.032-0.328-0.048-0.493c-0.008-0.082-0.016-0.164-0.024-0.246
			c-0.007-0.066-0.01-0.132-0.033-0.195c-0.014-0.04-0.029-0.08-0.043-0.121c-0.048-0.134-0.168-0.251-0.32-0.244
			c-0.154,0.007-0.269,0.1-0.32,0.244c-0.014,0.04-0.029,0.081-0.043,0.121c-0.022,0.063-0.026,0.129-0.033,0.195
			c-0.008,0.082-0.016,0.164-0.024,0.246c-0.016,0.164-0.032,0.328-0.049,0.493C684.289,484.425,684.36,484.567,684.438,484.644z"/>
	</g>
	<g>
		<defs>
			<rect id="SVGID_1_" width="750" height="500"/>
		</defs>
		<clipPath id="SVGID_00000100362421722245687040000009958846017527002808_">
			<use xlink:href="#SVGID_1_"  style="overflow:visible;"/>
		</clipPath>
		<g style="clip-path:url(#SVGID_00000100362421722245687040000009958846017527002808_);">
			<g>
				<path style="fill:#737377;" d="M-17.664,195.041l2.051,17.833l-14.155,11.04l17.594,3.56l6.125,16.874l8.823-15.633
					l17.941-0.611L8.573,214.882l4.963-17.251l-16.327,7.461L-17.664,195.041z M6.159,206.362l-2.805,9.75l6.862,7.473
					l-10.139,0.345l-4.986,8.835l-3.462-9.536l-9.944-2.012l8-6.239l-1.159-10.079l8.406,5.68L6.159,206.362z"/>
				<path style="fill:#C6C8C9;" d="M-14.695,199.712l1.628,14.153l-11.234,8.761l13.964,2.826l4.861,13.392l7.002-12.407
					l14.238-0.485l-9.636-10.493l3.939-13.691l-12.958,5.922L-14.695,199.712z M2.573,216.295l6.097,6.64l-9.009,0.307l-4.431,7.851
					l-3.076-8.474l-8.836-1.788l7.108-5.544l-1.03-8.956l7.469,5.047l8.199-3.747L2.573,216.295z"/>
				<path style="fill:#737377;" d="M-13.297,202.588l1.375,11.957l-9.491,7.402l11.797,2.387l4.107,11.313l5.916-10.481l12.029-0.41
					l-8.141-8.865l3.327-11.566l-10.947,5.003L-13.297,202.588z M1.291,216.598l5.151,5.609l-7.611,0.259l-3.743,6.632l-2.598-7.159
					l-7.464-1.51l6.005-4.684l-0.87-7.566l6.31,4.264l6.927-3.166L1.291,216.598z"/>
				<polygon style="fill:#A4A5A9;" points="13.536,197.631 10.067,201.767 -2.891,207.688 -2.791,205.092 				"/>
				<polygon style="fill:#A4A5A9;" points="7.621,204.324 3.396,209.279 1.291,216.598 4.294,215.89 				"/>
				<polygon style="fill:#A4A5A9;" points="-17.664,195.041 -14.695,199.712 -13.067,213.865 -15.613,212.875 				"/>
				<polygon style="fill:#A4A5A9;" points="-9.84,208.18 -13.297,202.588 -3.325,209.326 -3.53,212.444 				"/>
				<polygon style="fill:#A4A5A9;" points="-8.97,215.746 -14.976,220.43 -21.413,221.946 -11.922,214.544 				"/>
				<polygon style="fill:#A4A5A9;" points="-24.301,222.626 -29.768,223.914 -12.174,227.475 -10.337,225.452 				"/>
				<polygon style="fill:#A4A5A9;" points="-9.616,224.333 -5.51,235.646 -4.913,229.098 -7.511,221.94 				"/>
				<polygon style="fill:#A4A5A9;" points="1.526,226.436 -5.476,238.843 -6.049,244.348 2.774,228.715 				"/>
				<polygon style="fill:#A4A5A9;" points="-1.17,222.466 0.406,225.165 12.434,224.755 6.442,222.207 				"/>
				<polygon style="fill:#A4A5A9;" points="15.764,225.951 20.715,228.104 8.573,214.882 6.128,215.458 				"/>
				<polygon style="fill:#FFFFFF;" points="-23.69,221.984 -21.657,222.003 -23.468,222.928 -23.487,224.961 -24.411,223.15 
					-26.445,223.131 -24.634,222.207 -24.615,220.173 				"/>
				<polygon style="fill:#FFFFFF;" points="15.658,225.6 17.691,225.618 15.88,226.543 15.861,228.577 14.937,226.766 
					12.903,226.746 14.714,225.822 14.733,223.788 				"/>
				<polygon style="fill:#FFFFFF;" points="-21.148,219.557 -19.867,219.569 -21.008,220.152 -21.02,221.432 -21.602,220.292 
					-22.882,220.279 -21.742,219.697 -21.73,218.417 				"/>
				<polygon style="fill:#FFFFFF;" points="2.682,204.917 3.963,204.929 2.822,205.511 2.81,206.791 2.228,205.651 0.947,205.639 
					2.088,205.057 2.1,203.776 				"/>
			</g>
			<g>
				<path style="fill:#737377;" d="M142.882,370.317l15.172,9.595l-0.288,17.949l13.813-11.465l16.981,5.82l-6.635-16.68
					l10.783-14.352l-17.914,1.156l-10.317-14.69l-4.437,17.394L142.882,370.317z M166.647,358.873l5.831,8.302l10.124-0.653
					l-6.094,8.111l3.75,9.427l-9.597-3.289l-7.807,6.479l0.163-10.144l-8.575-5.422l9.698-2.98L166.647,358.873z"/>
				<path style="fill:#C6C8C9;" d="M148.382,370.936l12.041,7.615l-0.229,14.245l10.963-9.099l13.477,4.619l-5.266-13.238
					l8.558-11.39l-14.217,0.917l-8.188-11.659l-3.521,13.805L148.382,370.936z M172.131,367.898l8.996-0.58l-5.415,7.207
					l3.332,8.376l-8.528-2.923l-6.937,5.757l0.145-9.013l-7.619-4.818l8.617-2.648l2.228-8.735L172.131,367.898z"/>
				<path style="fill:#737377;" d="M151.498,371.653l10.172,6.433l-0.193,12.034l9.261-7.686l11.385,3.902l-4.448-11.183
					l7.229-9.622l-12.01,0.775l-6.917-9.849l-2.975,11.662L151.498,371.653z M171.561,369.087l7.6-0.49l-4.575,6.089l2.815,7.076
					l-7.204-2.469l-5.86,4.864l0.122-7.615l-6.437-4.07l7.28-2.237l1.882-7.379L171.561,369.087z"/>
				<polygon style="fill:#A4A5A9;" points="164.478,347.65 165.521,352.946 162.001,366.751 160.042,365.044 				"/>
				<polygon style="fill:#A4A5A9;" points="165.977,356.455 167.184,362.854 171.561,369.087 172.895,366.305 				"/>
				<polygon style="fill:#A4A5A9;" points="142.882,370.317 148.382,370.936 160.423,378.55 158.054,379.911 				"/>
				<polygon style="fill:#A4A5A9;" points="158.022,372.471 151.498,371.653 163.003,368.118 165.302,370.234 				"/>
				<polygon style="fill:#A4A5A9;" points="164.459,376.541 164.337,384.156 161.477,390.119 161.671,378.085 				"/>
				<polygon style="fill:#A4A5A9;" points="160.195,392.795 157.766,397.86 171.58,386.396 171.158,383.696 				"/>
				<polygon style="fill:#A4A5A9;" points="170.739,382.433 182.124,386.335 177.401,381.761 170.197,379.292 				"/>
				<polygon style="fill:#A4A5A9;" points="179.369,375.078 184.634,388.315 188.561,392.216 181.926,375.536 				"/>
				<polygon style="fill:#A4A5A9;" points="174.586,374.685 177.676,375.152 184.905,365.53 179.161,368.596 				"/>
				<polygon style="fill:#A4A5A9;" points="187.926,363.688 192.709,361.185 174.795,362.34 173.71,364.605 				"/>
				<polygon style="fill:#FFFFFF;" points="160.078,391.916 161.369,390.345 160.953,392.336 162.524,393.626 160.533,393.21 
					159.243,394.781 159.659,392.791 158.088,391.5 				"/>
				<polygon style="fill:#FFFFFF;" points="187.586,363.55 188.877,361.978 188.46,363.969 190.031,365.26 188.041,364.843 
					186.75,366.414 187.167,364.424 185.596,363.133 				"/>
				<polygon style="fill:#FFFFFF;" points="159.784,388.414 160.597,387.425 160.335,388.678 161.324,389.491 160.071,389.228 
					159.258,390.218 159.52,388.965 158.531,388.152 				"/>
				<polygon style="fill:#FFFFFF;" points="163.34,360.673 164.152,359.684 163.89,360.937 164.88,361.75 163.626,361.487 
					162.813,362.477 163.076,361.224 162.086,360.411 				"/>
			</g>
			<g>
				<path style="fill:#737377;" d="M116.607,472.091l16.141,2.237l6.497,14.944l7.115-14.659l16.22-1.561l-11.743-11.297
					l3.527-15.909l-14.373,7.677l-14.04-8.271l2.86,16.042L116.607,472.091z M131.955,453.714l7.935,4.674l8.123-4.339l-1.993,8.991
					l6.637,6.385l-9.167,0.883l-4.021,8.285l-3.672-8.445l-9.122-1.264l6.897-6.102L131.955,453.714z"/>
				<path style="fill:#C6C8C9;" d="M121.385,470.539l12.81,1.775l5.156,11.86l5.647-11.634l12.873-1.239l-9.32-8.966l2.799-12.626
					l-11.407,6.093l-11.143-6.564l2.27,12.731L121.385,470.539z M139.874,459.116l7.218-3.855l-1.771,7.989l5.897,5.673
					l-8.145,0.784l-3.573,7.362l-3.263-7.504l-8.105-1.123l6.129-5.422l-1.436-8.056L139.874,459.116z"/>
				<path style="fill:#737377;" d="M124.23,469.962l10.822,1.5l4.356,10.019l4.771-9.828l10.875-1.047l-7.873-7.574l2.365-10.666
					l-9.637,5.147l-9.413-5.545l1.918,10.755L124.23,469.962z M139.849,460.313l6.098-3.257l-1.496,6.749l4.982,4.793l-6.881,0.663
					l-3.019,6.219l-2.757-6.34l-6.848-0.949l5.178-4.581l-1.213-6.806L139.849,460.313z"/>
				<polygon style="fill:#A4A5A9;" points="125.951,445.252 128.801,449.238 131.071,461.97 128.811,461.294 				"/>
				<polygon style="fill:#A4A5A9;" points="130.495,451.967 133.893,456.804 139.849,460.313 139.908,457.513 				"/>
				<polygon style="fill:#A4A5A9;" points="116.607,472.091 121.385,470.539 134.195,472.314 132.748,474.328 				"/>
				<polygon style="fill:#A4A5A9;" points="129.929,468.19 124.23,469.962 132.412,462.723 135.107,463.61 				"/>
				<polygon style="fill:#A4A5A9;" points="136.776,469.139 139.533,475.479 139.408,481.481 135.051,471.462 				"/>
				<polygon style="fill:#A4A5A9;" points="139.351,484.174 139.245,489.272 146.36,474.612 144.998,472.539 				"/>
				<polygon style="fill:#A4A5A9;" points="144.178,471.652 155.053,470.605 149.433,468.597 142.551,469.26 				"/>
				<polygon style="fill:#A4A5A9;" points="148.551,462.335 157.871,471.3 162.58,473.051 150.837,461.754 				"/>
				<polygon style="fill:#A4A5A9;" points="144.451,463.805 147.18,463.031 149.544,452.365 145.947,457.056 				"/>
				<polygon style="fill:#A4A5A9;" points="151.35,449.709 154.364,445.845 139.991,453.523 139.944,455.802 				"/>
				<polygon style="fill:#FFFFFF;" points="138.926,483.491 139.403,481.708 139.805,483.51 141.588,483.987 139.787,484.389 
					139.31,486.172 138.907,484.371 137.124,483.894 				"/>
				<polygon style="fill:#FFFFFF;" points="151.017,449.723 151.494,447.94 151.897,449.741 153.68,450.218 151.878,450.621 
					151.401,452.404 150.999,450.603 149.216,450.125 				"/>
				<polygon style="fill:#FFFFFF;" points="137.368,480.707 137.669,479.584 137.922,480.718 139.045,481.019 137.91,481.272 
					137.61,482.395 137.356,481.261 136.234,480.96 				"/>
				<polygon style="fill:#FFFFFF;" points="129.897,456.443 130.197,455.321 130.451,456.455 131.574,456.755 130.439,457.009 
					130.139,458.132 129.885,456.997 128.762,456.697 				"/>
			</g>
			<g>
				<path style="fill:#737377;" d="M-28.347,482.3l24,11.34l2.82,26.394l18.202-19.321l25.973,5.475l-12.75-23.281l13.233-23.011
					l-26.082,4.932l-17.795-19.696l-3.369,26.33L-28.347,482.3z M5.472,465.137l8.359,9.251l12.251-2.317l-6.216,10.809
					l5.989,10.936l-12.2-2.572l-8.55,9.075l-1.325-12.398l-11.273-5.327l11.382-5.091L5.472,465.137z"/>
				<path style="fill:#C6C8C9;" d="M-11.904,483.074l13.855,6.547l1.628,15.237l10.508-11.154l14.994,3.16l-7.361-13.44
					l7.639-13.284l-15.057,2.847L4.03,461.617l-1.945,15.2L-11.904,483.074z M13.05,476.711l9.528-1.802l-4.834,8.406l4.658,8.505
					l-9.488-2l-6.649,7.058l-1.03-9.642l-8.767-4.143l8.851-3.959l1.231-9.618L13.05,476.711z"/>
				<path style="fill:#737377;" d="M-8.483,483.43l11.705,5.531l1.375,12.872l8.877-9.423l12.667,2.67l-6.219-11.354l6.454-11.222
					l-12.72,2.405l-8.679-9.606l-1.643,12.841L-8.483,483.43z M12.598,478.054l8.049-1.522l-4.084,7.101l3.935,7.185l-8.016-1.689
					l-5.617,5.962l-0.87-8.145l-7.406-3.5l7.478-3.345l1.04-8.125L12.598,478.054z"/>
				<polygon style="fill:#A4A5A9;" points="-0.747,445.132 4.03,461.617 2.085,476.817 -4.116,471.462 				"/>
				<polygon style="fill:#A4A5A9;" points="4.977,465.303 7.106,471.976 12.598,478.054 13.656,474.909 				"/>
				<polygon style="fill:#A4A5A9;" points="-28.347,482.3 -11.904,483.074 1.951,489.621 -4.347,493.64 				"/>
				<polygon style="fill:#A4A5A9;" points="-1.411,483.446 -8.483,483.43 3.334,478.144 6.066,480.102 				"/>
				<polygon style="fill:#A4A5A9;" points="5.995,486.946 6.865,495.091 4.597,501.833 3.221,488.961 				"/>
				<polygon style="fill:#A4A5A9;" points="3.579,504.858 -1.528,520.034 16.674,500.713 14.087,493.704 				"/>
				<polygon style="fill:#A4A5A9;" points="13.474,492.41 26.141,495.08 20.498,490.818 12.482,489.129 				"/>
				<polygon style="fill:#A4A5A9;" points="21.72,483.424 29.081,496.865 42.648,506.188 29.897,482.907 				"/>
				<polygon style="fill:#A4A5A9;" points="16.563,483.633 19.923,483.726 26.376,472.504 20.647,476.532 				"/>
				<polygon style="fill:#A4A5A9;" points="29.36,470.14 43.13,459.896 17.048,464.828 14.303,472.988 				"/>
				<polygon style="fill:#FFFFFF;" points="3.396,503.735 5.006,501.196 4.754,504.192 7.293,505.802 4.297,505.551 2.687,508.09 
					2.938,505.094 0.4,503.483 				"/>
				<polygon style="fill:#FFFFFF;" points="29.216,469.052 30.827,466.513 30.575,469.509 33.114,471.12 30.118,470.868 
					28.507,473.407 28.759,470.411 26.22,468.801 				"/>
				<polygon style="fill:#FFFFFF;" points="28.135,496.446 29.149,494.847 28.991,496.734 30.59,497.748 28.703,497.59 
					27.689,499.189 27.847,497.302 26.248,496.287 				"/>
				<polygon style="fill:#FFFFFF;" points="-11.601,481.94 -10.587,480.341 -10.745,482.228 -9.147,483.242 -11.033,483.084 
					-12.048,484.683 -11.889,482.796 -13.488,481.782 				"/>
			</g>
			<g>
				<path style="fill:#737377;" d="M76.388,250.195l11.013,21.674L74.635,292.56l24.017-3.777l15.733,18.535l3.83-24.008
					l22.489-9.236l-21.65-11.061l-1.834-24.243l-17.21,17.172L76.388,250.195z M110.501,256.742l0.861,11.387l10.169,5.196
					l-10.564,4.338l-1.799,11.277l-7.39-8.706l-11.281,1.774l5.996-9.719l-5.173-10.181l11.096,2.7L110.501,256.742z"/>
				<path style="fill:#C6C8C9;" d="M87.858,259.98l6.358,12.513l-7.37,11.945l13.865-2.18l9.083,10.7l2.211-13.86l12.983-5.332
					l-12.498-6.386l-1.059-13.995l-9.935,9.913L87.858,259.98z M109.494,269.372l7.909,4.041l-8.215,3.374l-1.399,8.77l-5.747-6.771
					l-8.773,1.38l4.663-7.558l-4.023-7.918l8.629,2.099l6.287-6.273L109.494,269.372z"/>
				<path style="fill:#737377;" d="M90.135,262.157l5.371,10.571l-6.226,10.091l11.713-1.842l7.673,9.039l1.868-11.709l10.968-4.504
					l-10.559-5.395l-0.894-11.823l-8.393,8.375L90.135,262.157z M108.413,270.091l6.681,3.413l-6.94,2.85l-1.182,7.409l-4.855-5.72
					l-7.412,1.165l3.939-6.385l-3.399-6.689l7.29,1.774l5.311-5.299L108.413,270.091z"/>
				<polygon style="fill:#A4A5A9;" points="117.22,238.77 111.431,253.384 101.495,263.298 100.01,255.942 				"/>
				<polygon style="fill:#A4A5A9;" points="110.049,256.585 107.847,262.61 108.413,270.091 110.943,268.408 				"/>
				<polygon style="fill:#A4A5A9;" points="76.388,250.195 87.858,259.98 94.216,272.492 87.401,271.869 				"/>
				<polygon style="fill:#A4A5A9;" points="95.246,266.136 90.135,262.157 101.656,264.96 102.536,267.909 				"/>
				<polygon style="fill:#A4A5A9;" points="98.644,272.824 94.705,279.21 89.28,282.818 95.506,272.727 				"/>
				<polygon style="fill:#A4A5A9;" points="86.846,284.437 74.635,292.56 98.652,288.783 100.711,282.257 				"/>
				<polygon style="fill:#A4A5A9;" points="100.993,280.976 108.666,290.016 106.972,283.764 102.116,278.044 				"/>
				<polygon style="fill:#A4A5A9;" points="112.005,279.097 109.794,292.957 114.385,307.318 118.215,283.309 				"/>
				<polygon style="fill:#A4A5A9;" points="108.154,276.355 110.534,278.307 121.502,273.802 115.094,273.505 				"/>
				<polygon style="fill:#A4A5A9;" points="124.988,273.765 140.704,274.073 119.055,263.012 112.49,267.379 				"/>
				<polygon style="fill:#FFFFFF;" points="87.344,283.521 89.934,282.586 88.071,284.614 89.006,287.205 86.978,285.342 
					84.387,286.276 86.25,284.248 85.316,281.658 				"/>
				<polygon style="fill:#FFFFFF;" points="125.495,272.897 128.085,271.962 126.222,273.99 127.156,276.581 125.129,274.718 
					122.538,275.652 124.401,273.624 123.467,271.034 				"/>
				<polygon style="fill:#FFFFFF;" points="109.344,292.123 110.975,291.535 109.802,292.812 110.39,294.443 109.113,293.27 
					107.482,293.858 108.655,292.581 108.067,290.95 				"/>
				<polygon style="fill:#FFFFFF;" points="88.713,259.329 90.344,258.74 89.171,260.017 89.76,261.649 88.482,260.475 
					86.851,261.064 88.024,259.787 87.436,258.156 				"/>
			</g>
			<g>
				<path style="fill:#737377;" d="M276.338,458.141l13.261,6.266l1.558,14.584l10.057-10.676l14.352,3.025l-7.045-12.864
					l7.312-12.714l-14.411,2.725l-9.833-10.883l-1.862,14.548L276.338,458.141z M295.025,448.658l4.619,5.112l6.769-1.28
					l-3.434,5.972l3.309,6.042l-6.741-1.421l-4.724,5.015l-0.732-6.85l-6.229-2.943l6.289-2.813L295.025,448.658z"/>
				<path style="fill:#C6C8C9;" d="M285.424,458.568l7.656,3.617l0.899,8.419l5.806-6.163l8.285,1.746l-4.067-7.426l4.221-7.34
					l-8.32,1.573l-5.676-6.283l-1.075,8.399L285.424,458.568z M299.212,455.052l5.264-0.996l-2.671,4.645l2.574,4.699l-5.243-1.105
					l-3.674,3.9l-0.569-5.327l-4.844-2.289l4.891-2.188l0.68-5.314L299.212,455.052z"/>
				<path style="fill:#737377;" d="M287.314,458.765l6.467,3.056l0.76,7.113l4.905-5.207l6.999,1.475l-3.436-6.274l3.566-6.201
					l-7.029,1.329l-4.795-5.308l-0.908,7.095L287.314,458.765z M298.962,455.795l4.447-0.841l-2.256,3.924l2.174,3.97l-4.429-0.934
					l-3.104,3.294l-0.481-4.501l-4.092-1.934l4.132-1.848l0.575-4.49L298.962,455.795z"/>
				<polygon style="fill:#A4A5A9;" points="291.588,437.604 294.228,446.712 293.153,455.111 289.727,452.152 				"/>
				<polygon style="fill:#A4A5A9;" points="294.751,448.749 295.928,452.436 298.962,455.795 299.547,454.057 				"/>
				<polygon style="fill:#A4A5A9;" points="276.338,458.141 285.424,458.568 293.079,462.186 289.599,464.407 				"/>
				<polygon style="fill:#A4A5A9;" points="291.221,458.774 287.314,458.765 293.844,455.845 295.353,456.926 				"/>
				<polygon style="fill:#A4A5A9;" points="295.314,460.708 295.795,465.208 294.541,468.934 293.781,461.821 				"/>
				<polygon style="fill:#A4A5A9;" points="293.979,470.605 291.157,478.991 301.215,468.315 299.785,464.442 				"/>
				<polygon style="fill:#A4A5A9;" points="299.446,463.727 306.445,465.203 303.327,462.847 298.898,461.914 				"/>
				<polygon style="fill:#A4A5A9;" points="304.003,458.762 308.07,466.188 315.566,471.34 308.521,458.476 				"/>
				<polygon style="fill:#A4A5A9;" points="301.153,458.878 303.009,458.929 306.575,452.728 303.409,454.954 				"/>
				<polygon style="fill:#A4A5A9;" points="308.224,451.422 315.832,445.762 301.421,448.487 299.904,452.995 				"/>
				<polygon style="fill:#FFFFFF;" points="293.877,469.984 294.767,468.582 294.628,470.237 296.031,471.127 294.376,470.988 
					293.486,472.391 293.625,470.735 292.222,469.845 				"/>
				<polygon style="fill:#FFFFFF;" points="308.145,450.821 309.035,449.418 308.896,451.073 310.298,451.963 308.643,451.824 
					307.753,453.227 307.892,451.572 306.489,450.682 				"/>
				<polygon style="fill:#FFFFFF;" points="307.547,465.957 308.108,465.074 308.02,466.116 308.904,466.677 307.861,466.589 
					307.301,467.473 307.388,466.43 306.505,465.87 				"/>
				<polygon style="fill:#FFFFFF;" points="285.591,457.942 286.151,457.059 286.064,458.101 286.947,458.661 285.905,458.574 
					285.344,459.457 285.432,458.415 284.548,457.854 				"/>
			</g>
			<g>
				<path style="fill:#737377;" d="M216.21,484.462l3.821,8.543l-5.302,7.712l9.306-0.994l5.696,7.426l1.93-9.158l8.823-3.122
					l-8.113-4.666l-0.243-9.356l-6.944,6.274L216.21,484.462z M229.201,487.629l0.114,4.395l3.811,2.192l-4.144,1.467l-0.907,4.302
					l-2.675-3.488l-4.371,0.467l2.491-3.622l-1.795-4.013l4.215,1.249L229.201,487.629z"/>
				<path style="fill:#C6C8C9;" d="M220.433,488.443l2.206,4.932l-3.061,4.452l5.372-0.574l3.288,4.287l1.114-5.287l5.093-1.802
					l-4.684-2.693l-0.14-5.401l-4.009,3.622L220.433,488.443z M228.573,492.466l2.964,1.704l-3.223,1.141l-0.705,3.345l-2.081-2.713
					l-3.399,0.363l1.937-2.817l-1.396-3.121l3.278,0.972l2.537-2.292L228.573,492.466z"/>
				<path style="fill:#737377;" d="M221.267,489.323l1.864,4.167l-2.586,3.761l4.538-0.485l2.778,3.622l0.941-4.466l4.303-1.523
					l-3.957-2.275l-0.119-4.563l-3.387,3.06L221.267,489.323z M228.143,492.722l2.504,1.44l-2.723,0.964l-0.596,2.826l-1.758-2.292
					l-2.872,0.307l1.636-2.38l-1.179-2.636l2.769,0.821l2.143-1.936L228.143,492.722z"/>
				<polygon style="fill:#A4A5A9;" points="232.127,480.848 229.622,486.356 225.613,489.978 225.183,487.122 				"/>
				<polygon style="fill:#A4A5A9;" points="229.03,487.56 228.068,489.835 228.143,492.722 229.149,492.123 				"/>
				<polygon style="fill:#A4A5A9;" points="216.21,484.462 220.433,488.443 222.639,493.375 220.031,493.005 				"/>
				<polygon style="fill:#A4A5A9;" points="223.156,490.95 221.267,489.323 225.643,490.62 225.925,491.771 				"/>
				<polygon style="fill:#A4A5A9;" points="224.336,493.587 222.699,495.967 220.545,497.251 223.131,493.49 				"/>
				<polygon style="fill:#A4A5A9;" points="219.578,497.827 214.729,500.717 224.035,499.723 224.951,497.253 				"/>
				<polygon style="fill:#A4A5A9;" points="225.083,496.766 227.861,500.387 227.329,497.951 225.571,495.66 				"/>
				<polygon style="fill:#A4A5A9;" points="229.353,496.253 228.239,501.54 229.73,507.148 231.66,497.991 				"/>
				<polygon style="fill:#A4A5A9;" points="227.924,495.125 228.802,495.921 233.105,494.398 230.647,494.162 				"/>
				<polygon style="fill:#A4A5A9;" points="234.446,494.451 240.483,494.869 232.37,490.203 229.763,491.757 				"/>
				<polygon style="fill:#FFFFFF;" points="219.787,497.484 220.801,497.174 220.046,497.918 220.356,498.932 219.611,498.177 
					218.598,498.487 219.353,497.743 219.043,496.729 				"/>
				<polygon style="fill:#FFFFFF;" points="234.658,494.126 235.671,493.816 234.916,494.561 235.226,495.574 234.482,494.819 
					233.468,495.129 234.223,494.385 233.913,493.371 				"/>
				<polygon style="fill:#FFFFFF;" points="228.081,501.211 228.72,501.015 228.244,501.484 228.44,502.122 227.971,501.647 
					227.333,501.842 227.808,501.374 227.613,500.735 				"/>
				<polygon style="fill:#FFFFFF;" points="220.775,488.209 221.413,488.013 220.938,488.482 221.133,489.121 220.664,488.645 
					220.026,488.84 220.501,488.372 220.306,487.733 				"/>
			</g>
			<g>
				<path style="fill:#737377;" d="M22.913,339.035l7.762,17.257l-10.688,15.614l18.81-2.049l11.547,14.99l3.864-18.523l17.825-6.35
					l-16.423-9.398l-0.531-18.914l-14.013,12.714L22.913,339.035z M50.46,342.788l0.3,10.69l9.281,5.312l-10.074,3.589
					l-2.184,10.468l-6.526-8.472l-10.631,1.158l6.04-8.824l-4.387-9.753l10.259,3.018L50.46,342.788z"/>
				<path style="fill:#C6C8C9;" d="M27.389,342.776l6.16,13.695l-8.483,12.392l14.929-1.626l9.164,11.897l3.066-14.701l14.146-5.039
					l-13.033-7.459l-0.421-15.011l-11.121,10.091L27.389,342.776z M50.035,353.912l8.247,4.72l-8.951,3.189l-1.94,9.302
					l-5.799-7.528l-9.446,1.029l5.367-7.841l-3.898-8.666l9.116,2.682l7.037-6.385L50.035,353.912z"/>
				<path style="fill:#737377;" d="M29.711,345.218l5.204,11.57l-7.166,10.469l12.612-1.374l7.742,10.05l2.59-12.419l11.951-4.257
					l-11.011-6.301l-0.356-12.681l-9.395,8.525L29.711,345.218z M48.843,354.626l6.967,3.987l-7.562,2.694l-1.639,7.858
					l-4.899-6.359l-7.98,0.869l4.534-6.624l-3.293-7.321l7.701,2.266l5.945-5.394L48.843,354.626z"/>
				<polygon style="fill:#A4A5A9;" points="55.078,331.66 52.917,336.924 41.795,347.014 41.065,344.375 				"/>
				<polygon style="fill:#A4A5A9;" points="51.277,340.274 48.618,346.602 48.843,354.626 51.633,352.955 				"/>
				<polygon style="fill:#A4A5A9;" points="22.913,339.035 27.389,342.776 33.549,356.472 30.674,356.291 				"/>
				<polygon style="fill:#A4A5A9;" points="34.972,349.73 29.711,345.218 41.882,348.799 42.673,351.996 				"/>
				<polygon style="fill:#A4A5A9;" points="38.265,357.051 33.73,363.675 27.749,367.257 34.915,356.788 				"/>
				<polygon style="fill:#A4A5A9;" points="25.066,368.863 19.986,371.905 38.797,369.856 39.995,367.237 				"/>
				<polygon style="fill:#A4A5A9;" points="40.361,365.883 48.103,375.933 46.609,369.165 41.71,362.806 				"/>
				<polygon style="fill:#A4A5A9;" points="52.225,364.433 49.159,379.134 50.343,384.846 54.207,366.323 				"/>
				<polygon style="fill:#A4A5A9;" points="48.248,361.307 50.693,363.514 62.644,359.257 55.81,358.613 				"/>
				<polygon style="fill:#A4A5A9;" points="66.371,359.394 72.032,359.973 55.609,350.575 53.338,351.935 				"/>
				<polygon style="fill:#FFFFFF;" points="25.474,368.023 27.523,367.392 25.999,368.9 26.63,370.948 25.123,369.425 
					23.074,370.056 24.598,368.548 23.967,366.5 				"/>
				<polygon style="fill:#FFFFFF;" points="66.152,359.074 68.2,358.443 66.677,359.951 67.308,361.999 65.8,360.476 
					63.752,361.107 65.275,359.599 64.644,357.551 				"/>
				<polygon style="fill:#FFFFFF;" points="27.252,364.773 28.542,364.375 27.583,365.325 27.98,366.615 27.03,365.655 
					25.74,366.053 26.7,365.103 26.302,363.813 				"/>
				<polygon style="fill:#FFFFFF;" points="46.506,342.449 47.796,342.051 46.837,343.001 47.234,344.291 46.285,343.332 
					44.995,343.729 45.954,342.779 45.557,341.489 				"/>
			</g>
			<g>
				<polygon style="fill:#A4A5A9;" points="85.634,492.419 87.898,494.785 87.057,497.95 90.007,496.528 92.757,498.306 
					92.316,495.061 94.857,492.995 91.635,492.411 90.455,489.356 88.904,492.24 				"/>
				<polygon style="fill:#C6C8C9;" points="85.634,492.419 87.898,494.785 87.057,497.95 90.007,496.528 92.757,498.306 
					88.904,492.24 				"/>
			</g>
			<g>
				<polygon style="fill:#A4A5A9;" points="32.721,286.567 34.985,288.933 34.144,292.098 37.094,290.676 39.844,292.454 
					39.404,289.209 41.944,287.143 38.722,286.559 37.542,283.504 35.991,286.388 				"/>
				<polygon style="fill:#C6C8C9;" points="32.721,286.567 34.985,288.933 34.144,292.098 37.094,290.676 39.844,292.454 
					35.991,286.388 				"/>
			</g>
			<g>
				<polygon style="fill:#A4A5A9;" points="28.712,156.369 33.615,156.254 36.266,160.379 37.672,155.682 42.414,154.435 
					38.381,151.646 38.661,146.751 34.762,149.725 30.192,147.946 31.816,152.573 				"/>
				<polygon style="fill:#C6C8C9;" points="28.712,156.369 33.615,156.254 36.266,160.379 37.672,155.682 42.414,154.435 
					31.816,152.573 				"/>
			</g>
			<g>
				<polygon style="fill:#A4A5A9;" points="220.562,432.767 225.464,432.652 228.115,436.777 229.521,432.079 234.263,430.833 
					230.23,428.044 230.51,423.148 226.611,426.122 222.042,424.344 223.666,428.97 				"/>
				<polygon style="fill:#C6C8C9;" points="220.562,432.767 225.464,432.652 228.115,436.777 229.521,432.079 234.263,430.833 
					223.666,428.97 				"/>
			</g>
			<g>
				<polygon style="fill:#A4A5A9;" points="71.609,402.141 74.94,405.74 73.602,410.457 78.054,408.402 82.128,411.132 
					81.549,406.263 85.404,403.232 80.594,402.278 78.903,397.675 76.509,401.955 				"/>
				<polygon style="fill:#C6C8C9;" points="71.609,402.141 74.94,405.74 73.602,410.457 78.054,408.402 82.128,411.132 
					76.509,401.955 				"/>
			</g>
			<g>
				<polygon style="fill:#A4A5A9;" points="218.165,317.315 221.197,316.983 223.059,319.399 223.681,316.413 226.553,315.389 
					223.906,313.875 223.82,310.826 221.561,312.876 218.635,312.016 219.887,314.797 				"/>
				<polygon style="fill:#C6C8C9;" points="218.165,317.315 221.197,316.983 223.059,319.399 223.681,316.413 226.553,315.389 
					219.887,314.797 				"/>
			</g>
			<polygon style="fill:#FFFFFF;" points="113.306,338.576 113.99,335.47 114.823,338.539 117.929,339.223 114.859,340.056 
				114.176,343.162 113.343,340.092 110.237,339.409 			"/>
			<polygon style="fill:#FFFFFF;" points="0.999,402.085 1.683,398.979 2.515,402.049 5.622,402.732 2.552,403.565 1.869,406.671 
				1.036,403.602 -2.071,402.918 			"/>
			<polygon style="fill:#FFFFFF;" points="93.494,188.778 94.178,185.671 95.011,188.741 98.117,189.424 95.047,190.257 
				94.364,193.364 93.531,190.294 90.425,189.611 			"/>
			<polygon style="fill:#FFFFFF;" points="353.057,483.554 353.379,482.088 353.772,483.536 355.237,483.859 353.789,484.251 
				353.467,485.717 353.074,484.269 351.609,483.947 			"/>
			<polygon style="fill:#FFFFFF;" points="11.025,113.17 11.347,111.704 11.74,113.152 13.205,113.475 11.757,113.868 
				11.435,115.333 11.042,113.885 9.576,113.562 			"/>
			<polygon style="fill:#FFFFFF;" points="185.788,460.438 186.11,458.973 186.503,460.421 187.969,460.743 186.52,461.136 
				186.198,462.601 185.805,461.153 184.34,460.831 			"/>
			<polygon style="fill:#FFFFFF;" points="6.265,262.979 6.588,261.514 6.981,262.962 8.446,263.284 6.998,263.677 6.676,265.142 
				6.283,263.694 4.817,263.372 			"/>
			<polygon style="fill:#FFFFFF;" points="159.857,288.82 160.179,287.355 160.572,288.803 162.037,289.125 160.589,289.518 
				160.267,290.983 159.874,289.535 158.408,289.213 			"/>
			<polygon style="fill:#FFFFFF;" points="271.319,410.576 272.003,407.47 272.836,410.539 275.942,411.223 272.872,412.056 
				272.189,415.162 271.356,412.092 268.25,411.409 			"/>
			<polygon style="fill:#FFFFFF;" points="68.3,463.767 68.984,460.66 69.817,463.73 72.923,464.414 69.853,465.247 69.17,468.353 
				68.337,465.283 65.23,464.6 			"/>
		</g>
		<g style="clip-path:url(#SVGID_00000100362421722245687040000009958846017527002808_);">
			<g>
				<path style="fill:#737377;" d="M764.223,300.555l-2.051-17.833l14.155-11.04l-17.594-3.56l-6.125-16.874l-8.823,15.633
					l-17.941,0.611l12.142,13.222l-4.963,17.251l16.327-7.461L764.223,300.555z M740.399,289.234l2.805-9.75l-6.862-7.473
					l10.139-0.345l4.986-8.835l3.462,9.536l9.944,2.012l-8,6.239l1.159,10.079l-8.406-5.68L740.399,289.234z"/>
				<path style="fill:#C6C8C9;" d="M761.253,295.884l-1.628-14.153l11.234-8.761l-13.964-2.826l-4.861-13.392l-7.002,12.407
					l-14.238,0.485l9.636,10.493l-3.939,13.691l12.957-5.922L761.253,295.884z M743.985,279.3l-6.097-6.64l9.009-0.307l4.431-7.851
					l3.076,8.474l8.836,1.788l-7.108,5.544l1.03,8.956l-7.469-5.047l-8.199,3.747L743.985,279.3z"/>
				<path style="fill:#737377;" d="M759.856,293.008l-1.375-11.957l9.491-7.402l-11.796-2.387l-4.107-11.313l-5.915,10.482
					l-12.029,0.41l8.141,8.865l-3.328,11.566l10.947-5.003L759.856,293.008z M745.268,278.998l-5.151-5.609l7.611-0.259l3.743-6.632
					l2.599,7.159l7.464,1.51l-6.005,4.683l0.87,7.566l-6.31-4.264l-6.927,3.165L745.268,278.998z"/>
				<polygon style="fill:#A4A5A9;" points="733.023,297.965 736.492,293.829 749.449,287.907 749.35,290.504 				"/>
				<polygon style="fill:#A4A5A9;" points="738.938,291.272 743.163,286.317 745.268,278.998 742.265,279.706 				"/>
				<polygon style="fill:#A4A5A9;" points="764.223,300.555 761.253,295.884 759.625,281.731 762.172,282.721 				"/>
				<polygon style="fill:#A4A5A9;" points="756.399,287.415 759.856,293.008 749.884,286.269 750.089,283.151 				"/>
				<polygon style="fill:#A4A5A9;" points="755.529,279.85 761.534,275.166 767.972,273.65 758.481,281.051 				"/>
				<polygon style="fill:#A4A5A9;" points="770.859,272.97 776.327,271.681 758.733,268.121 756.896,270.144 				"/>
				<polygon style="fill:#A4A5A9;" points="756.175,271.263 752.068,259.95 751.471,266.497 754.07,273.656 				"/>
				<polygon style="fill:#A4A5A9;" points="745.033,269.159 752.035,256.752 752.608,251.247 743.785,266.881 				"/>
				<polygon style="fill:#A4A5A9;" points="747.728,273.13 746.153,270.431 734.125,270.841 740.117,273.389 				"/>
				<polygon style="fill:#A4A5A9;" points="730.794,269.644 725.844,267.492 737.986,280.714 740.43,280.138 				"/>
				<polygon style="fill:#FFFFFF;" points="770.249,273.611 768.215,273.592 770.026,272.668 770.045,270.634 770.97,272.445 
					773.003,272.465 771.192,273.389 771.173,275.422 				"/>
				<polygon style="fill:#FFFFFF;" points="730.901,269.996 728.867,269.977 730.678,269.052 730.697,267.019 731.622,268.83 
					733.655,268.849 731.844,269.774 731.825,271.807 				"/>
				<polygon style="fill:#FFFFFF;" points="767.706,276.039 766.426,276.026 767.566,275.444 767.578,274.164 768.161,275.304 
					769.441,275.316 768.301,275.899 768.289,277.179 				"/>
				<polygon style="fill:#FFFFFF;" points="743.877,290.679 742.596,290.667 743.737,290.085 743.749,288.804 744.331,289.945 
					745.611,289.957 744.471,290.539 744.459,291.819 				"/>
			</g>
			<g>
				<path style="fill:#737377;" d="M603.676,125.279l-15.172-9.594l0.288-17.949L574.979,109.2l-16.981-5.82l6.635,16.68
					l-10.783,14.352l17.914-1.156l10.317,14.69l4.437-17.394L603.676,125.279z M579.912,136.723l-5.831-8.302l-10.124,0.653
					l6.094-8.111l-3.75-9.427l9.597,3.289l7.807-6.479l-0.163,10.144l8.575,5.422l-9.698,2.98L579.912,136.723z"/>
				<path style="fill:#C6C8C9;" d="M598.176,124.66l-12.041-7.615l0.229-14.245l-10.963,9.099l-13.477-4.619l5.266,13.238
					l-8.558,11.39l14.217-0.917l8.188,11.659l3.521-13.805L598.176,124.66z M574.428,127.698l-8.996,0.58l5.415-7.207l-3.332-8.376
					l8.528,2.923l6.937-5.757l-0.145,9.014l7.619,4.818l-8.617,2.648l-2.228,8.735L574.428,127.698z"/>
				<path style="fill:#737377;" d="M595.06,123.943l-10.172-6.433l0.193-12.034l-9.261,7.687l-11.385-3.902l4.448,11.183
					l-7.229,9.622l12.01-0.775l6.917,9.849l2.974-11.662L595.06,123.943z M574.998,126.509l-7.6,0.49l4.575-6.089l-2.815-7.076
					l7.204,2.469l5.86-4.864l-0.122,7.615l6.437,4.07l-7.28,2.237l-1.882,7.379L574.998,126.509z"/>
				<polygon style="fill:#A4A5A9;" points="582.081,147.945 581.037,142.649 584.558,128.845 586.517,130.551 				"/>
				<polygon style="fill:#A4A5A9;" points="580.581,139.14 579.375,132.741 574.998,126.509 573.664,129.291 				"/>
				<polygon style="fill:#A4A5A9;" points="603.676,125.279 598.176,124.66 586.135,117.046 588.504,115.684 				"/>
				<polygon style="fill:#A4A5A9;" points="588.537,123.125 595.06,123.943 583.556,127.478 581.257,125.362 				"/>
				<polygon style="fill:#A4A5A9;" points="582.1,119.054 582.222,111.44 585.081,105.476 584.888,117.51 				"/>
				<polygon style="fill:#A4A5A9;" points="586.364,102.801 588.792,97.735 574.979,109.2 575.401,111.899 				"/>
				<polygon style="fill:#A4A5A9;" points="575.82,113.163 564.435,109.26 569.158,113.834 576.362,116.304 				"/>
				<polygon style="fill:#A4A5A9;" points="567.19,120.518 561.924,107.28 557.998,103.38 564.633,120.06 				"/>
				<polygon style="fill:#A4A5A9;" points="571.973,120.911 568.883,120.444 561.654,130.066 567.398,126.999 				"/>
				<polygon style="fill:#A4A5A9;" points="558.632,131.908 553.85,134.411 571.763,133.255 572.849,130.991 				"/>
				<polygon style="fill:#FFFFFF;" points="586.48,103.679 585.19,105.25 585.606,103.26 584.035,101.969 586.025,102.386 
					587.316,100.815 586.899,102.805 588.471,104.096 				"/>
				<polygon style="fill:#FFFFFF;" points="558.973,132.046 557.682,133.617 558.099,131.627 556.528,130.336 558.518,130.753 
					559.809,129.182 559.392,131.172 560.963,132.463 				"/>
				<polygon style="fill:#FFFFFF;" points="586.775,107.182 585.962,108.171 586.224,106.918 585.235,106.105 586.488,106.367 
					587.301,105.378 587.039,106.631 588.028,107.444 				"/>
				<polygon style="fill:#FFFFFF;" points="583.219,134.923 582.406,135.912 582.669,134.659 581.679,133.846 582.932,134.108 
					583.745,133.119 583.483,134.372 584.472,135.185 				"/>
			</g>
			<g>
				<path style="fill:#737377;" d="M629.952,23.505l-16.141-2.237l-6.497-14.943l-7.115,14.659l-16.22,1.562l11.743,11.297
					l-3.527,15.909l14.373-7.677l14.04,8.27l-2.86-16.042L629.952,23.505z M614.604,41.882l-7.935-4.674l-8.123,4.339l1.993-8.991
					l-6.637-6.385l9.167-0.882l4.021-8.285l3.672,8.445l9.122,1.264l-6.897,6.102L614.604,41.882z"/>
				<path style="fill:#C6C8C9;" d="M625.174,25.057l-12.81-1.775l-5.156-11.86l-5.647,11.634l-12.873,1.239l9.32,8.966
					l-2.799,12.626l11.407-6.093l11.143,6.564l-2.27-12.731L625.174,25.057z M606.684,36.479l-7.218,3.855l1.771-7.989l-5.897-5.673
					l8.145-0.784l3.573-7.362l3.263,7.504l8.105,1.123l-6.129,5.422l1.436,8.056L606.684,36.479z"/>
				<path style="fill:#737377;" d="M622.329,25.634l-10.822-1.5l-4.356-10.019l-4.771,9.829l-10.875,1.047l7.873,7.574
					l-2.365,10.666l9.636-5.147l9.413,5.545l-1.918-10.756L622.329,25.634z M606.709,35.283l-6.098,3.257l1.496-6.749l-4.982-4.793
					l6.881-0.663l3.019-6.219l2.756,6.34l6.847,0.949l-5.177,4.581l1.213,6.806L606.709,35.283z"/>
				<polygon style="fill:#A4A5A9;" points="620.607,50.343 617.758,46.357 615.488,33.626 617.747,34.302 				"/>
				<polygon style="fill:#A4A5A9;" points="616.064,43.628 612.666,38.792 606.709,35.283 606.651,38.083 				"/>
				<polygon style="fill:#A4A5A9;" points="629.952,23.505 625.174,25.057 612.364,23.282 613.811,21.268 				"/>
				<polygon style="fill:#A4A5A9;" points="616.63,27.406 622.329,25.634 614.146,32.873 611.452,31.986 				"/>
				<polygon style="fill:#A4A5A9;" points="609.782,26.456 607.026,20.117 607.151,14.115 611.507,24.134 				"/>
				<polygon style="fill:#A4A5A9;" points="607.207,11.422 607.314,6.324 600.199,20.983 601.56,23.056 				"/>
				<polygon style="fill:#A4A5A9;" points="602.381,23.943 591.506,24.99 597.126,26.998 604.007,26.336 				"/>
				<polygon style="fill:#A4A5A9;" points="598.008,33.261 588.688,24.295 583.979,22.545 595.722,33.842 				"/>
				<polygon style="fill:#A4A5A9;" points="602.108,31.791 599.379,32.564 597.014,43.231 600.612,38.54 				"/>
				<polygon style="fill:#A4A5A9;" points="595.208,45.887 592.195,49.75 606.568,42.073 606.615,39.794 				"/>
				<polygon style="fill:#FFFFFF;" points="607.633,12.104 607.156,13.887 606.753,12.086 604.97,11.609 606.772,11.206 
					607.249,9.423 607.652,11.225 609.435,11.702 				"/>
				<polygon style="fill:#FFFFFF;" points="595.542,45.873 595.064,47.656 594.662,45.855 592.879,45.377 594.68,44.975 
					595.158,43.192 595.56,44.993 597.343,45.471 				"/>
				<polygon style="fill:#FFFFFF;" points="609.191,14.889 608.89,16.012 608.637,14.877 607.514,14.577 608.648,14.323 
					608.949,13.2 609.202,14.335 610.325,14.635 				"/>
				<polygon style="fill:#FFFFFF;" points="616.662,39.152 616.361,40.275 616.108,39.141 614.985,38.84 616.119,38.587 
					616.42,37.464 616.673,38.598 617.796,38.899 				"/>
			</g>
			<g>
				<path style="fill:#737377;" d="M774.906,13.296l-24-11.34l-2.82-26.394L729.884-5.118l-25.973-5.475l12.75,23.281L703.429,35.7
					l26.082-4.932l17.795,19.696l3.369-26.329L774.906,13.296z M741.086,30.458l-8.359-9.252l-12.251,2.317l6.216-10.809
					l-5.989-10.936l12.2,2.572l8.55-9.075l1.324,12.398L754.051,13l-11.382,5.091L741.086,30.458z"/>
				<path style="fill:#C6C8C9;" d="M758.463,12.522l-13.855-6.547L742.98-9.262L732.472,1.892l-14.994-3.161l7.361,13.44
					l-7.639,13.284l15.057-2.847l10.273,11.37l1.945-15.2L758.463,12.522z M733.509,18.885l-9.528,1.802l4.834-8.406l-4.658-8.504
					l9.488,2l6.649-7.058l1.03,9.641l8.767,4.143l-8.851,3.959l-1.231,9.618L733.509,18.885z"/>
				<path style="fill:#737377;" d="M755.042,12.166l-11.705-5.531l-1.375-12.872l-8.877,9.423l-12.667-2.67l6.219,11.354
					l-6.454,11.222l12.72-2.405l8.679,9.606l1.643-12.841L755.042,12.166z M733.961,17.541l-8.049,1.522l4.084-7.101l-3.935-7.185
					l8.015,1.689l5.617-5.962l0.87,8.145l7.406,3.5l-7.478,3.344l-1.04,8.125L733.961,17.541z"/>
				<polygon style="fill:#A4A5A9;" points="747.306,50.463 742.529,33.979 744.474,18.778 750.675,24.134 				"/>
				<polygon style="fill:#A4A5A9;" points="741.581,30.292 739.453,23.619 733.961,17.541 732.903,20.687 				"/>
				<polygon style="fill:#A4A5A9;" points="774.906,13.296 758.463,12.522 744.608,5.975 750.906,1.956 				"/>
				<polygon style="fill:#A4A5A9;" points="747.97,12.15 755.042,12.166 743.224,17.451 740.492,15.494 				"/>
				<polygon style="fill:#A4A5A9;" points="740.564,8.65 739.693,0.505 741.962,-6.237 743.337,6.635 				"/>
				<polygon style="fill:#A4A5A9;" points="742.98,-9.262 748.086,-24.438 729.884,-5.118 732.472,1.892 				"/>
				<polygon style="fill:#A4A5A9;" points="733.085,3.185 720.418,0.515 726.061,4.778 734.076,6.467 				"/>
				<polygon style="fill:#A4A5A9;" points="724.838,12.172 717.477,-1.269 703.911,-10.592 716.661,12.689 				"/>
				<polygon style="fill:#A4A5A9;" points="729.996,11.962 726.636,11.87 720.182,23.092 725.912,19.063 				"/>
				<polygon style="fill:#A4A5A9;" points="717.199,25.455 703.429,35.7 729.511,30.768 732.256,22.608 				"/>
				<polygon style="fill:#FFFFFF;" points="743.163,-8.139 741.552,-5.6 741.804,-8.596 739.265,-10.207 742.261,-9.955 
					743.872,-12.494 743.62,-9.498 746.159,-7.887 				"/>
				<polygon style="fill:#FFFFFF;" points="717.342,26.543 715.732,29.082 715.983,26.086 713.444,24.476 716.441,24.727 
					718.051,22.188 717.799,25.185 720.338,26.795 				"/>
				<polygon style="fill:#FFFFFF;" points="718.423,-0.85 717.409,0.749 717.568,-1.138 715.969,-2.152 717.856,-1.994 
					718.87,-3.593 718.711,-1.706 720.31,-0.692 				"/>
				<polygon style="fill:#FFFFFF;" points="758.16,13.656 757.146,15.254 757.304,13.368 755.705,12.353 757.592,12.512 
					758.606,10.913 758.448,12.8 760.047,13.814 				"/>
			</g>
			<g>
				<path style="fill:#737377;" d="M670.171,245.401l-11.013-21.674l12.766-20.691l-24.017,3.777l-15.733-18.535l-3.83,24.008
					l-22.489,9.236l21.65,11.061l1.834,24.243l17.21-17.172L670.171,245.401z M636.058,238.854l-0.862-11.387l-10.169-5.196
					l10.564-4.338l1.799-11.277l7.39,8.706l11.281-1.774l-5.996,9.719l5.173,10.181l-11.096-2.699L636.058,238.854z"/>
				<path style="fill:#C6C8C9;" d="M658.701,235.616l-6.358-12.512l7.37-11.945l-13.865,2.18l-9.083-10.7l-2.211,13.86
					l-12.983,5.332l12.498,6.386l1.059,13.995l9.935-9.913L658.701,235.616z M637.065,226.224l-7.909-4.041l8.215-3.374l1.399-8.77
					l5.747,6.77l8.773-1.38l-4.663,7.558l4.023,7.917l-8.629-2.099l-6.287,6.273L637.065,226.224z"/>
				<path style="fill:#737377;" d="M656.424,233.439l-5.371-10.57l6.226-10.091l-11.713,1.842l-7.673-9.039l-1.868,11.709
					l-10.968,4.504l10.559,5.395l0.894,11.823l8.393-8.375L656.424,233.439z M638.146,225.504l-6.681-3.413l6.94-2.85l1.182-7.409
					l4.855,5.72l7.411-1.166l-3.939,6.385l3.399,6.689l-7.29-1.773l-5.311,5.299L638.146,225.504z"/>
				<polygon style="fill:#A4A5A9;" points="629.338,256.826 635.128,242.212 645.063,232.298 646.548,239.654 				"/>
				<polygon style="fill:#A4A5A9;" points="636.51,239.011 638.712,232.986 638.146,225.504 635.615,227.188 				"/>
				<polygon style="fill:#A4A5A9;" points="670.171,245.401 658.701,235.616 652.343,223.103 659.158,223.727 				"/>
				<polygon style="fill:#A4A5A9;" points="651.313,229.46 656.424,233.439 644.903,230.636 644.023,227.686 				"/>
				<polygon style="fill:#A4A5A9;" points="647.914,222.771 651.854,216.386 657.279,212.777 651.053,222.868 				"/>
				<polygon style="fill:#A4A5A9;" points="659.712,211.159 671.923,203.036 647.906,206.813 645.847,213.339 				"/>
				<polygon style="fill:#A4A5A9;" points="645.566,214.619 637.892,205.58 639.587,211.832 644.442,217.552 				"/>
				<polygon style="fill:#A4A5A9;" points="634.554,216.499 636.765,202.639 632.173,188.278 628.344,212.286 				"/>
				<polygon style="fill:#A4A5A9;" points="638.405,219.241 636.025,217.289 625.056,221.793 631.465,222.091 				"/>
				<polygon style="fill:#A4A5A9;" points="621.571,221.831 605.854,221.522 627.504,232.583 634.069,228.216 				"/>
				<polygon style="fill:#FFFFFF;" points="659.215,212.075 656.625,213.009 658.488,210.981 657.553,208.391 659.581,210.254 
					662.171,209.32 660.308,211.347 661.243,213.938 				"/>
				<polygon style="fill:#FFFFFF;" points="621.064,222.699 618.474,223.633 620.337,221.605 619.402,219.015 621.43,220.878 
					624.021,219.943 622.157,221.971 623.092,224.562 				"/>
				<polygon style="fill:#FFFFFF;" points="637.215,203.473 635.584,204.061 636.757,202.784 636.168,201.153 637.445,202.326 
					639.077,201.738 637.903,203.015 638.492,204.646 				"/>
				<polygon style="fill:#FFFFFF;" points="657.846,236.267 656.214,236.855 657.388,235.578 656.799,233.947 658.076,235.12 
					659.707,234.532 658.534,235.809 659.123,237.44 				"/>
			</g>
			<g>
				<path style="fill:#737377;" d="M470.221,37.455l-13.261-6.266l-1.558-14.584l-10.057,10.676l-14.351-3.025l7.045,12.864
					l-7.312,12.714l14.411-2.725l9.833,10.883l1.861-14.548L470.221,37.455z M451.534,46.938l-4.619-5.112l-6.769,1.28l3.435-5.972
					l-3.309-6.043l6.741,1.421l4.724-5.015l0.732,6.85l6.229,2.943l-6.289,2.813L451.534,46.938z"/>
				<path style="fill:#C6C8C9;" d="M461.135,37.027l-7.656-3.617l-0.899-8.419l-5.806,6.163l-8.285-1.746l4.067,7.426l-4.221,7.34
					l8.32-1.573l5.676,6.283l1.075-8.399L461.135,37.027z M447.347,40.543l-5.264,0.995l2.671-4.645l-2.574-4.699l5.243,1.105
					l3.674-3.9l0.569,5.327l4.844,2.289l-4.891,2.188l-0.68,5.314L447.347,40.543z"/>
				<path style="fill:#737377;" d="M459.245,36.831l-6.467-3.056l-0.76-7.113l-4.905,5.206l-6.999-1.475l3.436,6.274l-3.566,6.201
					l7.029-1.329l4.795,5.308l0.908-7.095L459.245,36.831z M447.597,39.801l-4.447,0.841l2.256-3.924l-2.174-3.97l4.429,0.933
					l3.104-3.295l0.481,4.501l4.092,1.934l-4.132,1.848l-0.574,4.49L447.597,39.801z"/>
				<polygon style="fill:#A4A5A9;" points="454.97,57.992 452.331,48.883 453.406,40.485 456.832,43.444 				"/>
				<polygon style="fill:#A4A5A9;" points="451.807,46.847 450.631,43.159 447.597,39.801 447.012,41.539 				"/>
				<polygon style="fill:#A4A5A9;" points="470.221,37.455 461.135,37.027 453.479,33.41 456.96,31.189 				"/>
				<polygon style="fill:#A4A5A9;" points="455.337,36.822 459.245,36.831 452.715,39.751 451.206,38.67 				"/>
				<polygon style="fill:#A4A5A9;" points="451.245,34.888 450.764,30.387 452.018,26.662 452.777,33.775 				"/>
				<polygon style="fill:#A4A5A9;" points="452.58,24.991 455.401,16.605 445.344,27.281 446.774,31.154 				"/>
				<polygon style="fill:#A4A5A9;" points="447.113,31.868 440.113,30.393 443.232,32.748 447.66,33.682 				"/>
				<polygon style="fill:#A4A5A9;" points="442.556,36.834 438.489,29.407 430.993,24.256 438.038,37.12 				"/>
				<polygon style="fill:#A4A5A9;" points="445.406,36.718 443.549,36.667 439.983,42.868 443.149,40.642 				"/>
				<polygon style="fill:#A4A5A9;" points="438.335,44.174 430.726,49.834 445.138,47.109 446.655,42.6 				"/>
				<polygon style="fill:#FFFFFF;" points="452.681,25.611 451.791,27.014 451.93,25.359 450.528,24.469 452.183,24.608 
					453.073,23.205 452.934,24.861 454.337,25.75 				"/>
				<polygon style="fill:#FFFFFF;" points="438.414,44.775 437.524,46.178 437.663,44.522 436.26,43.632 437.916,43.771 
					438.806,42.369 438.667,44.024 440.07,44.914 				"/>
				<polygon style="fill:#FFFFFF;" points="439.012,29.639 438.451,30.522 438.539,29.479 437.655,28.919 438.698,29.007 
					439.258,28.123 439.171,29.166 440.054,29.726 				"/>
				<polygon style="fill:#FFFFFF;" points="460.968,37.654 460.407,38.537 460.495,37.495 459.611,36.934 460.654,37.022 
					461.214,36.138 461.127,37.181 462.01,37.741 				"/>
			</g>
			<g>
				<path style="fill:#737377;" d="M530.349,11.134l-3.821-8.543l5.302-7.712l-9.306,0.994l-5.696-7.426l-1.93,9.158l-8.823,3.122
					l8.113,4.665l0.243,9.356l6.944-6.274L530.349,11.134z M517.358,7.966l-0.114-4.395l-3.811-2.191l4.144-1.467l0.906-4.302
					l2.676,3.488l4.371-0.467l-2.491,3.622l1.795,4.013l-4.215-1.249L517.358,7.966z"/>
				<path style="fill:#C6C8C9;" d="M526.125,7.153l-2.206-4.932l3.061-4.452l-5.372,0.574l-3.288-4.287l-1.114,5.287l-5.093,1.803
					l4.684,2.693l0.14,5.401l4.009-3.622L526.125,7.153z M517.986,3.129l-2.964-1.704l3.223-1.141l0.705-3.345l2.081,2.713
					l3.399-0.363l-1.937,2.817l1.396,3.121l-3.278-0.972l-2.537,2.292L517.986,3.129z"/>
				<path style="fill:#737377;" d="M525.292,6.273l-1.864-4.167l2.586-3.761l-4.539,0.485l-2.778-3.622l-0.941,4.466l-4.303,1.523
					l3.957,2.275l0.118,4.563l3.387-3.06L525.292,6.273z M518.415,2.874l-2.504-1.44l2.723-0.964l0.596-2.826l1.758,2.292
					l2.872-0.307l-1.636,2.38l1.179,2.636l-2.769-0.821l-2.143,1.936L518.415,2.874z"/>
				<polygon style="fill:#A4A5A9;" points="514.432,14.748 516.936,9.24 520.945,5.617 521.376,8.474 				"/>
				<polygon style="fill:#A4A5A9;" points="517.529,8.035 518.49,5.761 518.415,2.874 517.41,3.473 				"/>
				<polygon style="fill:#A4A5A9;" points="530.349,11.134 526.125,7.153 523.919,2.221 526.528,2.591 				"/>
				<polygon style="fill:#A4A5A9;" points="523.402,4.645 525.292,6.273 520.915,4.976 520.633,3.825 				"/>
				<polygon style="fill:#A4A5A9;" points="522.223,2.009 523.859,-0.371 526.014,-1.655 523.428,2.106 				"/>
				<polygon style="fill:#A4A5A9;" points="526.98,-2.231 531.83,-5.121 522.524,-4.127 521.608,-1.657 				"/>
				<polygon style="fill:#A4A5A9;" points="521.475,-1.17 518.698,-4.792 519.23,-2.356 520.988,-0.064 				"/>
				<polygon style="fill:#A4A5A9;" points="517.206,-0.657 518.32,-5.944 516.828,-11.553 514.898,-2.395 				"/>
				<polygon style="fill:#A4A5A9;" points="518.634,0.47 517.756,-0.325 513.453,1.197 515.912,1.434 				"/>
				<polygon style="fill:#A4A5A9;" points="512.112,1.145 506.076,0.727 514.189,5.392 516.796,3.839 				"/>
				<polygon style="fill:#FFFFFF;" points="526.772,-1.888 525.758,-1.578 526.513,-2.322 526.203,-3.336 526.947,-2.581 
					527.961,-2.891 527.206,-2.147 527.516,-1.133 				"/>
				<polygon style="fill:#FFFFFF;" points="511.901,1.469 510.887,1.779 511.642,1.035 511.332,0.021 512.077,0.776 513.09,0.466 
					512.335,1.211 512.645,2.224 				"/>
				<polygon style="fill:#FFFFFF;" points="518.477,-5.615 517.839,-5.42 518.314,-5.888 518.119,-6.527 518.588,-6.051 
					519.226,-6.246 518.751,-5.778 518.946,-5.139 				"/>
				<polygon style="fill:#FFFFFF;" points="525.784,7.387 525.146,7.582 525.621,7.114 525.426,6.475 525.895,6.951 526.533,6.755 
					526.058,7.224 526.253,7.863 				"/>
			</g>
			<g>
				<path style="fill:#737377;" d="M723.646,156.561l-7.762-17.256l10.688-15.614l-18.81,2.049l-11.547-14.99l-3.864,18.523
					l-17.825,6.35l16.422,9.398l0.531,18.914l14.013-12.714L723.646,156.561z M696.098,152.807l-0.3-10.689l-9.281-5.312
					l10.074-3.589l2.184-10.469l6.526,8.472l10.631-1.158l-6.041,8.824l4.387,9.753l-10.259-3.018L696.098,152.807z"/>
				<path style="fill:#C6C8C9;" d="M719.17,152.819l-6.16-13.695l8.483-12.392l-14.929,1.626l-9.164-11.896l-3.066,14.7
					l-14.146,5.039l13.033,7.459l0.421,15.011l11.122-10.091L719.17,152.819z M696.524,141.683l-8.247-4.72l8.951-3.189l1.94-9.302
					l5.799,7.528l9.446-1.029l-5.367,7.841l3.898,8.666l-9.116-2.682l-7.037,6.385L696.524,141.683z"/>
				<path style="fill:#737377;" d="M716.847,150.377l-5.204-11.57l7.166-10.469l-12.612,1.374l-7.742-10.05l-2.59,12.419
					l-11.951,4.257l11.011,6.301l0.356,12.681l9.395-8.525L716.847,150.377z M697.716,140.97l-6.967-3.987l7.562-2.694l1.639-7.858
					l4.899,6.359l7.98-0.869l-4.534,6.624l3.293,7.321l-7.701-2.266l-5.945,5.394L697.716,140.97z"/>
				<polygon style="fill:#A4A5A9;" points="691.48,163.935 693.642,158.672 704.764,148.581 705.494,151.221 				"/>
				<polygon style="fill:#A4A5A9;" points="695.281,155.322 697.941,148.994 697.716,140.97 694.925,142.64 				"/>
				<polygon style="fill:#A4A5A9;" points="723.646,156.561 719.17,152.819 713.01,139.124 715.884,139.305 				"/>
				<polygon style="fill:#A4A5A9;" points="711.587,145.865 716.847,150.377 704.677,146.797 703.886,143.6 				"/>
				<polygon style="fill:#A4A5A9;" points="708.294,138.544 712.828,131.92 718.809,128.339 711.643,138.808 				"/>
				<polygon style="fill:#A4A5A9;" points="721.493,126.732 726.573,123.691 707.762,125.74 706.564,128.359 				"/>
				<polygon style="fill:#A4A5A9;" points="706.198,129.713 698.456,119.663 699.95,126.43 704.848,132.79 				"/>
				<polygon style="fill:#A4A5A9;" points="694.334,131.163 697.4,116.462 696.215,110.75 692.352,129.273 				"/>
				<polygon style="fill:#A4A5A9;" points="698.31,134.289 695.865,132.082 683.915,136.339 690.748,136.982 				"/>
				<polygon style="fill:#A4A5A9;" points="680.188,136.202 674.527,135.622 690.95,145.021 693.221,143.661 				"/>
				<polygon style="fill:#FFFFFF;" points="721.084,127.573 719.036,128.203 720.559,126.696 719.928,124.647 721.436,126.171 
					723.484,125.54 721.961,127.047 722.592,129.096 				"/>
				<polygon style="fill:#FFFFFF;" points="680.407,136.522 678.358,137.152 679.882,135.645 679.251,133.596 680.758,135.12 
					682.807,134.489 681.284,135.997 681.914,138.045 				"/>
				<polygon style="fill:#FFFFFF;" points="719.307,130.823 718.017,131.22 718.976,130.271 718.579,128.981 719.528,129.94 
					720.818,129.543 719.859,130.492 720.256,131.782 				"/>
				<polygon style="fill:#FFFFFF;" points="700.053,153.147 698.763,153.544 699.722,152.595 699.325,151.305 700.274,152.264 
					701.564,151.867 700.605,152.816 701.002,154.106 				"/>
			</g>
			<g>
				<polygon style="fill:#A4A5A9;" points="660.925,3.177 658.661,0.811 659.502,-2.354 656.552,-0.932 653.802,-2.71 
					654.242,0.535 651.702,2.601 654.924,3.185 656.104,6.24 657.655,3.355 				"/>
				<polygon style="fill:#C6C8C9;" points="660.925,3.177 658.661,0.811 659.502,-2.354 656.552,-0.932 653.802,-2.71 
					657.655,3.355 				"/>
			</g>
			<g>
				<polygon style="fill:#A4A5A9;" points="713.837,209.029 711.574,206.663 712.414,203.498 709.464,204.92 706.714,203.142 
					707.155,206.387 704.614,208.453 707.837,209.037 709.017,212.092 710.568,209.207 				"/>
				<polygon style="fill:#C6C8C9;" points="713.837,209.029 711.574,206.663 712.414,203.498 709.464,204.92 706.714,203.142 
					710.568,209.207 				"/>
			</g>
			<g>
				<polygon style="fill:#A4A5A9;" points="717.846,339.227 712.944,339.342 710.293,335.217 708.887,339.914 704.145,341.161 
					708.178,343.95 707.898,348.845 711.797,345.871 716.366,347.65 714.742,343.023 				"/>
				<polygon style="fill:#C6C8C9;" points="717.846,339.227 712.944,339.342 710.293,335.216 708.887,339.914 704.145,341.161 
					714.742,343.023 				"/>
			</g>
			<g>
				<polygon style="fill:#A4A5A9;" points="525.997,62.829 521.095,62.944 518.444,58.819 517.038,63.516 512.295,64.763 
					516.329,67.552 516.049,72.447 519.947,69.473 524.517,71.252 522.893,66.625 				"/>
				<polygon style="fill:#C6C8C9;" points="525.997,62.829 521.095,62.944 518.444,58.819 517.038,63.516 512.295,64.763 
					522.893,66.625 				"/>
			</g>
			<g>
				<polygon style="fill:#A4A5A9;" points="674.95,93.455 671.619,89.856 672.956,85.139 668.505,87.194 664.431,84.464 
					665.01,89.333 661.155,92.364 665.965,93.318 667.656,97.921 670.05,93.641 				"/>
				<polygon style="fill:#C6C8C9;" points="674.95,93.455 671.619,89.856 672.957,85.138 668.505,87.194 664.431,84.464 
					670.05,93.641 				"/>
			</g>
			<g>
				<polygon style="fill:#A4A5A9;" points="528.393,178.281 525.362,178.612 523.5,176.197 522.878,179.182 520.005,180.207 
					522.653,181.721 522.739,184.769 524.997,182.719 527.923,183.579 526.671,180.798 				"/>
				<polygon style="fill:#C6C8C9;" points="528.393,178.281 525.362,178.612 523.5,176.197 522.878,179.182 520.005,180.207 
					526.671,180.798 				"/>
			</g>
			<polygon style="fill:#FFFFFF;" points="633.252,157.02 632.569,160.126 631.736,157.056 628.63,156.373 631.699,155.54 
				632.383,152.433 633.216,155.503 636.322,156.187 			"/>
			<polygon style="fill:#FFFFFF;" points="745.56,93.51 744.876,96.617 744.043,93.547 740.937,92.864 744.007,92.031 
				744.69,88.924 745.523,91.994 748.629,92.677 			"/>
			<polygon style="fill:#FFFFFF;" points="653.064,306.818 652.381,309.924 651.548,306.855 648.441,306.171 651.511,305.338 
				652.195,302.232 653.028,305.302 656.134,305.985 			"/>
			<polygon style="fill:#FFFFFF;" points="393.502,12.042 393.18,13.507 392.787,12.059 391.321,11.737 392.769,11.344 
				393.092,9.879 393.485,11.327 394.95,11.649 			"/>
			<polygon style="fill:#FFFFFF;" points="735.534,382.426 735.212,383.892 734.819,382.444 733.354,382.121 734.802,381.728 
				735.124,380.263 735.517,381.711 736.982,382.033 			"/>
			<polygon style="fill:#FFFFFF;" points="560.771,35.158 560.448,36.623 560.056,35.175 558.59,34.853 560.038,34.46 
				560.361,32.994 560.753,34.442 562.219,34.765 			"/>
			<polygon style="fill:#FFFFFF;" points="740.293,232.617 739.971,234.082 739.578,232.634 738.113,232.312 739.561,231.919 
				739.883,230.453 740.276,231.901 741.741,232.224 			"/>
			<polygon style="fill:#FFFFFF;" points="586.702,206.775 586.38,208.241 585.987,206.793 584.522,206.471 585.97,206.078 
				586.292,204.612 586.685,206.06 588.15,206.383 			"/>
			<polygon style="fill:#FFFFFF;" points="475.239,85.02 474.556,88.126 473.723,85.056 470.616,84.373 473.686,83.54 
				474.37,80.434 475.202,83.503 478.309,84.187 			"/>
			<polygon style="fill:#FFFFFF;" points="678.258,31.829 677.575,34.935 676.742,31.865 673.636,31.182 676.705,30.349 
				677.389,27.243 678.222,30.312 681.328,30.996 			"/>
		</g>
	</g>
</g>
</svg>
